<svg width="924" height="400" viewBox="0 0 924 400" fill="none" xmlns="http://www.w3.org/2000/svg">
<mask id="mask0_389_839" style="mask-type:alpha" maskUnits="userSpaceOnUse" x="-1" y="0" width="925" height="400">
<path d="M924 400L-0.000183105 400L-0.000148136 0.000132844L924 0.000213623L924 400Z" fill="url(#paint0_linear_389_839)"/>
</mask>
<g mask="url(#mask0_389_839)">
<path d="M1449.41 -515.098C1497.68 -532.681 1516.02 -575.784 1484.47 -600.389C1419.54 -651.022 1152.27 -626.01 1139.7 -591.689C1127.31 -557.876 1348.66 -478.399 1449.41 -515.098Z" stroke="#EFF2FF" stroke-width="3" stroke-miterlimit="10"/>
<path d="M1329.78 -402.479C1219.5 -368.879 1034.33 -608.103 1110.76 -664.58C1157.75 -699.308 1271.52 -694.968 1364.29 -683.555C1451.38 -672.843 1575.82 -629.039 1606.53 -556.29C1622.78 -517.67 1613.02 -462.646 1578.59 -443.376C1551.95 -428.466 1515.98 -435.174 1508.04 -432.694C1470.21 -446.344 1464.66 -451.649 1434.52 -454.85C1395.12 -459.038 1360.1 -411.717 1329.78 -402.479Z" stroke="#EFF2FF" stroke-width="3" stroke-miterlimit="10"/>
<path d="M1217.88 -284.818C1089.8 -302.604 950.623 -652.018 1089.56 -732.43C1178.04 -783.643 1332.3 -761.03 1439.82 -733.955C1538.59 -709.085 1703.05 -626.092 1736.32 -507.151C1755.67 -438.04 1732.16 -340.818 1664.82 -312.696C1611.14 -290.286 1541.98 -309.556 1529.8 -311.04C1457.82 -344.721 1452 -361.856 1398.4 -373.391C1327.44 -388.647 1271.41 -277.348 1217.88 -284.818Z" stroke="#EFF2FF" stroke-width="3" stroke-miterlimit="10"/>
<path d="M1114.1 -167.94C972.688 -200.727 875.031 -696.432 1076.47 -801.053C1206.48 -868.568 1401.28 -828.067 1523.47 -785.127C1634 -746.293 1837.79 -624.09 1874.23 -458.784C1896.21 -359.092 1859.53 -219.885 1759.17 -182.789C1678.53 -152.97 1575.54 -183.572 1559.7 -190.157C1448.9 -236.228 1447.5 -272.836 1370.37 -292.705C1267.9 -319.17 1188.16 -150.805 1114.1 -167.94Z" stroke="#EFF2FF" stroke-width="3" stroke-miterlimit="10"/>
<path d="M1016.56 -56.3778C859.955 -103.678 805.937 -745.663 1069.62 -875.001C1241.33 -958.472 1476.59 -900.531 1613.34 -841.635C1735.77 -788.918 1978.63 -627.515 2018.43 -415.732C2042.89 -285.55 1993.18 -104.308 1859.8 -58.1768C1752.15 -20.9791 1616.16 -64.6101 1595.86 -74.56C1453.04 -144.565 1449.35 -189.283 1348.7 -217.344C1214.72 -255.019 1110.3 -28.073 1016.56 -56.3778Z" stroke="#EFF2FF" stroke-width="3" stroke-miterlimit="10"/>
<path d="M1964.81 64.9516C1830.19 109.518 1661.28 52.9183 1636.4 39.5434C1461.95 -54.2436 1455.49 -106.879 1331.37 -143.396C1165.84 -192.088 1036.14 94.0187 923.486 53.7721C750.447 -8.05128 740.735 -797.14 1067.24 -950.362C1280.28 -1050.34 1556.46 -974.48 1707.69 -899.546C1842 -833.006 2123.75 -632.403 2166.99 -374.103C2193.87 -213.442 2131.24 9.85634 1964.81 64.9516Z" stroke="#EFF2FF" stroke-width="3" stroke-miterlimit="10"/>
<path d="M508.173 146.258C561.197 146.644 624.787 226.619 577.232 239.974C549.768 247.698 477.051 235.482 448.487 213.742C408.26 183.151 471.686 145.984 508.173 146.258Z" stroke="#EFF2FF" stroke-width="3" stroke-miterlimit="10"/>
<path d="M652.275 228.774C647.086 239.506 622.788 244.273 600.618 257.343C555.646 283.869 549.195 296.472 517.254 312.469C504.796 318.719 488.036 326.931 471.674 323.171C446.617 317.408 440.364 292.467 408.564 248.542C367.332 191.464 351.718 176.707 363.498 146.461C366.245 139.428 369.798 116.652 389.654 102.759C417.154 83.5506 449.387 98.389 489.684 85.6747C538.08 70.4297 562.074 43.2937 583.076 55.2864C597.871 63.7321 598.421 86.8638 609.5 127.141C617.938 157.824 623.244 177.957 633.505 194.381C645.812 213.936 658.048 216.842 652.275 228.774Z" stroke="#EFF2FF" stroke-width="3" stroke-miterlimit="10"/>
<path d="M733.325 206.405C732.425 225.43 698.065 234.638 669.747 262.13C611.674 318.526 638.578 358.824 592.028 400.026C572.277 417.517 541.283 434.459 510.218 431.176C466.135 426.511 451.327 386.905 383.46 306.605C294.731 201.618 256.935 181.057 265.222 125.108C266.916 113.705 268.564 69.9216 303.24 43.5681C349.485 8.42344 404.917 40.3972 477.319 13.9827C558.217 -15.4908 588.452 -78.5033 615.729 -65.4638C634.674 -56.4083 627.416 -19.9423 641.979 51.1805C652.287 101.733 658.656 131.277 679.26 155.476C705.264 185.997 734.295 185.743 733.325 206.405Z" stroke="#EFF2FF" stroke-width="3" stroke-miterlimit="10"/>
<path d="M814.457 184.279C817.963 211.547 773.47 225.257 738.958 267.171C667.901 353.457 729.164 420.901 666.884 487.837C640.226 516.477 594.506 542.098 548.844 539.425C485.559 535.726 462.173 481.759 358.344 364.911C221.839 212.238 163.053 185.356 166.91 103.999C167.669 88.1343 167.319 23.4551 216.79 -15.4094C281.794 -66.4597 360.541 -17.2896 464.907 -57.4855C578.389 -101.188 614.759 -200.046 648.395 -186C671.477 -176.284 656.693 -126.525 674.469 -24.5564C686.74 45.8651 694.138 84.6787 725.039 116.795C764.869 158.18 810.705 154.907 814.457 184.279Z" stroke="#EFF2FF" stroke-width="3" stroke-miterlimit="10"/>
<path d="M895.776 162.214C903.641 197.695 849.144 215.958 808.356 272.263C724.466 388.49 820.219 482.816 741.915 575.698C708.443 615.437 647.881 649.748 587.645 647.736C505.111 644.971 473.521 576.46 333.462 423.269C149.613 222.646 69.6027 189.513 68.8898 82.9407C68.7496 62.6141 66.4354 -22.8998 130.644 -74.3261C214.488 -141.221 316.399 -74.8851 452.799 -128.903C598.888 -186.773 641.394 -321.569 681.247 -306.486C708.478 -296.14 686.156 -233.047 707.146 -100.243C721.416 -9.94174 729.795 38.0901 770.992 78.164C824.683 130.363 887.314 124.061 895.776 162.214Z" stroke="#EFF2FF" stroke-width="3" stroke-miterlimit="10"/>
<path d="M977.246 140.16C964.075 93.2057 884.673 102.556 817.133 39.5435C765.628 -8.49839 756.267 -65.7279 739.998 -175.918C715.841 -339.548 745.667 -415.986 714.287 -426.952C668.158 -443.081 619.528 -272.338 440.808 -200.31C272.444 -132.46 147.158 -216.104 44.6158 -133.233C-34.4358 -69.3359 -30.0413 37.0129 -29.0128 61.9029C-23.5666 193.66 77.5384 233.073 308.744 481.647C485.044 671.182 524.804 754.217 626.634 756.056C701.431 757.408 776.871 714.387 817.133 663.57C911.413 544.659 780.985 423.401 877.906 277.365C924.877 206.598 989.506 183.842 977.246 140.16Z" stroke="#EFF2FF" stroke-width="3" stroke-miterlimit="10"/>
<path d="M303.427 -615.583C317.264 -609.485 346.318 -621.234 348.89 -639.538C351.8 -660.301 318.924 -677.477 304.479 -672.142C287.392 -665.82 285.066 -623.652 303.427 -615.583Z" stroke="#EFF2FF" stroke-width="3" stroke-miterlimit="10"/>
<path d="M264.438 -725.905C240.854 -706.727 230.546 -671.532 218.753 -611.202C207.066 -551.381 208.901 -508.553 219.174 -505.443C224.772 -503.766 240.632 -516.887 254.236 -526.501C279.702 -544.45 323.295 -542.458 334.468 -544.399C375.372 -551.513 387.387 -564.726 404.485 -590.032C412.397 -601.72 430.851 -627.637 438.974 -658.126C451.362 -704.298 506.887 -718.527 500.121 -737.034C494.429 -752.482 439.418 -756.233 403.749 -756.67C352.629 -757.3 300.902 -755.521 264.438 -725.905Z" stroke="#EFF2FF" stroke-width="3" stroke-miterlimit="10"/>
<path d="M223.557 -777.464C184.791 -743.193 169.539 -685.679 146.048 -578.121C122.183 -470.044 122.335 -395.913 134.092 -393.149C142.916 -391.035 171.491 -417.754 195.777 -436.851C241.555 -473.002 323.505 -467.056 340.393 -469.373C417.411 -479.72 436.391 -504.508 466.24 -551.361C478.675 -570.874 512.789 -618.439 528.333 -674.611C552.257 -760.664 665.68 -783.196 656.295 -815.099C648.453 -841.665 543.269 -845.741 477.085 -843.556C383.635 -840.395 289.063 -835.395 223.557 -777.464Z" stroke="#EFF2FF" stroke-width="3" stroke-miterlimit="10"/>
<path d="M182.898 -828.687C128.915 -779.334 108.895 -699.461 73.5764 -544.704C37.7087 -388.342 36.0374 -283.08 49.2439 -280.458C61.34 -278.019 102.607 -318.266 137.505 -346.896C203.479 -401.34 323.891 -391.33 346.505 -393.952C459.613 -407.083 485.664 -443.803 528.181 -512.303C545.151 -539.632 594.903 -608.855 617.891 -690.68C653.315 -816.623 824.648 -847.438 812.669 -892.746C802.665 -930.432 647.285 -934.995 550.609 -930.005C414.852 -923.348 277.294 -914.994 182.898 -828.687Z" stroke="#EFF2FF" stroke-width="3" stroke-miterlimit="10"/>
<path d="M142.367 -879.879C73.1323 -815.444 48.3675 -713.201 1.22172 -511.246C-46.6954 -306.618 -50.2015 -170.257 -35.4992 -167.727C-20.1189 -165.054 33.8638 -218.665 79.35 -256.849C165.648 -329.466 324.382 -315.491 352.723 -318.489C501.92 -334.232 535.24 -382.975 590.24 -473.195C611.814 -508.319 677.133 -599.22 707.543 -706.707C754.502 -872.531 983.745 -911.64 969.136 -970.353C956.993 -1019.14 751.417 -1024.01 624.238 -1016.42C446.231 -1005.99 265.607 -994.593 142.367 -879.879Z" stroke="#EFF2FF" stroke-width="3" stroke-miterlimit="10"/>
<path d="M358.999 -242.996C544.274 -261.29 584.56 -322.27 652.345 -434.066C678.407 -477.047 759.422 -589.565 797.265 -722.704C855.701 -928.43 1142.89 -975.821 1125.67 -1047.93C1111.37 -1107.89 855.607 -1112.97 697.925 -1102.81C477.599 -1088.58 253.943 -1074.17 101.882 -931.052C17.3964 -851.524 -12.1018 -726.942 -71.0866 -477.768C-130.96 -224.865 -136.3 -57.4346 -120.172 -54.9751C-101.473 -52.1294 -34.8564 -119.004 21.2417 -166.771C127.875 -257.55 324.919 -239.632 358.999 -242.996Z" stroke="#EFF2FF" stroke-width="3" stroke-miterlimit="10"/>
<path d="M1865.47 245.858C1844.43 175.732 1693.43 208.671 1513.68 50.7231C1449.28 -5.87631 1406.09 -65.0776 1320.85 -74.2855C1312.25 -75.2104 1226.85 -83.3308 1166.58 -35.6649C1090.75 24.2986 1137.03 107.485 1048.54 223.499C1015.94 266.236 1010.52 253.827 986.596 287.528C884.498 431.39 1040.22 577.436 950.366 723.534C909.005 790.784 847.52 806.222 853.363 815.003C878.584 852.679 1922.31 434.825 1865.47 245.858Z" stroke="#EFF2FF" stroke-width="3" stroke-miterlimit="10"/>
<path d="M1297.47 21.5849C1292.31 22.1947 1236 18.536 1197.37 52.2375C1148.53 94.7912 1183.35 153.383 1127.39 232.483C1106.8 261.612 1103.93 253.715 1089.28 276.755C1026.75 375.075 1138.97 473.984 1084.02 570.23C1058.59 614.786 1018.44 625 1024.42 629.35C1051.42 649.189 1740.34 356.11 1686.23 228.581C1665.94 180.752 1555.19 197.725 1428.45 94.7098C1382.37 57.2784 1351.16 15.2531 1297.47 21.5849Z" stroke="#EFF2FF" stroke-width="3" stroke-miterlimit="10"/>
<path d="M1274.1 117.465C1272.63 120.687 1245.09 120.616 1228.17 140.14C1206.2 165.467 1229.59 199.209 1206.24 241.458C1197.68 256.967 1197.33 253.654 1191.95 265.982C1168.87 319.004 1237.82 370.471 1217.66 416.937C1208.23 438.809 1190.7 442.539 1195.37 443.707C1229.55 439.49 1557.67 277.111 1507.06 211.303C1487.29 185.59 1416.55 186.82 1343.27 138.697C1315.42 120.403 1297.19 107.007 1274.1 117.465Z" stroke="#EFF2FF" stroke-width="3" stroke-miterlimit="10"/>
<path d="M1250.72 213.336C1268.86 259.426 1340.27 275.098 1366.43 258.054C1404.99 232.89 1372.1 200.124 1327.86 194.026C1294.8 189.503 1229.97 160.588 1250.72 213.336Z" stroke="#EFF2FF" stroke-width="3" stroke-miterlimit="10"/>
</g>
<defs>
<linearGradient id="paint0_linear_389_839" x1="739.88" y1="200" x2="119.022" y2="200" gradientUnits="userSpaceOnUse">
<stop stop-color="#F2F4FF"/>
<stop offset="1" stop-color="#F2F4FF" stop-opacity="0"/>
</linearGradient>
</defs>
</svg>
