<svg width="14" height="14" viewBox="0 0 14 14" fill="none" xmlns="http://www.w3.org/2000/svg">
<path d="M8.35479 5.32769C8.53576 5.53626 8.85155 5.55863 9.06012 5.37765C9.2687 5.19667 9.29106 4.88088 9.11009 4.67231L8.35479 5.32769ZM5.64523 8.67231C5.46425 8.46374 5.14846 8.44137 4.93989 8.62235C4.73132 8.80333 4.70895 9.11912 4.88993 9.32769L5.64523 8.67231ZM7.5 3.66667C7.5 3.39052 7.27614 3.16667 7 3.16667C6.72386 3.16667 6.5 3.39052 6.5 3.66667H7.5ZM6.5 10.3333C6.49999 10.6095 6.72385 10.8333 6.99999 10.8333C7.27613 10.8333 7.49999 10.6095 7.5 10.3333L6.5 10.3333ZM12.5 7C12.5 10.0376 10.0376 12.5 7 12.5V13.5C10.5899 13.5 13.5 10.5899 13.5 7H12.5ZM7 12.5C3.96243 12.5 1.5 10.0376 1.5 7H0.5C0.5 10.5899 3.41015 13.5 7 13.5V12.5ZM1.5 7C1.5 3.96243 3.96243 1.5 7 1.5V0.5C3.41015 0.5 0.5 3.41015 0.5 7H1.5ZM7 1.5C10.0376 1.5 12.5 3.96243 12.5 7H13.5C13.5 3.41015 10.5899 0.5 7 0.5V1.5ZM7 6.5C6.53266 6.5 6.13218 6.37281 5.86314 6.19345C5.5906 6.01176 5.5 5.81567 5.5 5.66667H4.5C4.5 6.25405 4.85712 6.72462 5.30844 7.0255C5.76325 7.32871 6.36277 7.5 7 7.5V6.5ZM5.5 5.66667C5.5 5.51767 5.5906 5.32157 5.86314 5.13988C6.13218 4.96052 6.53266 4.83333 7 4.83333V3.83333C6.36277 3.83333 5.76325 4.00462 5.30844 4.30783C4.85712 4.60871 4.5 5.07929 4.5 5.66667H5.5ZM7 4.83333C7.63696 4.83333 8.12817 5.06652 8.35479 5.32769L9.11009 4.67231C8.64508 4.13641 7.8436 3.83333 7 3.83333V4.83333ZM7 7.5C7.46734 7.5 7.86783 7.62719 8.13687 7.80655C8.40941 7.98824 8.50001 8.18434 8.50001 8.33333H9.50001C9.50001 7.74595 9.14289 7.27538 8.69157 6.9745C8.23675 6.67129 7.63723 6.5 7 6.5V7.5ZM6.5 3.66667V4.33333H7.5V3.66667H6.5ZM6.50001 9.66666L6.5 10.3333L7.5 10.3333L7.50001 9.66668L6.50001 9.66666ZM7.00002 9.16667C6.36306 9.16666 5.87184 8.93347 5.64523 8.67231L4.88993 9.32769C5.35493 9.86359 6.15642 10.1667 7.00001 10.1667L7.00002 9.16667ZM8.50001 8.33333C8.50001 8.48233 8.40941 8.67843 8.13688 8.86012C7.86784 9.03948 7.46735 9.16667 7.00001 9.16667V10.1667C7.63724 10.1667 8.23676 9.99538 8.69158 9.69217C9.1429 9.39129 9.50001 8.92071 9.50001 8.33333H8.50001ZM6.5 4.33333L6.50001 9.66667L7.50001 9.66667L7.5 4.33333L6.5 4.33333Z" fill="#5D5D5D"/>
</svg>
