<svg width="36" height="36" viewBox="0 0 36 36" fill="none" xmlns="http://www.w3.org/2000/svg">
<rect width="36" height="36" rx="18" fill="#353947"/>
<path d="M27 18.055C27 13.0541 22.9706 9 18 9C13.0294 9 9 13.0541 9 18.055C9 22.5745 12.2912 26.3207 16.5938 27V20.6725H14.3086V18.055H16.5938V16.0601C16.5938 13.7907 17.9374 12.5371 19.9932 12.5371C20.9776 12.5371 22.0078 12.714 22.0078 12.714V14.9423H20.873C19.755 14.9423 19.4062 15.6404 19.4062 16.3572V18.055H21.9023L21.5033 20.6725H19.4062V27C23.7088 26.3207 27 22.5745 27 18.055Z" fill="white"/>
</svg>
