<svg width="143" height="84" viewBox="0 0 143 84" fill="none" xmlns="http://www.w3.org/2000/svg">
<g clip-path="url(#clip0_415_940)">
<path fill-rule="evenodd" clip-rule="evenodd" d="M9.40466 73.7868C10.447 73.2448 11.1049 72.2627 11.1049 70.9939C11.1049 69.018 9.46014 67.6943 6.25788 67.6943H0V80.3901H6.6225C9.98725 80.3901 11.7469 79.1213 11.7469 76.9255C11.7469 75.3306 10.8314 74.2425 9.40466 73.7868ZM5.89327 69.9058C7.33984 69.9058 8.12455 70.3968 8.12455 71.3946C8.12455 72.3923 7.33587 72.8991 5.89327 72.8991H2.94465V69.9058H5.88931H5.89327ZM6.40452 78.1746H2.94465V75.036H6.40452C7.94224 75.036 8.76659 75.5427 8.76659 76.6151C8.76659 77.6875 7.94224 78.1746 6.40452 78.1746ZM16.5226 71.917V70.6286H13.7959V80.3862H16.6494V75.7784C16.6494 73.9086 17.6917 73.0601 19.2651 73.0601C19.4831 73.0601 19.6693 73.0798 19.9071 73.0955V70.4833C18.3892 70.4833 17.2161 70.9743 16.5226 71.917ZM25.523 70.4833C23.9496 70.4833 22.3564 70.8996 21.2784 71.6617L22.3049 73.6376C23.0182 73.0759 24.0962 72.7302 25.1425 72.7302C26.6802 72.7302 27.4095 73.4372 27.4095 74.651H25.1425C22.1424 74.651 20.9177 75.8491 20.9177 77.5697C20.9177 79.2902 22.289 80.5276 24.5956 80.5276C26.0422 80.5276 27.0647 80.0562 27.5957 79.1684V80.3823H30.2669V74.816C30.2669 71.8581 28.5271 70.4833 25.5269 70.4833H25.523ZM25.305 78.6264C24.2983 78.6264 23.6959 78.155 23.6959 77.4479C23.6959 76.7958 24.116 76.3048 25.4516 76.3048H27.4095V77.3026C27.0805 78.1903 26.2562 78.6264 25.305 78.6264ZM34.2697 69.2852C35.1654 69.2852 35.8075 68.6331 35.8075 67.7453C35.8075 66.8576 35.1654 66.2212 34.2697 66.2212C33.3741 66.2212 32.732 66.8733 32.732 67.7453C32.732 68.6174 33.3741 69.2852 34.2697 69.2852ZM32.843 80.3823H35.6965V70.6247H32.843V80.3823ZM44.3323 70.4793C42.9967 70.4793 41.8434 70.9311 41.0745 71.7678V70.6247H38.3479V80.3823H41.2014V75.5585C41.2014 73.7633 42.1882 72.9305 43.5634 72.9305C44.8277 72.9305 45.5569 73.6572 45.5569 75.2324V80.3823H48.4104V74.7964C48.4104 71.8228 46.6547 70.4793 44.3283 70.4793H44.3323Z" fill="white"/>
<path fill-rule="evenodd" clip-rule="evenodd" d="M67.9132 80.3898H69.34L63.4864 67.694H62.1508L56.2971 80.3898H57.7041L59.2418 76.9998H66.3795L67.9172 80.3898H67.9132ZM59.7332 75.9117L62.8086 69.0924L65.8841 75.9117H59.7372H59.7332ZM75.0827 80.4802C76.7115 80.4802 78.0828 79.8281 78.8517 78.5946L77.8807 77.9425C77.2228 78.905 76.1963 79.3371 75.0827 79.3371C72.9782 79.3371 71.4405 77.8679 71.4405 75.621C71.4405 73.3741 72.9782 71.905 75.0827 71.905C76.2003 71.905 77.2228 72.3567 77.8807 73.3191L78.8517 72.667C78.0828 71.4139 76.7115 70.7815 75.0827 70.7815C72.2094 70.7815 70.1247 72.777 70.1247 75.6249C70.1247 78.4729 72.2094 80.4841 75.0827 80.4841V80.4802ZM84.7608 70.7776C83.2429 70.7776 81.8161 71.2489 80.8452 72.066L81.4317 73.0284C82.2204 72.341 83.3895 71.905 84.634 71.905C86.4253 71.905 87.3606 72.7927 87.3606 74.4268V75.0082H84.305C81.5427 75.0082 80.5915 76.2417 80.5915 77.7108C80.5915 79.3606 81.9271 80.4841 84.1029 80.4841C85.6961 80.4841 86.8296 79.887 87.4161 78.905V80.3937H88.6606V74.4818C88.6606 72.0149 87.2497 70.7815 84.7648 70.7815L84.7608 70.7776ZM84.305 79.4628C82.7673 79.4628 81.8716 78.7753 81.8716 77.6676C81.8716 76.6895 82.474 75.9628 84.3407 75.9628H87.3606V77.5222C86.8494 78.7753 85.7674 79.4628 84.305 79.4628ZM99.71 66.9319V72.6631C98.9054 71.4296 97.5857 70.7776 96.0519 70.7776C93.3054 70.7776 91.2565 72.7377 91.2565 75.621C91.2565 78.5043 93.3054 80.4802 96.0519 80.4802C97.6451 80.4802 98.9807 79.7927 99.7655 78.5043V80.3898H101.01V66.9319H99.71ZM96.159 79.3371C94.11 79.3371 92.5723 77.8483 92.5723 75.621C92.5723 73.3937 94.11 71.905 96.159 71.905C98.2079 71.905 99.7258 73.3937 99.7258 75.621C99.7258 77.8483 98.1881 79.3371 96.159 79.3371ZM113.03 75.621C113.03 72.7574 111.072 70.7776 108.366 70.7776C105.659 70.7776 103.665 72.7888 103.665 75.621C103.665 78.4532 105.714 80.4802 108.714 80.4802C110.232 80.4802 111.568 79.9381 112.428 78.9207L111.695 78.0879C110.961 78.9207 109.919 79.341 108.75 79.341C106.646 79.341 105.108 78.0172 104.961 76.0217H113.01C113.01 75.8763 113.03 75.731 113.03 75.621ZM108.366 71.8853C110.252 71.8853 111.623 73.1895 111.786 75.0593H104.961C105.128 73.1895 106.499 71.8853 108.366 71.8853ZM127.686 70.7776C125.946 70.7776 124.575 71.5593 123.882 72.7888C123.295 71.4454 122.051 70.7776 120.461 70.7776C118.872 70.7776 117.608 71.4493 116.93 72.5924V70.8522H115.686V80.3898H116.986V75.3853C116.986 73.2091 118.25 71.9403 120.208 71.9403C121.963 71.9403 122.99 72.9734 122.99 74.9886V80.3937H124.29V75.3892C124.29 73.213 125.534 71.9442 127.512 71.9442C129.252 71.9442 130.274 72.9773 130.274 74.9925V80.3977H131.574V74.8668C131.574 72.1289 130.036 70.7854 127.694 70.7854L127.686 70.7776ZM141.72 70.8483L138.098 78.956L134.475 70.8483H133.12L137.42 80.3702L137 81.2933C136.449 82.4914 135.866 82.8881 135.006 82.8881C134.313 82.8881 133.726 82.6328 133.251 82.1614L132.648 83.1238C133.235 83.7052 134.095 83.9959 134.99 83.9959C136.362 83.9959 137.388 83.3988 138.193 81.529L143.004 70.8483H141.724H141.72Z" fill="white"/>
<path fill-rule="evenodd" clip-rule="evenodd" d="M39.7707 24.7318C50.6893 26.5662 60.1058 31.3822 67.4496 37.1252C74.1435 27.6111 84.0198 19.2323 94.5975 13.0258C96.7139 11.7845 98.854 10.6296 101.006 9.57296C98.3348 10.064 95.8856 10.7043 93.5116 11.5606C87.9631 4.52525 79.3194 0 69.6135 0C54.7 0 42.3032 10.6728 39.7707 24.7318ZM68.7258 50.7402C74.5715 40.8923 85.1453 25.6588 95.9926 15.2374C97.9623 13.344 99.9439 11.6077 101.906 10.0915C100.388 12.6016 98.6757 14.8956 96.912 16.9697C98.8421 20.9214 99.928 25.3603 99.928 30.0466C99.928 46.6392 86.3541 60.0932 69.6135 60.0932C52.873 60.0932 39.2991 46.6392 39.2991 30.0466C39.2991 28.5539 39.41 27.0887 39.6201 25.6549C51.3313 33.5859 62.5353 44.7065 68.7258 50.7363V50.7402Z" fill="white"/>
</g>
<defs>
<clipPath id="clip0_415_940">
<rect width="143" height="84" fill="white"/>
</clipPath>
</defs>
</svg>
