<svg width="48" height="48" viewBox="0 0 48 48" fill="none" xmlns="http://www.w3.org/2000/svg">
<rect width="48" height="48" rx="24" fill="#353947"/>
<path fill-rule="evenodd" clip-rule="evenodd" d="M24.0053 16.621C26.4114 16.621 26.6963 16.6316 27.6426 16.6738C28.522 16.7124 28.9969 16.8601 29.3135 16.9832C29.7321 17.1449 30.0346 17.3419 30.3476 17.6548C30.6642 17.9713 30.8577 18.2702 31.0195 18.6886C31.1426 19.0051 31.2904 19.4833 31.3291 20.3588C31.3713 21.3082 31.3818 21.5931 31.3818 23.9947C31.3818 26.3999 31.3713 26.6847 31.3291 27.6306C31.2904 28.5096 31.1426 28.9843 31.0195 29.3008C30.8577 29.7193 30.6607 30.0217 30.3476 30.3346C30.0311 30.6511 29.7321 30.8445 29.3135 31.0062C28.9969 31.1293 28.5185 31.277 27.6426 31.3157C26.6928 31.3578 26.4078 31.3684 24.0053 31.3684C21.5992 31.3684 21.3142 31.3578 20.368 31.3157C19.4886 31.277 19.0137 31.1293 18.6971 31.0062C18.2785 30.8445 17.976 30.6476 17.6629 30.3346C17.3463 30.0181 17.1528 29.7193 16.991 29.3008C16.8679 28.9843 16.7201 28.5061 16.6815 27.6306C16.6392 26.6812 16.6287 26.3963 16.6287 23.9947C16.6287 21.5896 16.6392 21.3047 16.6815 20.3588C16.7201 19.4798 16.8679 19.0051 16.991 18.6886C17.1528 18.2702 17.3498 17.9678 17.6629 17.6548C17.9795 17.3383 18.2785 17.1449 18.6971 16.9832C19.0137 16.8601 19.4921 16.7124 20.368 16.6738C21.3142 16.6316 21.5992 16.621 24.0053 16.621ZM24.0053 15C21.5605 15 21.2544 15.0105 20.2941 15.0527C19.3373 15.0949 18.6795 15.2497 18.1096 15.4712C17.5151 15.7033 17.0121 16.0092 16.5126 16.512C16.0096 17.0113 15.7035 17.5142 15.4714 18.1049C15.2498 18.6781 15.095 19.3321 15.0528 20.2885C15.0106 21.252 15 21.5579 15 24.0017C15 26.4456 15.0106 26.7515 15.0528 27.7114C15.095 28.6679 15.2498 29.3254 15.4714 29.8951C15.7035 30.4893 16.0096 30.9922 16.5126 31.4915C17.0121 31.9908 17.5151 32.3002 18.1061 32.5288C18.6795 32.7503 19.3338 32.905 20.2906 32.9472C21.2509 32.9894 21.557 33 24.0017 33C26.4465 33 26.7526 32.9894 27.7129 32.9472C28.6697 32.905 29.3275 32.7503 29.8974 32.5288C30.4884 32.3002 30.9914 31.9908 31.4909 31.4915C31.9904 30.9922 32.3 30.4893 32.5286 29.8986C32.7502 29.3254 32.905 28.6714 32.9472 27.715C32.9894 26.755 33 26.4491 33 24.0053C33 21.5614 32.9894 21.2555 32.9472 20.2956C32.905 19.3391 32.7502 18.6816 32.5286 18.1119C32.307 17.5142 32.001 17.0113 31.4979 16.512C30.9984 16.0127 30.4954 15.7033 29.9044 15.4747C29.331 15.2532 28.6768 15.0985 27.7199 15.0563C26.7561 15.0105 26.4501 15 24.0053 15ZM24.0057 19.3785C21.4519 19.3785 19.38 21.4496 19.38 24.0025C19.38 26.5553 21.4519 28.6264 24.0057 28.6264C26.5596 28.6264 28.6315 26.5553 28.6315 24.0025C28.6315 21.4496 26.5596 19.3785 24.0057 19.3785ZM24.0057 27.0019C22.3489 27.0019 21.0051 25.6586 21.0051 24.0025C21.0051 22.3463 22.3489 21.003 24.0057 21.003C25.6625 21.003 27.0063 22.3463 27.0063 24.0025C27.0063 25.6586 25.6625 27.0019 24.0057 27.0019ZM28.8143 20.2747C29.4088 20.2747 29.8942 19.793 29.8942 19.1952C29.8942 18.601 29.4088 18.1157 28.8143 18.1157C28.2198 18.1157 27.7344 18.5975 27.7344 19.1952C27.7344 19.7895 28.2163 20.2747 28.8143 20.2747Z" fill="white"/>
</svg>
