<svg width="48" height="48" viewBox="0 0 48 48" fill="none" xmlns="http://www.w3.org/2000/svg">
<rect width="48" height="48" rx="24" fill="#353947"/>
<path d="M31.6676 15H16.3289C15.5941 15 15 15.5801 15 16.2973V31.6992C15 32.4164 15.5941 33 16.3289 33H31.6676C32.4023 33 33 32.4164 33 31.7027V16.2973C33 15.5801 32.4023 15 31.6676 15ZM20.3402 30.3387H17.6684V21.7465H20.3402V30.3387ZM19.0043 20.5758C18.1465 20.5758 17.4539 19.8832 17.4539 19.0289C17.4539 18.1746 18.1465 17.482 19.0043 17.482C19.8586 17.482 20.5512 18.1746 20.5512 19.0289C20.5512 19.8797 19.8586 20.5758 19.0043 20.5758ZM30.3387 30.3387H27.6703V26.1621C27.6703 25.1672 27.6527 23.884 26.2816 23.884C24.893 23.884 24.682 24.9703 24.682 26.0918V30.3387H22.0172V21.7465H24.5766V22.9207H24.6117C24.9668 22.2457 25.8387 21.532 27.1359 21.532C29.8395 21.532 30.3387 23.3109 30.3387 25.6242V30.3387Z" fill="white"/>
</svg>
