<svg width="48" height="48" viewBox="0 0 48 48" fill="none" xmlns="http://www.w3.org/2000/svg">
<rect width="48" height="48" rx="24" fill="#353947"/>
<path d="M33 24.055C33 19.0541 28.9706 15 24 15C19.0294 15 15 19.0541 15 24.055C15 28.5745 18.2912 32.3207 22.5938 33V26.6725H20.3086V24.055H22.5938V22.0601C22.5938 19.7907 23.9374 18.5371 25.9932 18.5371C26.9776 18.5371 28.0078 18.714 28.0078 18.714V20.9423H26.873C25.755 20.9423 25.4062 21.6404 25.4062 22.3572V24.055H27.9023L27.5033 26.6725H25.4062V33C29.7088 32.3207 33 28.5745 33 24.055Z" fill="white"/>
</svg>
