<svg width="628" height="208" viewBox="0 0 628 208" fill="none" xmlns="http://www.w3.org/2000/svg">
<path d="M104 -1.81839e-05L628 -0.000109803L628 208L104 208C46.5624 208 2.82266e-05 161.438 1.81839e-05 104C8.14123e-06 46.5624 46.5624 -8.14123e-06 104 -1.81839e-05Z" fill="url(#paint0_linear_1276_913)"/>
<mask id="mask0_1276_913" style="mask-type:alpha" maskUnits="userSpaceOnUse" x="104" y="8" width="513" height="192">
<path d="M104 8H617V200H104V8Z" fill="url(#paint1_linear_1276_913)"/>
</mask>
<g mask="url(#mask0_1276_913)">
<path d="M-187.966 516.872C-214.79 526.641 -224.979 550.59 -207.446 564.261C-171.375 592.393 -22.8742 578.496 -15.8872 559.427C-9.00404 540.64 -131.991 496.481 -187.966 516.872Z" stroke="#EFF2FF" stroke-width="6" stroke-miterlimit="10"/>
<path d="M-121.498 454.299C-60.225 435.63 42.6585 568.547 0.19081 599.926C-25.9197 619.222 -89.1277 616.811 -140.673 610.469C-189.063 604.517 -258.206 580.179 -275.265 539.759C-284.297 518.301 -278.875 487.728 -259.745 477.022C-244.94 468.738 -224.953 472.465 -220.544 471.087C-199.524 478.671 -196.44 481.619 -179.693 483.397C-157.803 485.724 -138.349 459.432 -121.498 454.299Z" stroke="#EFF2FF" stroke-width="6" stroke-miterlimit="10"/>
<path d="M-59.329 388.925C11.8336 398.807 89.1651 592.947 11.97 637.625C-37.1925 666.08 -122.901 653.515 -182.641 638.472C-237.518 624.654 -328.895 578.542 -347.382 512.456C-358.129 474.057 -345.07 420.039 -307.654 404.414C-277.83 391.963 -239.401 402.669 -232.635 403.494C-192.641 422.208 -189.407 431.728 -159.628 438.138C-120.199 446.613 -89.0693 384.774 -59.329 388.925Z" stroke="#EFF2FF" stroke-width="6" stroke-miterlimit="10"/>
<path d="M-1.66641 323.986C76.9053 342.203 131.165 617.624 19.2428 675.753C-52.9912 713.265 -161.225 690.762 -229.115 666.904C-290.531 645.327 -403.759 577.429 -424.005 485.583C-436.22 430.193 -415.837 352.847 -360.077 332.236C-315.271 315.668 -258.05 332.671 -249.245 336.33C-187.687 361.927 -186.907 382.267 -144.05 393.307C-87.1212 408.011 -42.8159 314.465 -1.66641 323.986Z" stroke="#EFF2FF" stroke-width="6" stroke-miterlimit="10"/>
<path d="M52.5286 262C139.542 288.281 169.555 644.977 23.048 716.839C-72.3549 763.217 -203.07 731.024 -279.05 698.301C-347.077 669.01 -482.012 579.332 -504.123 461.663C-517.714 389.332 -490.097 288.631 -415.986 263C-356.174 242.332 -280.615 266.574 -269.336 272.102C-189.985 310.998 -187.933 335.844 -132.011 351.435C-57.5692 372.368 0.443998 246.273 52.5286 262Z" stroke="#EFF2FF" stroke-width="6" stroke-miterlimit="10"/>
<path d="M-474.33 194.588C-399.538 169.826 -305.687 201.273 -291.862 208.705C-194.933 260.814 -191.349 290.059 -122.381 310.349C-30.4133 337.403 41.6519 178.437 104.243 200.799C200.386 235.149 205.782 673.579 24.3727 758.711C-93.9978 814.259 -247.446 772.111 -331.473 730.477C-406.096 693.507 -562.642 582.048 -586.668 438.533C-601.604 349.267 -566.805 225.199 -474.33 194.588Z" stroke="#EFF2FF" stroke-width="6" stroke-miterlimit="10"/>
<path d="M334.997 149.412C305.536 149.198 270.205 104.763 296.627 97.3425C311.887 93.0509 352.289 99.8384 368.159 111.917C390.51 128.914 355.27 149.565 334.997 149.412Z" stroke="#EFF2FF" stroke-width="6" stroke-miterlimit="10"/>
<path d="M254.932 103.565C257.815 97.6022 271.315 94.9539 283.633 87.692C308.62 72.9536 312.205 65.9515 329.951 57.0633C336.874 53.5905 346.185 49.0278 355.276 51.1171C369.198 54.3189 372.672 68.1764 390.341 92.5822C413.251 124.295 421.926 132.494 415.38 149.299C413.854 153.207 411.88 165.862 400.848 173.581C385.569 184.254 367.659 176.009 345.27 183.073C318.38 191.544 305.049 206.621 293.38 199.958C285.159 195.265 284.854 182.413 278.698 160.034C274.01 142.986 271.062 131.8 265.36 122.674C258.523 111.81 251.724 110.195 254.932 103.565Z" stroke="#EFF2FF" stroke-width="6" stroke-miterlimit="10"/>
<path d="M209.899 115.994C210.399 105.423 229.49 100.307 245.224 85.0323C277.49 53.6978 262.542 31.3079 288.406 8.4154C299.38 -1.30288 316.601 -10.7162 333.861 -8.89229C358.354 -6.30037 366.582 15.7055 404.29 60.3215C453.588 118.654 474.588 130.077 469.985 161.164C469.043 167.499 468.127 191.826 448.861 206.468C423.166 225.995 392.367 208.23 352.14 222.907C307.192 239.283 290.393 274.293 275.237 267.048C264.711 262.017 268.744 241.756 260.653 202.239C254.925 174.151 251.386 157.736 239.938 144.291C225.49 127.333 209.36 127.474 209.899 115.994Z" stroke="#EFF2FF" stroke-width="6" stroke-miterlimit="10"/>
<path d="M164.821 128.287C162.873 113.137 187.594 105.519 206.769 82.2314C246.25 34.2894 212.211 -3.1833 246.815 -40.3737C261.627 -56.2866 287.029 -70.5224 312.399 -69.0373C347.562 -66.9818 360.555 -36.9969 418.244 27.9253C494.088 112.753 526.751 127.689 524.608 172.892C524.186 181.707 524.381 217.644 496.894 239.237C460.777 267.602 417.023 240.282 359.036 262.615C295.984 286.897 275.776 341.824 257.088 334.02C244.263 328.622 252.477 300.975 242.601 244.32C235.782 205.192 231.672 183.627 214.503 165.783C192.373 142.789 166.906 144.607 164.821 128.287Z" stroke="#EFF2FF" stroke-width="6" stroke-miterlimit="10"/>
<path d="M119.639 140.547C115.269 120.834 145.548 110.686 168.211 79.4024C214.821 14.8246 161.62 -37.5841 205.126 -89.191C223.724 -111.27 257.373 -130.334 290.841 -129.216C336.698 -127.68 354.25 -89.6145 432.069 -4.49905C534.219 106.97 578.673 125.379 579.069 184.592C579.147 195.886 580.433 243.399 544.758 271.972C498.173 309.14 441.549 272.283 365.763 302.296C284.594 334.449 260.977 409.344 238.835 400.964C223.705 395.216 236.107 360.16 224.445 286.372C216.516 236.199 211.86 209.512 188.971 187.247C159.139 158.244 124.341 161.745 119.639 140.547Z" stroke="#EFF2FF" stroke-width="6" stroke-miterlimit="10"/>
<path d="M74.3728 152.801C81.691 178.889 125.808 173.694 163.334 208.705C191.951 235.397 197.152 267.195 206.191 328.419C219.614 419.333 203.042 461.804 220.477 467.897C246.107 476.858 273.127 381.991 372.426 341.971C465.972 304.272 535.582 350.746 592.556 304.702C636.479 269.2 634.037 210.111 633.466 196.281C630.44 123.075 574.264 101.177 445.803 -36.9348C347.848 -142.243 325.757 -188.378 269.179 -189.401C227.62 -190.152 185.704 -166.248 163.334 -138.014C110.951 -71.9454 183.419 -4.57245 129.568 76.5676C103.47 115.887 67.5611 128.53 74.3728 152.801Z" stroke="#EFF2FF" stroke-width="6" stroke-miterlimit="10"/>
<path d="M448.757 572.703C441.069 569.314 424.926 575.842 423.497 586.012C421.88 597.549 440.147 607.092 448.173 604.127C457.666 600.615 458.958 577.186 448.757 572.703Z" stroke="#EFF2FF" stroke-width="6" stroke-miterlimit="10"/>
<path d="M470.42 634C483.524 623.344 489.251 603.789 495.803 570.269C502.296 537.031 501.277 513.235 495.569 511.507C492.459 510.576 483.647 517.866 476.089 523.208C461.939 533.18 437.718 532.073 431.51 533.152C408.783 537.105 402.108 544.446 392.608 558.506C388.211 565 377.958 579.4 373.445 596.34C366.562 621.994 335.711 629.9 339.471 640.183C342.633 648.766 373.199 650.85 393.017 651.093C421.42 651.443 450.16 650.455 470.42 634Z" stroke="#EFF2FF" stroke-width="6" stroke-miterlimit="10"/>
<path d="M493.134 662.646C514.673 643.605 523.147 611.649 536.199 551.888C549.459 491.839 549.374 450.651 542.842 449.115C537.939 447.94 522.063 462.786 508.569 473.396C483.134 493.482 437.601 490.179 428.218 491.467C385.426 497.215 374.88 510.988 358.296 537.02C351.387 547.862 332.432 574.289 323.796 605.5C310.504 653.312 247.484 665.831 252.698 683.557C257.055 698.318 315.497 700.582 352.27 699.368C404.192 697.612 456.738 694.833 493.134 662.646Z" stroke="#EFF2FF" stroke-width="6" stroke-miterlimit="10"/>
<path d="M515.725 691.106C545.719 663.685 556.842 619.306 576.465 533.321C596.394 446.444 597.323 387.959 589.985 386.502C583.264 385.147 560.336 407.509 540.946 423.416C504.29 453.666 437.387 448.104 424.822 449.561C361.978 456.857 347.504 477.259 323.88 515.319C314.452 530.504 286.809 568.964 274.036 614.427C254.354 684.404 159.159 701.525 165.815 726.699C171.373 747.637 257.705 750.173 311.419 747.4C386.848 743.701 463.277 739.06 515.725 691.106Z" stroke="#EFF2FF" stroke-width="6" stroke-miterlimit="10"/>
<path d="M538.245 719.55C576.712 683.749 590.472 626.941 616.667 514.732C643.29 401.037 645.238 325.273 637.069 323.867C628.524 322.382 598.53 352.169 573.258 373.385C525.309 413.732 437.114 405.967 421.367 407.633C338.471 416.38 319.958 443.462 289.4 493.59C277.412 513.105 241.12 563.611 224.224 623.333C198.133 715.467 70.7624 737.196 78.8793 769.818C85.6261 796.923 199.847 799.628 270.51 795.416C369.413 789.616 469.77 783.286 538.245 719.55Z" stroke="#EFF2FF" stroke-width="6" stroke-miterlimit="10"/>
<path d="M417.88 365.688C314.939 375.852 292.555 409.734 254.893 471.849C240.412 495.73 195.399 558.247 174.373 632.221C141.906 746.525 -17.6599 772.856 -8.09493 812.921C-0.146847 846.238 141.958 849.061 229.568 843.414C351.984 835.509 476.251 827.501 560.738 747.982C607.68 703.795 624.07 634.575 656.842 496.131C690.109 355.614 693.076 262.587 684.115 261.221C673.725 259.639 636.712 296.796 605.543 323.336C546.296 373.774 436.816 363.819 417.88 365.688Z" stroke="#EFF2FF" stroke-width="6" stroke-miterlimit="10"/>
<path d="M-419.135 94.073C-407.447 133.037 -323.551 114.735 -223.68 202.493C-187.894 233.941 -163.901 266.834 -116.537 271.95C-111.758 272.464 -64.3094 276.975 -30.8223 250.492C11.3077 217.175 -14.4067 170.955 34.7623 106.496C52.8727 82.751 55.8857 89.6458 69.178 70.9207C125.905 -9.01088 39.3856 -90.1565 89.3079 -171.33C112.288 -208.696 146.451 -217.274 143.204 -222.152C129.191 -243.085 -450.72 -10.9194 -419.135 94.073Z" stroke="#EFF2FF" stroke-width="6" stroke-miterlimit="10"/>
<path d="M-103.55 218.683C-100.68 218.344 -69.3939 220.377 -47.9328 201.652C-20.7963 178.008 -40.1406 145.454 -9.04956 101.504C2.39203 85.3203 3.98296 89.708 12.1258 76.9065C46.8662 22.2785 -15.4847 -32.6769 15.0479 -86.1529C29.1778 -110.909 51.4831 -116.584 48.1649 -119.001C33.1583 -130.024 -349.616 32.8157 -319.551 103.673C-308.278 130.247 -246.739 120.817 -176.323 178.053C-150.719 198.851 -133.381 222.201 -103.55 218.683Z" stroke="#EFF2FF" stroke-width="6" stroke-miterlimit="10"/>
<path d="M-90.5628 165.41C-89.7446 163.62 -74.4459 163.66 -65.0433 152.812C-52.8355 138.74 -65.8355 119.992 -52.8614 96.5181C-48.1017 87.901 -47.9069 89.7418 -44.9199 82.8922C-32.0952 53.4324 -70.407 24.8366 -59.2056 -0.980954C-53.9654 -13.133 -44.2251 -15.2055 -46.8225 -15.8549C-65.8095 -13.5114 -248.122 76.7089 -219.998 113.272C-209.018 127.559 -169.712 126.876 -128.998 153.614C-113.524 163.778 -103.394 171.221 -90.5628 165.41Z" stroke="#EFF2FF" stroke-width="6" stroke-miterlimit="10"/>
<path d="M-77.5758 112.143C-87.6538 86.5344 -127.329 77.8269 -141.862 87.2967C-163.29 101.278 -145.011 119.484 -120.433 122.872C-102.063 125.385 -66.0433 141.45 -77.5758 112.143Z" stroke="#EFF2FF" stroke-width="6" stroke-miterlimit="10"/>
</g>
<defs>
<linearGradient id="paint0_linear_1276_913" x1="125.138" y1="104" x2="547.106" y2="104" gradientUnits="userSpaceOnUse">
<stop stop-color="#F2F4FF"/>
<stop offset="1" stop-color="#F2F4FF" stop-opacity="0"/>
</linearGradient>
<linearGradient id="paint1_linear_1276_913" x1="206.222" y1="104" x2="550.92" y2="104" gradientUnits="userSpaceOnUse">
<stop stop-color="#F2F4FF"/>
<stop offset="1" stop-color="#F2F4FF" stop-opacity="0"/>
</linearGradient>
</defs>
</svg>
