<svg width="1440" height="359" viewBox="0 0 1440 359" fill="none" xmlns="http://www.w3.org/2000/svg">
<rect width="1440" height="359" fill="url(#paint0_linear_1071_915)"/>
<mask id="mask0_1071_915" style="mask-type:alpha" maskUnits="userSpaceOnUse" x="0" y="0" width="1440" height="359">
<rect width="1440" height="359" fill="#F2F4FF"/>
</mask>
<g mask="url(#mask0_1071_915)">
<path d="M247.77 290.403C205.617 308.038 189.607 351.267 217.158 375.944C273.841 426.727 507.196 401.641 518.175 367.219C528.992 333.306 335.728 253.596 247.77 290.403Z" stroke="url(#paint1_linear_1071_915)" stroke-width="16" stroke-miterlimit="10"/>
<path d="M352.218 177.453C448.502 143.755 610.175 383.681 543.44 440.324C502.41 475.154 403.084 470.802 322.085 459.355C246.045 448.611 137.393 404.679 110.587 331.716C96.3933 292.982 104.914 237.797 134.975 218.47C158.24 203.517 189.647 210.245 196.576 207.757C229.606 221.447 234.453 226.768 260.769 229.978C295.167 234.178 325.738 186.719 352.218 177.453Z" stroke="url(#paint2_linear_1071_915)" stroke-width="16" stroke-miterlimit="10"/>
<path d="M449.911 59.4469C561.736 77.2849 683.255 427.726 561.95 508.374C484.696 559.737 350.013 537.057 256.137 509.903C169.903 484.96 26.3122 401.723 -2.73856 282.432C-19.6262 213.119 0.89408 115.611 59.6895 87.4067C106.556 64.9308 166.944 84.2571 177.576 85.7453C240.423 119.525 245.504 136.711 292.3 148.28C354.258 163.58 403.176 51.955 449.911 59.4469Z" stroke="url(#paint3_linear_1071_915)" stroke-width="16" stroke-miterlimit="10"/>
<path d="M540.522 -57.7742C663.99 -24.8911 749.255 472.27 573.379 577.198C459.87 644.911 289.79 604.292 183.107 561.225C86.5974 522.277 -91.3296 399.715 -123.146 233.923C-142.339 133.939 -110.309 -5.67704 -22.6873 -42.8821C47.7202 -72.7888 137.638 -42.0972 151.474 -35.492C248.208 10.7136 249.433 47.4293 316.779 67.357C406.237 93.8999 475.859 -74.9599 540.522 -57.7742Z" stroke="url(#paint4_linear_1071_915)" stroke-width="16" stroke-miterlimit="10"/>
<path d="M625.685 -169.665C762.418 -122.226 809.581 521.645 579.358 651.363C429.441 735.08 224.035 676.969 104.638 617.899C-2.25897 565.028 -214.298 403.15 -249.043 190.745C-270.399 60.181 -227.002 -121.594 -110.544 -167.86C-16.5547 -205.167 102.179 -161.408 119.903 -151.429C244.596 -81.2185 247.821 -36.3687 335.697 -8.22536C452.676 29.5607 543.838 -198.052 625.685 -169.665Z" stroke="url(#paint5_linear_1071_915)" stroke-width="16" stroke-miterlimit="10"/>
<path d="M-202.227 -291.35C-84.697 -336.047 62.7813 -279.282 84.5056 -265.867C236.821 -171.805 242.453 -119.015 350.83 -82.3907C495.349 -33.5553 608.593 -320.503 706.949 -280.138C858.029 -218.133 866.509 573.274 581.44 726.946C395.431 827.216 154.301 751.134 22.2612 675.98C-95.003 609.245 -341.001 408.053 -378.756 148.994C-402.225 -12.1395 -347.542 -236.093 -202.227 -291.35Z" stroke="url(#paint6_linear_1071_915)" stroke-width="16" stroke-miterlimit="10"/>
<path d="M1069.56 -372.896C1023.26 -373.283 967.743 -453.493 1009.26 -466.887C1033.24 -474.633 1096.73 -462.381 1121.67 -440.578C1156.79 -409.897 1101.41 -372.62 1069.56 -372.896Z" stroke="url(#paint7_linear_1071_915)" stroke-width="16" stroke-miterlimit="10"/>
<path d="M943.743 -455.654C948.273 -466.418 969.488 -471.198 988.845 -484.307C1028.11 -510.911 1033.74 -523.55 1061.63 -539.594C1072.51 -545.863 1087.14 -554.099 1101.43 -550.328C1123.3 -544.548 1128.76 -519.534 1156.53 -475.479C1192.53 -418.235 1206.16 -403.434 1195.87 -373.099C1193.48 -366.046 1190.37 -343.203 1173.04 -329.269C1149.03 -310.004 1120.88 -324.886 1085.7 -312.134C1043.45 -296.844 1022.5 -269.629 1004.16 -281.657C991.243 -290.127 990.763 -313.327 981.09 -353.722C973.722 -384.495 969.09 -404.688 960.131 -421.16C949.386 -440.772 938.702 -443.687 943.743 -455.654Z" stroke="url(#paint8_linear_1071_915)" stroke-width="16" stroke-miterlimit="10"/>
<path d="M872.978 -433.219C873.764 -452.3 903.764 -461.535 928.488 -489.108C979.192 -545.67 955.702 -586.085 996.345 -627.408C1013.59 -644.951 1040.65 -661.943 1067.77 -658.65C1106.26 -653.972 1119.19 -614.249 1178.45 -533.713C1255.91 -428.418 1288.91 -407.797 1281.68 -351.684C1280.2 -340.247 1278.76 -296.335 1248.49 -269.904C1208.11 -234.656 1159.71 -266.724 1096.5 -240.232C1025.86 -210.672 999.467 -147.474 975.651 -160.552C959.11 -169.634 965.447 -206.207 952.733 -277.539C943.733 -328.239 938.172 -357.871 920.182 -382.141C897.478 -412.751 872.131 -412.496 872.978 -433.219Z" stroke="url(#paint9_linear_1071_915)" stroke-width="16" stroke-miterlimit="10"/>
<path d="M802.142 -411.028C799.081 -438.376 837.928 -452.127 868.06 -494.164C930.1 -580.703 876.611 -648.345 930.988 -715.477C954.263 -744.202 994.181 -769.899 1034.05 -767.218C1089.3 -763.508 1109.72 -709.382 1200.37 -592.191C1319.56 -439.07 1370.88 -412.109 1367.51 -330.513C1366.85 -314.601 1367.16 -249.732 1323.96 -210.753C1267.21 -159.553 1198.46 -208.867 1107.33 -168.554C1008.25 -124.723 976.498 -25.5741 947.131 -39.6611C926.978 -49.4057 939.886 -99.3115 924.366 -201.579C913.651 -272.208 907.192 -311.135 880.213 -343.346C845.438 -384.852 805.418 -381.57 802.142 -411.028Z" stroke="url(#paint10_linear_1071_915)" stroke-width="16" stroke-miterlimit="10"/>
<path d="M731.143 -388.899C724.276 -424.483 771.857 -442.8 807.469 -499.27C880.713 -615.839 797.112 -710.442 865.478 -803.597C894.703 -843.452 947.58 -877.865 1000.17 -875.846C1072.23 -873.074 1099.81 -804.362 1222.1 -650.72C1382.62 -449.507 1452.47 -416.278 1453.1 -309.392C1453.22 -289.006 1455.24 -203.241 1399.18 -151.663C1325.97 -84.572 1237 -151.103 1117.9 -96.9261C990.355 -38.8863 953.243 96.3055 918.447 81.1789C894.672 70.8022 914.162 7.52318 895.835 -125.671C883.376 -216.237 876.06 -264.41 840.091 -304.601C793.214 -356.953 738.531 -350.634 731.143 -388.899Z" stroke="url(#paint11_linear_1071_915)" stroke-width="16" stroke-miterlimit="10"/>
<path d="M660.011 -366.78C671.511 -319.687 740.837 -329.065 799.805 -265.868C844.774 -217.685 852.948 -160.287 867.152 -49.7727C888.243 114.337 862.203 191 889.601 201.998C929.876 218.175 972.335 46.9298 1128.37 -25.3091C1275.37 -93.3586 1384.76 -9.46894 1474.29 -92.5839C1543.31 -156.668 1539.47 -263.329 1538.57 -288.293C1533.82 -420.437 1445.54 -459.966 1243.68 -709.27C1089.75 -899.362 1055.04 -982.64 966.131 -984.485C900.825 -985.841 834.958 -942.693 799.805 -891.727C717.49 -772.467 831.366 -650.853 746.745 -504.387C705.735 -433.412 649.307 -410.59 660.011 -366.78Z" stroke="url(#paint12_linear_1071_915)" stroke-width="16" stroke-miterlimit="10"/>
<path d="M1248.32 391.183C1236.24 385.067 1210.87 396.851 1208.63 415.208C1206.09 436.033 1234.79 453.259 1247.4 447.908C1262.32 441.568 1264.35 399.277 1248.32 391.183Z" stroke="url(#paint13_linear_1071_915)" stroke-width="16" stroke-miterlimit="10"/>
<path d="M1282.36 501.83C1302.95 482.595 1311.95 447.296 1322.25 386.79C1332.45 326.793 1330.85 283.839 1321.88 280.72C1316.99 279.038 1303.15 292.197 1291.27 301.84C1269.04 319.841 1230.98 317.843 1221.22 319.79C1185.51 326.926 1175.02 340.177 1160.09 365.558C1153.18 377.28 1137.07 403.272 1129.98 433.852C1119.16 480.159 1070.68 494.43 1076.59 512.991C1081.56 528.485 1129.59 532.246 1160.73 532.685C1205.36 533.317 1250.53 531.533 1282.36 501.83Z" stroke="url(#paint14_linear_1071_915)" stroke-width="16" stroke-miterlimit="10"/>
<path d="M1318.06 553.54C1351.9 519.168 1365.22 461.485 1385.73 353.611C1406.57 245.217 1406.43 170.868 1396.17 168.096C1388.46 165.976 1363.51 192.773 1342.31 211.926C1302.34 248.183 1230.79 242.22 1216.05 244.544C1148.8 254.921 1132.23 279.782 1106.17 326.773C1095.31 346.343 1065.53 394.047 1051.96 450.385C1031.07 536.69 932.039 559.289 940.233 591.285C947.08 617.93 1038.92 622.017 1096.7 619.826C1178.29 616.656 1260.86 611.641 1318.06 553.54Z" stroke="url(#paint15_linear_1071_915)" stroke-width="16" stroke-miterlimit="10"/>
<path d="M1353.56 604.913C1400.69 555.415 1418.17 475.307 1449 320.096C1480.32 163.274 1481.78 57.7039 1470.25 55.0741C1459.69 52.6277 1423.66 92.9926 1393.19 121.707C1335.59 176.311 1230.45 166.271 1210.71 168.901C1111.96 182.071 1089.21 218.898 1052.09 287.6C1037.27 315.01 993.834 384.435 973.763 466.5C942.835 592.814 793.244 623.72 803.703 669.161C812.438 706.957 948.1 711.534 1032.51 706.529C1151.04 699.852 1271.14 691.474 1353.56 604.913Z" stroke="url(#paint16_linear_1071_915)" stroke-width="16" stroke-miterlimit="10"/>
<path d="M1388.94 656.256C1449.39 591.632 1471.01 489.088 1512.18 286.54C1554.01 81.3113 1557.07 -55.4503 1544.24 -57.9884C1530.81 -60.6692 1483.68 -6.90023 1443.96 31.3955C1368.62 104.226 1230.03 90.21 1205.28 93.2169C1075.02 109.006 1045.93 157.892 997.906 248.377C979.069 283.605 922.039 374.772 895.488 482.575C854.489 648.887 654.337 688.11 667.092 746.996C677.694 795.923 857.182 800.805 968.222 793.201C1123.64 782.733 1281.34 771.306 1388.94 656.256Z" stroke="url(#paint17_linear_1071_915)" stroke-width="16" stroke-miterlimit="10"/>
<path d="M1199.8 17.5021C1038.04 35.8498 1002.86 97.0088 943.682 209.133C920.927 252.24 850.193 365.089 817.152 498.619C766.132 704.949 515.39 752.479 530.42 824.8C542.91 884.939 766.214 890.036 903.886 879.843C1096.25 865.573 1291.53 851.119 1424.29 707.579C1498.05 627.817 1523.81 502.87 1575.31 252.964C1627.58 -0.682414 1632.25 -168.604 1618.17 -171.071C1601.84 -173.925 1543.68 -106.854 1494.7 -58.9465C1401.6 32.0987 1229.56 14.1282 1199.8 17.5021Z" stroke="url(#paint18_linear_1071_915)" stroke-width="16" stroke-miterlimit="10"/>
<path d="M-115.493 -472.789C-97.1254 -402.456 34.7101 -435.492 191.648 -277.08C247.882 -220.314 285.586 -160.939 360.013 -151.704C367.524 -150.777 442.084 -142.632 494.706 -190.438C560.91 -250.578 520.502 -334.009 597.766 -450.364C626.225 -493.226 630.96 -480.78 651.848 -514.581C740.99 -658.865 605.032 -805.34 683.48 -951.867C719.592 -1019.31 773.275 -1034.8 768.173 -1043.61C746.153 -1081.39 -165.125 -662.31 -115.493 -472.789Z" stroke="url(#paint19_linear_1071_915)" stroke-width="16" stroke-miterlimit="10"/>
<path d="M380.421 -247.856C384.932 -248.468 434.094 -244.798 467.819 -278.599C510.461 -321.278 480.063 -380.041 528.92 -459.374C546.9 -488.588 549.4 -480.668 562.195 -503.776C616.787 -602.384 518.808 -701.584 566.787 -798.113C588.991 -842.8 624.042 -853.044 618.827 -857.407C595.246 -877.304 -6.24869 -583.364 40.9958 -455.46C58.7099 -407.491 155.413 -424.514 266.065 -321.196C306.3 -283.655 333.544 -241.506 380.421 -247.856Z" stroke="url(#paint20_linear_1071_915)" stroke-width="16" stroke-miterlimit="10"/>
<path d="M400.829 -344.018C402.115 -347.25 426.156 -347.178 440.931 -366.759C460.115 -392.161 439.686 -426.002 460.074 -468.375C467.553 -483.93 467.859 -480.607 472.553 -492.971C492.706 -546.149 432.503 -597.767 450.104 -644.37C458.339 -666.306 473.645 -670.046 469.563 -671.219C439.727 -666.989 153.24 -504.133 197.433 -438.132C214.688 -412.343 276.453 -413.577 340.432 -365.312C364.748 -346.964 380.666 -333.53 400.829 -344.018Z" stroke="url(#paint21_linear_1071_915)" stroke-width="16" stroke-miterlimit="10"/>
<path d="M421.237 -440.17C405.401 -486.396 343.054 -502.114 320.218 -485.02C286.545 -459.782 315.269 -426.919 353.891 -420.803C382.758 -416.268 439.36 -387.268 421.237 -440.17Z" stroke="url(#paint22_linear_1071_915)" stroke-width="16" stroke-miterlimit="10"/>
</g>
<path d="M549 139.159V113.591C549 105.826 550.373 97.5871 553.119 88.875C555.96 80.0682 560.032 71.5928 565.335 63.4489C570.733 55.2102 577.22 48.0606 584.795 42L602.977 56.7727C597.011 65.2955 591.803 74.197 587.352 83.4773C582.996 92.6629 580.818 102.511 580.818 113.023V139.159H549ZM604.727 139.159V113.591C604.727 105.826 606.1 97.5871 608.847 88.875C611.687 80.0682 615.759 71.5928 621.062 63.4489C626.46 55.2102 632.947 48.0606 640.523 42L658.705 56.7727C652.739 65.2955 647.53 74.197 643.08 83.4773C638.723 92.6629 636.545 102.511 636.545 113.023V139.159H604.727Z" fill="#FBCBD4"/>
<defs>
<linearGradient id="paint0_linear_1071_915" x1="1440" y1="179.5" x2="104" y2="179.5" gradientUnits="userSpaceOnUse">
<stop stop-color="#F2F4FF"/>
<stop offset="1" stop-color="#D9D9D9" stop-opacity="0"/>
<stop offset="1" stop-color="#F2F4FF" stop-opacity="0"/>
</linearGradient>
<linearGradient id="paint1_linear_1071_915" x1="1439.5" y1="175.5" x2="-127" y2="158" gradientUnits="userSpaceOnUse">
<stop stop-color="#EFF1FF"/>
<stop offset="1" stop-color="#EFF1FF" stop-opacity="0"/>
</linearGradient>
<linearGradient id="paint2_linear_1071_915" x1="1439.5" y1="175.5" x2="-127" y2="158" gradientUnits="userSpaceOnUse">
<stop stop-color="#EFF1FF"/>
<stop offset="1" stop-color="#EFF1FF" stop-opacity="0"/>
</linearGradient>
<linearGradient id="paint3_linear_1071_915" x1="1439.5" y1="175.5" x2="-127" y2="158" gradientUnits="userSpaceOnUse">
<stop stop-color="#EFF1FF"/>
<stop offset="1" stop-color="#EFF1FF" stop-opacity="0"/>
</linearGradient>
<linearGradient id="paint4_linear_1071_915" x1="1439.5" y1="175.5" x2="-127" y2="158" gradientUnits="userSpaceOnUse">
<stop stop-color="#EFF1FF"/>
<stop offset="1" stop-color="#EFF1FF" stop-opacity="0"/>
</linearGradient>
<linearGradient id="paint5_linear_1071_915" x1="1439.5" y1="175.5" x2="-127" y2="158" gradientUnits="userSpaceOnUse">
<stop stop-color="#EFF1FF"/>
<stop offset="1" stop-color="#EFF1FF" stop-opacity="0"/>
</linearGradient>
<linearGradient id="paint6_linear_1071_915" x1="1439.5" y1="175.5" x2="-127" y2="158" gradientUnits="userSpaceOnUse">
<stop stop-color="#EFF1FF"/>
<stop offset="1" stop-color="#EFF1FF" stop-opacity="0"/>
</linearGradient>
<linearGradient id="paint7_linear_1071_915" x1="1439.5" y1="175.5" x2="-127" y2="158" gradientUnits="userSpaceOnUse">
<stop stop-color="#EFF1FF"/>
<stop offset="1" stop-color="#EFF1FF" stop-opacity="0"/>
</linearGradient>
<linearGradient id="paint8_linear_1071_915" x1="1439.5" y1="175.5" x2="-127" y2="158" gradientUnits="userSpaceOnUse">
<stop stop-color="#EFF1FF"/>
<stop offset="1" stop-color="#EFF1FF" stop-opacity="0"/>
</linearGradient>
<linearGradient id="paint9_linear_1071_915" x1="1439.5" y1="175.5" x2="-127" y2="158" gradientUnits="userSpaceOnUse">
<stop stop-color="#EFF1FF"/>
<stop offset="1" stop-color="#EFF1FF" stop-opacity="0"/>
</linearGradient>
<linearGradient id="paint10_linear_1071_915" x1="1439.5" y1="175.5" x2="-127" y2="158" gradientUnits="userSpaceOnUse">
<stop stop-color="#EFF1FF"/>
<stop offset="1" stop-color="#EFF1FF" stop-opacity="0"/>
</linearGradient>
<linearGradient id="paint11_linear_1071_915" x1="1439.5" y1="175.5" x2="-127" y2="158" gradientUnits="userSpaceOnUse">
<stop stop-color="#EFF1FF"/>
<stop offset="1" stop-color="#EFF1FF" stop-opacity="0"/>
</linearGradient>
<linearGradient id="paint12_linear_1071_915" x1="1439.5" y1="175.5" x2="-127" y2="158" gradientUnits="userSpaceOnUse">
<stop stop-color="#EFF1FF"/>
<stop offset="1" stop-color="#EFF1FF" stop-opacity="0"/>
</linearGradient>
<linearGradient id="paint13_linear_1071_915" x1="1439.5" y1="175.5" x2="-127" y2="158" gradientUnits="userSpaceOnUse">
<stop stop-color="#EFF1FF"/>
<stop offset="1" stop-color="#EFF1FF" stop-opacity="0"/>
</linearGradient>
<linearGradient id="paint14_linear_1071_915" x1="1439.5" y1="175.5" x2="-127" y2="158" gradientUnits="userSpaceOnUse">
<stop stop-color="#EFF1FF"/>
<stop offset="1" stop-color="#EFF1FF" stop-opacity="0"/>
</linearGradient>
<linearGradient id="paint15_linear_1071_915" x1="1439.5" y1="175.5" x2="-127" y2="158" gradientUnits="userSpaceOnUse">
<stop stop-color="#EFF1FF"/>
<stop offset="1" stop-color="#EFF1FF" stop-opacity="0"/>
</linearGradient>
<linearGradient id="paint16_linear_1071_915" x1="1439.5" y1="175.5" x2="-127" y2="158" gradientUnits="userSpaceOnUse">
<stop stop-color="#EFF1FF"/>
<stop offset="1" stop-color="#EFF1FF" stop-opacity="0"/>
</linearGradient>
<linearGradient id="paint17_linear_1071_915" x1="1439.5" y1="175.5" x2="-127" y2="158" gradientUnits="userSpaceOnUse">
<stop stop-color="#EFF1FF"/>
<stop offset="1" stop-color="#EFF1FF" stop-opacity="0"/>
</linearGradient>
<linearGradient id="paint18_linear_1071_915" x1="1439.5" y1="175.5" x2="-127" y2="158" gradientUnits="userSpaceOnUse">
<stop stop-color="#EFF1FF"/>
<stop offset="1" stop-color="#EFF1FF" stop-opacity="0"/>
</linearGradient>
<linearGradient id="paint19_linear_1071_915" x1="1439.5" y1="175.5" x2="-127" y2="158" gradientUnits="userSpaceOnUse">
<stop stop-color="#EFF1FF"/>
<stop offset="1" stop-color="#EFF1FF" stop-opacity="0"/>
</linearGradient>
<linearGradient id="paint20_linear_1071_915" x1="1439.5" y1="175.5" x2="-127" y2="158" gradientUnits="userSpaceOnUse">
<stop stop-color="#EFF1FF"/>
<stop offset="1" stop-color="#EFF1FF" stop-opacity="0"/>
</linearGradient>
<linearGradient id="paint21_linear_1071_915" x1="1439.5" y1="175.5" x2="-127" y2="158" gradientUnits="userSpaceOnUse">
<stop stop-color="#EFF1FF"/>
<stop offset="1" stop-color="#EFF1FF" stop-opacity="0"/>
</linearGradient>
<linearGradient id="paint22_linear_1071_915" x1="1439.5" y1="175.5" x2="-127" y2="158" gradientUnits="userSpaceOnUse">
<stop stop-color="#EFF1FF"/>
<stop offset="1" stop-color="#EFF1FF" stop-opacity="0"/>
</linearGradient>
</defs>
</svg>
