<svg width="951" height="400" viewBox="0 0 951 400" fill="none" xmlns="http://www.w3.org/2000/svg">
<path d="M951 400L6.10352e-05 400L2.6066e-05 0.000113657L951 3.05176e-05L951 400Z" fill="url(#paint0_linear_985_916)"/>
<mask id="mask0_985_916" style="mask-type:alpha" maskUnits="userSpaceOnUse" x="0" y="0" width="925" height="401">
<path d="M925 400L0.999817 400L0.999852 0.000254915L925 0.000335693L925 400Z" fill="url(#paint1_linear_985_916)"/>
</mask>
<g mask="url(#mask0_985_916)">
<path d="M1450.41 -515.098C1498.68 -532.681 1517.02 -575.783 1485.47 -600.389C1420.54 -651.022 1153.27 -626.01 1140.7 -591.689C1128.31 -557.876 1349.66 -478.399 1450.41 -515.098Z" stroke="#EFF2FF" stroke-width="3" stroke-miterlimit="10"/>
<path d="M1330.78 -402.479C1220.5 -368.879 1035.33 -608.103 1111.76 -664.58C1158.75 -699.308 1272.52 -694.968 1365.29 -683.555C1452.38 -672.843 1576.82 -629.039 1607.53 -556.29C1623.78 -517.67 1614.02 -462.645 1579.59 -443.376C1552.95 -428.466 1516.98 -435.174 1509.04 -432.694C1471.21 -446.344 1465.66 -451.649 1435.52 -454.85C1396.12 -459.037 1361.1 -411.717 1330.78 -402.479Z" stroke="#EFF2FF" stroke-width="3" stroke-miterlimit="10"/>
<path d="M1218.88 -284.818C1090.8 -302.604 951.623 -652.018 1090.56 -732.43C1179.04 -783.643 1333.3 -761.03 1440.82 -733.955C1539.59 -709.085 1704.05 -626.092 1737.32 -507.15C1756.67 -438.04 1733.16 -340.818 1665.82 -312.696C1612.14 -290.286 1542.98 -309.556 1530.8 -311.04C1458.82 -344.721 1453 -361.856 1399.4 -373.391C1328.44 -388.646 1272.41 -277.348 1218.88 -284.818Z" stroke="#EFF2FF" stroke-width="3" stroke-miterlimit="10"/>
<path d="M1115.1 -167.94C973.688 -200.727 876.031 -696.432 1077.47 -801.053C1207.48 -868.568 1402.28 -828.067 1524.47 -785.127C1635 -746.293 1838.79 -624.09 1875.23 -458.784C1897.21 -359.092 1860.53 -219.885 1760.17 -182.789C1679.53 -152.97 1576.54 -183.571 1560.7 -190.157C1449.9 -236.228 1448.5 -272.836 1371.37 -292.705C1268.9 -319.17 1189.16 -150.805 1115.1 -167.94Z" stroke="#EFF2FF" stroke-width="3" stroke-miterlimit="10"/>
<path d="M1017.56 -56.3776C860.955 -103.678 806.937 -745.663 1070.62 -875.001C1242.33 -958.472 1477.59 -900.531 1614.34 -841.635C1736.77 -788.918 1979.63 -627.515 2019.43 -415.732C2043.89 -285.55 1994.18 -104.308 1860.8 -58.1766C1753.15 -20.979 1617.16 -64.61 1596.86 -74.5598C1454.04 -144.565 1450.35 -189.283 1349.7 -217.344C1215.72 -255.019 1111.3 -28.0729 1017.56 -56.3776Z" stroke="#EFF2FF" stroke-width="3" stroke-miterlimit="10"/>
<path d="M1965.81 64.9517C1831.19 109.518 1662.28 52.9184 1637.4 39.5435C1462.95 -54.2434 1456.49 -106.879 1332.37 -143.396C1166.84 -192.088 1037.14 94.0189 924.486 53.7722C751.447 -8.05116 741.735 -797.14 1068.24 -950.362C1281.28 -1050.34 1557.46 -974.479 1708.69 -899.545C1843 -833.006 2124.75 -632.403 2167.99 -374.103C2194.87 -213.441 2132.24 9.85646 1965.81 64.9517Z" stroke="#EFF2FF" stroke-width="3" stroke-miterlimit="10"/>
<path d="M509.173 146.258C562.197 146.644 625.787 226.619 578.232 239.974C550.768 247.698 478.051 235.482 449.487 213.743C409.26 183.151 472.686 145.984 509.173 146.258Z" stroke="#EFF2FF" stroke-width="3" stroke-miterlimit="10"/>
<path d="M653.275 228.774C648.086 239.507 623.788 244.273 601.618 257.343C556.646 283.869 550.195 296.472 518.254 312.469C505.796 318.719 489.036 326.931 472.674 323.171C447.617 317.408 441.364 292.467 409.564 248.542C368.332 191.465 352.718 176.707 364.498 146.462C367.245 139.429 370.798 116.653 390.654 102.759C418.154 83.5507 450.387 98.3891 490.684 85.6748C539.08 70.4299 563.074 43.2939 584.076 55.2866C598.871 63.7323 599.421 86.864 610.5 127.141C618.938 157.824 624.244 177.958 634.505 194.381C646.812 213.936 659.048 216.842 653.275 228.774Z" stroke="#EFF2FF" stroke-width="3" stroke-miterlimit="10"/>
<path d="M734.325 206.405C733.425 225.43 699.065 234.638 670.747 262.13C612.674 318.526 639.578 358.824 593.028 400.026C573.277 417.517 542.283 434.459 511.218 431.176C467.135 426.511 452.327 386.905 384.46 306.605C295.731 201.618 257.935 181.057 266.222 125.108C267.916 113.705 269.564 69.9217 304.24 43.5683C350.485 8.42357 405.917 40.3973 478.319 13.9829C559.217 -15.4907 589.452 -78.5032 616.729 -65.4636C635.674 -56.4081 628.416 -19.9422 642.979 51.1806C653.287 101.733 659.656 131.278 680.26 155.476C706.264 185.997 735.295 185.743 734.325 206.405Z" stroke="#EFF2FF" stroke-width="3" stroke-miterlimit="10"/>
<path d="M815.457 184.279C818.963 211.547 774.47 225.258 739.958 267.171C668.901 353.457 730.164 420.901 667.884 487.837C641.226 516.477 595.506 542.099 549.844 539.426C486.559 535.726 463.173 481.759 359.344 364.912C222.839 212.238 164.053 185.357 167.91 103.999C168.669 88.1344 168.319 23.4552 217.79 -15.4093C282.794 -66.4595 361.541 -17.2895 465.907 -57.4854C579.389 -101.188 615.759 -200.046 649.395 -186C672.477 -176.284 657.693 -126.525 675.469 -24.5563C687.74 45.8653 695.138 84.6788 726.039 116.795C765.869 158.18 811.705 154.907 815.457 184.279Z" stroke="#EFF2FF" stroke-width="3" stroke-miterlimit="10"/>
<path d="M896.776 162.215C904.641 197.695 850.144 215.958 809.356 272.263C725.466 388.49 821.219 482.816 742.915 575.698C709.443 615.437 648.881 649.748 588.645 647.736C506.111 644.971 474.521 576.461 334.462 423.269C150.613 222.646 70.6027 189.513 69.8898 82.9408C69.7496 62.6142 67.4354 -22.8997 131.644 -74.326C215.488 -141.221 317.399 -74.885 453.799 -128.903C599.888 -186.773 642.394 -321.569 682.247 -306.486C709.478 -296.14 687.156 -233.046 708.146 -100.243C722.416 -9.94161 730.795 38.0902 771.992 78.1641C825.683 130.363 888.314 124.062 896.776 162.215Z" stroke="#EFF2FF" stroke-width="3" stroke-miterlimit="10"/>
<path d="M978.246 140.16C965.075 93.2058 885.673 102.556 818.133 39.5436C766.628 -8.49827 757.267 -65.7278 740.998 -175.918C716.841 -339.547 746.667 -415.986 715.287 -426.952C669.158 -443.081 620.528 -272.338 441.808 -200.31C273.444 -132.46 148.158 -216.104 45.6158 -133.232C-33.4358 -69.3358 -29.0413 37.0131 -28.0128 61.903C-22.5666 193.66 78.5384 233.073 309.744 481.647C486.044 671.183 525.804 754.217 627.634 756.056C702.431 757.408 777.871 714.387 818.133 663.57C912.413 544.66 781.985 423.401 878.906 277.365C925.877 206.598 990.506 183.842 978.246 140.16Z" stroke="#EFF2FF" stroke-width="3" stroke-miterlimit="10"/>
<path d="M304.427 -615.583C318.264 -609.485 347.318 -621.233 349.89 -639.538C352.8 -660.301 319.924 -677.477 305.479 -672.141C288.392 -665.82 286.066 -623.652 304.427 -615.583Z" stroke="#EFF2FF" stroke-width="3" stroke-miterlimit="10"/>
<path d="M265.438 -725.905C241.854 -706.727 231.546 -671.532 219.753 -611.202C208.066 -551.381 209.901 -508.553 220.174 -505.443C225.772 -503.766 241.632 -516.887 255.236 -526.501C280.702 -544.45 324.295 -542.458 335.468 -544.399C376.372 -551.513 388.387 -564.726 405.485 -590.032C413.397 -601.72 431.851 -627.636 439.974 -658.126C452.362 -704.298 507.887 -718.527 501.121 -737.034C495.429 -752.482 440.418 -756.233 404.749 -756.67C353.629 -757.3 301.902 -755.521 265.438 -725.905Z" stroke="#EFF2FF" stroke-width="3" stroke-miterlimit="10"/>
<path d="M224.557 -777.464C185.791 -743.193 170.539 -685.679 147.048 -578.121C123.183 -470.044 123.335 -395.913 135.092 -393.149C143.916 -391.035 172.491 -417.754 196.777 -436.851C242.555 -473.002 324.505 -467.056 341.393 -469.373C418.411 -479.72 437.391 -504.508 467.24 -551.361C479.675 -570.874 513.789 -618.439 529.333 -674.611C553.257 -760.664 666.68 -783.196 657.295 -815.098C649.453 -841.665 544.269 -845.741 478.085 -843.556C384.635 -840.395 290.063 -835.395 224.557 -777.464Z" stroke="#EFF2FF" stroke-width="3" stroke-miterlimit="10"/>
<path d="M183.898 -828.687C129.915 -779.334 109.895 -699.46 74.5764 -544.704C38.7087 -388.341 37.0374 -283.08 50.2439 -280.458C62.34 -278.019 103.607 -318.265 138.505 -346.895C204.479 -401.34 324.891 -391.329 347.505 -393.952C460.613 -407.083 486.664 -443.803 529.181 -512.303C546.151 -539.632 595.903 -608.855 618.891 -690.679C654.315 -816.623 825.648 -847.438 813.669 -892.746C803.665 -930.432 648.285 -934.995 551.609 -930.005C415.852 -923.348 278.294 -914.994 183.898 -828.687Z" stroke="#EFF2FF" stroke-width="3" stroke-miterlimit="10"/>
<path d="M143.367 -879.879C74.1323 -815.444 49.3675 -713.201 2.22172 -511.246C-45.6954 -306.618 -49.2015 -170.257 -34.4992 -167.727C-19.1189 -165.054 34.8638 -218.665 80.35 -256.849C166.648 -329.465 325.382 -315.491 353.723 -318.489C502.92 -334.232 536.24 -382.975 591.24 -473.195C612.814 -508.319 678.133 -599.22 708.543 -706.707C755.502 -872.531 984.745 -911.64 970.136 -970.353C957.993 -1019.14 752.417 -1024.01 625.238 -1016.42C447.231 -1005.99 266.607 -994.592 143.367 -879.879Z" stroke="#EFF2FF" stroke-width="3" stroke-miterlimit="10"/>
<path d="M359.999 -242.996C545.274 -261.29 585.56 -322.27 653.345 -434.066C679.407 -477.047 760.422 -589.565 798.265 -722.704C856.701 -928.429 1143.89 -975.821 1126.67 -1047.93C1112.37 -1107.89 856.607 -1112.97 698.925 -1102.81C478.599 -1088.58 254.943 -1074.17 102.882 -931.051C18.3964 -851.524 -11.1018 -726.942 -70.0866 -477.768C-129.96 -224.865 -135.3 -57.4345 -119.172 -54.975C-100.473 -52.1293 -33.8564 -119.004 22.2417 -166.771C128.875 -257.55 325.919 -239.632 359.999 -242.996Z" stroke="#EFF2FF" stroke-width="3" stroke-miterlimit="10"/>
<path d="M1866.47 245.859C1845.43 175.732 1694.43 208.671 1514.68 50.7232C1450.28 -5.87619 1407.09 -65.0774 1321.85 -74.2854C1313.25 -75.2102 1227.85 -83.3307 1167.58 -35.6648C1091.75 24.2987 1138.03 107.485 1049.54 223.499C1016.94 266.236 1011.52 253.827 987.596 287.528C885.498 431.39 1041.22 577.436 951.366 723.534C910.005 790.784 848.52 806.222 854.363 815.003C879.584 852.679 1923.31 434.825 1866.47 245.859Z" stroke="#EFF2FF" stroke-width="3" stroke-miterlimit="10"/>
<path d="M1298.47 21.585C1293.31 22.1948 1237 18.5361 1198.37 52.2376C1149.53 94.7913 1184.35 153.383 1128.39 232.484C1107.8 261.612 1104.93 253.715 1090.28 276.755C1027.75 375.075 1139.97 473.984 1085.02 570.23C1059.59 614.786 1019.44 625.001 1025.42 629.35C1052.42 649.189 1741.34 356.11 1687.23 228.581C1666.94 180.752 1556.19 197.725 1429.45 94.7099C1383.37 57.2785 1352.16 15.2532 1298.47 21.585Z" stroke="#EFF2FF" stroke-width="3" stroke-miterlimit="10"/>
<path d="M1275.1 117.466C1273.63 120.687 1246.09 120.616 1229.17 140.14C1207.2 165.467 1230.59 199.209 1207.24 241.458C1198.68 256.967 1198.33 253.654 1192.95 265.982C1169.87 319.004 1238.82 370.471 1218.66 416.937C1209.23 438.809 1191.7 442.539 1196.37 443.708C1230.55 439.49 1558.67 277.111 1508.06 211.303C1488.29 185.59 1417.55 186.82 1344.27 138.697C1316.42 120.403 1298.19 107.008 1275.1 117.466Z" stroke="#EFF2FF" stroke-width="3" stroke-miterlimit="10"/>
<path d="M1251.72 213.336C1269.86 259.427 1341.27 275.098 1367.43 258.055C1405.99 232.89 1373.1 200.124 1328.86 194.026C1295.8 189.503 1230.97 160.588 1251.72 213.336Z" stroke="#EFF2FF" stroke-width="3" stroke-miterlimit="10"/>
</g>
<defs>
<linearGradient id="paint0_linear_985_916" x1="761.5" y1="200" x2="122.5" y2="200" gradientUnits="userSpaceOnUse">
<stop stop-color="#F2F4FF"/>
<stop offset="1" stop-color="#F2F4FF" stop-opacity="0"/>
</linearGradient>
<linearGradient id="paint1_linear_985_916" x1="740.88" y1="200" x2="120.022" y2="200" gradientUnits="userSpaceOnUse">
<stop stop-color="#F2F4FF"/>
<stop offset="1" stop-color="#F2F4FF" stop-opacity="0"/>
</linearGradient>
</defs>
</svg>
