<svg width="1440" height="377" viewBox="0 0 1440 377" fill="none" xmlns="http://www.w3.org/2000/svg">
<rect width="1440" height="377" fill="white"/>
<mask id="mask0_1360_915" style="mask-type:alpha" maskUnits="userSpaceOnUse" x="0" y="0" width="1440" height="377">
<rect width="1440" height="377" fill="white"/>
</mask>
<g mask="url(#mask0_1360_915)">
<path d="M247.77 411.403C205.617 429.038 189.607 472.267 217.158 496.944C273.841 547.727 507.196 522.641 518.175 488.219C528.992 454.306 335.728 374.596 247.77 411.403Z" stroke="#FAFAFA" stroke-width="16" stroke-miterlimit="10"/>
<path d="M352.218 298.453C448.502 264.755 610.175 504.681 543.44 561.324C502.41 596.154 403.084 591.802 322.085 580.355C246.045 569.611 137.393 525.679 110.587 452.716C96.3933 413.982 104.914 358.797 134.975 339.47C158.24 324.517 189.647 331.245 196.576 328.757C229.606 342.447 234.453 347.768 260.769 350.978C295.167 355.178 325.738 307.719 352.218 298.453Z" stroke="#FAFAFA" stroke-width="16" stroke-miterlimit="10"/>
<path d="M449.911 180.447C561.736 198.285 683.255 548.726 561.95 629.374C484.696 680.737 350.013 658.057 256.137 630.903C169.903 605.96 26.3122 522.723 -2.73856 403.432C-19.6262 334.119 0.89408 236.611 59.6895 208.407C106.556 185.931 166.944 205.257 177.576 206.745C240.423 240.525 245.504 257.711 292.3 269.28C354.258 284.58 403.176 172.955 449.911 180.447Z" stroke="#FAFAFA" stroke-width="16" stroke-miterlimit="10"/>
<path d="M540.522 63.2258C663.99 96.1089 749.255 593.27 573.379 698.198C459.87 765.911 289.79 725.292 183.107 682.225C86.5974 643.277 -91.3296 520.715 -123.146 354.923C-142.339 254.939 -110.309 115.323 -22.6873 78.1179C47.7202 48.2112 137.638 78.9028 151.474 85.508C248.208 131.714 249.433 168.429 316.779 188.357C406.237 214.9 475.859 46.0401 540.522 63.2258Z" stroke="#FAFAFA" stroke-width="16" stroke-miterlimit="10"/>
<path d="M625.685 -48.6645C762.418 -1.22559 809.581 642.645 579.358 772.363C429.441 856.08 224.035 797.969 104.638 738.899C-2.25897 686.028 -214.298 524.15 -249.043 311.745C-270.399 181.181 -227.002 -0.593594 -110.544 -46.8603C-16.5547 -84.1673 102.179 -40.4081 119.903 -30.429C244.596 39.7815 247.821 84.6313 335.697 112.775C452.676 150.561 543.838 -77.0525 625.685 -48.6645Z" stroke="#FAFAFA" stroke-width="16" stroke-miterlimit="10"/>
<path d="M-202.227 -170.35C-84.697 -215.047 62.7813 -158.282 84.5056 -144.867C236.821 -50.8051 242.453 1.98526 350.83 38.6093C495.349 87.4447 608.593 -199.503 706.949 -159.138C858.029 -97.133 866.509 694.274 581.44 847.946C395.431 948.216 154.301 872.134 22.2612 796.98C-95.003 730.245 -341.001 529.053 -378.756 269.994C-402.225 108.86 -347.542 -115.093 -202.227 -170.35Z" stroke="#FAFAFA" stroke-width="16" stroke-miterlimit="10"/>
<path d="M1069.56 -251.896C1023.26 -252.283 967.743 -332.493 1009.26 -345.887C1033.24 -353.633 1096.73 -341.381 1121.67 -319.578C1156.79 -288.897 1101.41 -251.62 1069.56 -251.896Z" stroke="#FAFAFA" stroke-width="16" stroke-miterlimit="10"/>
<path d="M943.743 -334.654C948.273 -345.418 969.488 -350.198 988.845 -363.307C1028.11 -389.911 1033.74 -402.55 1061.63 -418.594C1072.51 -424.863 1087.14 -433.099 1101.43 -429.328C1123.3 -423.548 1128.76 -398.534 1156.53 -354.479C1192.53 -297.235 1206.16 -282.434 1195.87 -252.099C1193.48 -245.046 1190.37 -222.203 1173.04 -208.269C1149.03 -189.004 1120.88 -203.886 1085.7 -191.134C1043.45 -175.844 1022.5 -148.629 1004.16 -160.657C991.243 -169.127 990.763 -192.327 981.09 -232.722C973.722 -263.495 969.09 -283.688 960.131 -300.16C949.386 -319.772 938.702 -322.687 943.743 -334.654Z" stroke="#FAFAFA" stroke-width="16" stroke-miterlimit="10"/>
<path d="M872.978 -312.219C873.764 -331.3 903.764 -340.535 928.488 -368.108C979.192 -424.67 955.702 -465.085 996.345 -506.408C1013.59 -523.951 1040.65 -540.943 1067.77 -537.65C1106.26 -532.972 1119.19 -493.249 1178.45 -412.713C1255.91 -307.418 1288.91 -286.797 1281.68 -230.684C1280.2 -219.247 1278.76 -175.335 1248.49 -148.904C1208.11 -113.656 1159.71 -145.724 1096.5 -119.232C1025.86 -89.6715 999.467 -26.474 975.651 -39.5518C959.11 -48.6339 965.447 -85.207 952.733 -156.539C943.733 -207.239 938.172 -236.871 920.182 -261.141C897.478 -291.751 872.131 -291.496 872.978 -312.219Z" stroke="#FAFAFA" stroke-width="16" stroke-miterlimit="10"/>
<path d="M802.142 -290.028C799.081 -317.376 837.928 -331.127 868.06 -373.164C930.1 -459.703 876.611 -527.345 930.988 -594.477C954.263 -623.202 994.181 -648.899 1034.05 -646.218C1089.3 -642.508 1109.72 -588.382 1200.37 -471.191C1319.56 -318.07 1370.88 -291.109 1367.51 -209.513C1366.85 -193.601 1367.16 -128.732 1323.96 -89.7532C1267.21 -38.553 1198.46 -87.8674 1107.33 -47.5535C1008.25 -3.72294 976.498 95.4259 947.131 81.3389C926.978 71.5943 939.886 21.6885 924.366 -80.5794C913.651 -151.208 907.192 -190.135 880.213 -222.346C845.438 -263.852 805.418 -260.57 802.142 -290.028Z" stroke="#FAFAFA" stroke-width="16" stroke-miterlimit="10"/>
<path d="M731.143 -267.899C724.276 -303.483 771.857 -321.8 807.469 -378.27C880.713 -494.839 797.112 -589.442 865.478 -682.597C894.703 -722.452 947.58 -756.865 1000.17 -754.846C1072.23 -752.074 1099.81 -683.362 1222.1 -529.72C1382.62 -328.507 1452.47 -295.278 1453.1 -188.392C1453.22 -168.006 1455.24 -82.2407 1399.18 -30.6634C1325.97 36.428 1237 -30.1027 1117.9 24.0739C990.355 82.1137 953.243 217.305 918.447 202.179C894.672 191.802 914.162 128.523 895.835 -4.67077C883.376 -95.2369 876.06 -143.41 840.091 -183.601C793.214 -235.953 738.531 -229.634 731.143 -267.899Z" stroke="#FAFAFA" stroke-width="16" stroke-miterlimit="10"/>
<path d="M660.011 -245.78C671.511 -198.687 740.837 -208.065 799.805 -144.868C844.774 -96.6845 852.948 -39.2869 867.152 71.2273C888.243 235.337 862.203 312 889.601 322.998C929.876 339.175 972.335 167.93 1128.37 95.6909C1275.37 27.6414 1384.76 111.531 1474.29 28.4161C1543.31 -35.6683 1539.47 -142.329 1538.57 -167.293C1533.82 -299.437 1445.54 -338.966 1243.68 -588.27C1089.75 -778.362 1055.04 -861.64 966.131 -863.485C900.825 -864.841 834.958 -821.693 799.805 -770.727C717.49 -651.467 831.366 -529.853 746.745 -383.387C705.735 -312.412 649.307 -289.59 660.011 -245.78Z" stroke="#FAFAFA" stroke-width="16" stroke-miterlimit="10"/>
<path d="M1248.32 512.183C1236.24 506.067 1210.87 517.851 1208.63 536.208C1206.09 557.033 1234.79 574.259 1247.4 568.908C1262.32 562.568 1264.35 520.277 1248.32 512.183Z" stroke="#FAFAFA" stroke-width="16" stroke-miterlimit="10"/>
<path d="M1282.36 622.83C1302.95 603.595 1311.95 568.296 1322.25 507.79C1332.45 447.793 1330.85 404.839 1321.88 401.72C1316.99 400.038 1303.15 413.197 1291.27 422.84C1269.04 440.841 1230.98 438.843 1221.22 440.79C1185.51 447.926 1175.02 461.177 1160.09 486.558C1153.18 498.28 1137.07 524.272 1129.98 554.852C1119.16 601.159 1070.68 615.43 1076.59 633.991C1081.56 649.485 1129.59 653.246 1160.73 653.685C1205.36 654.317 1250.53 652.533 1282.36 622.83Z" stroke="#FAFAFA" stroke-width="16" stroke-miterlimit="10"/>
<path d="M1318.06 674.54C1351.9 640.168 1365.22 582.485 1385.73 474.611C1406.57 366.217 1406.43 291.868 1396.17 289.096C1388.46 286.976 1363.51 313.773 1342.31 332.926C1302.34 369.183 1230.79 363.22 1216.05 365.544C1148.8 375.921 1132.23 400.782 1106.17 447.773C1095.31 467.343 1065.53 515.047 1051.96 571.385C1031.07 657.69 932.039 680.289 940.233 712.285C947.08 738.93 1038.92 743.017 1096.7 740.826C1178.29 737.656 1260.86 732.641 1318.06 674.54Z" stroke="#FAFAFA" stroke-width="16" stroke-miterlimit="10"/>
<path d="M1353.56 725.913C1400.69 676.415 1418.17 596.307 1449 441.096C1480.32 284.274 1481.78 178.704 1470.25 176.074C1459.69 173.628 1423.66 213.993 1393.19 242.707C1335.59 297.311 1230.45 287.271 1210.71 289.901C1111.96 303.071 1089.21 339.898 1052.09 408.6C1037.27 436.01 993.834 505.435 973.763 587.5C942.835 713.814 793.244 744.72 803.703 790.161C812.438 827.957 948.1 832.534 1032.51 827.529C1151.04 820.852 1271.14 812.474 1353.56 725.913Z" stroke="#FAFAFA" stroke-width="16" stroke-miterlimit="10"/>
<path d="M1388.94 777.256C1449.39 712.632 1471.01 610.088 1512.18 407.54C1554.01 202.311 1557.07 65.5497 1544.24 63.0116C1530.81 60.3308 1483.68 114.1 1443.96 152.395C1368.62 225.226 1230.03 211.21 1205.28 214.217C1075.02 230.006 1045.93 278.892 997.906 369.377C979.069 404.605 922.039 495.772 895.488 603.575C854.489 769.887 654.337 809.11 667.092 867.996C677.694 916.923 857.182 921.805 968.222 914.201C1123.64 903.733 1281.34 892.306 1388.94 777.256Z" stroke="#FAFAFA" stroke-width="16" stroke-miterlimit="10"/>
<path d="M1199.8 138.502C1038.04 156.85 1002.86 218.009 943.682 330.133C920.927 373.24 850.193 486.089 817.152 619.619C766.132 825.949 515.39 873.479 530.42 945.8C542.91 1005.94 766.214 1011.04 903.886 1000.84C1096.25 986.573 1291.53 972.119 1424.29 828.579C1498.05 748.817 1523.81 623.87 1575.31 373.964C1627.58 120.318 1632.25 -47.6044 1618.17 -50.0712C1601.84 -52.9253 1543.68 14.1457 1494.7 62.0535C1401.6 153.099 1229.56 135.128 1199.8 138.502Z" stroke="#FAFAFA" stroke-width="16" stroke-miterlimit="10"/>
<path d="M-115.493 -351.789C-97.1254 -281.456 34.7101 -314.492 191.648 -156.08C247.882 -99.3144 285.586 -39.9392 360.013 -30.7042C367.524 -29.7766 442.084 -21.6324 494.706 -69.4383C560.91 -129.578 520.502 -213.009 597.766 -329.364C626.225 -372.226 630.96 -359.78 651.848 -393.581C740.99 -537.865 605.032 -684.34 683.48 -830.867C719.592 -898.315 773.275 -913.798 768.173 -922.605C746.153 -960.391 -165.125 -541.31 -115.493 -351.789Z" stroke="#FAFAFA" stroke-width="16" stroke-miterlimit="10"/>
<path d="M380.421 -126.856C384.932 -127.468 434.094 -123.798 467.819 -157.599C510.461 -200.278 480.063 -259.041 528.92 -338.374C546.9 -367.588 549.4 -359.668 562.195 -382.776C616.787 -481.384 518.808 -580.584 566.787 -677.113C588.991 -721.8 624.042 -732.044 618.827 -736.407C595.246 -756.304 -6.24869 -462.364 40.9958 -334.46C58.7099 -286.491 155.413 -303.514 266.065 -200.196C306.3 -162.655 333.544 -120.506 380.421 -126.856Z" stroke="#FAFAFA" stroke-width="16" stroke-miterlimit="10"/>
<path d="M400.829 -223.018C402.115 -226.25 426.156 -226.178 440.931 -245.759C460.115 -271.161 439.686 -305.002 460.074 -347.375C467.553 -362.93 467.859 -359.607 472.553 -371.971C492.706 -425.149 432.503 -476.767 450.104 -523.37C458.339 -545.306 473.645 -549.046 469.563 -550.219C439.727 -545.989 153.24 -383.133 197.433 -317.132C214.688 -291.343 276.453 -292.577 340.432 -244.312C364.748 -225.964 380.666 -212.53 400.829 -223.018Z" stroke="#FAFAFA" stroke-width="16" stroke-miterlimit="10"/>
<path d="M421.237 -319.17C405.401 -365.396 343.054 -381.114 320.218 -364.02C286.545 -338.782 315.269 -305.919 353.891 -299.803C382.758 -295.268 439.36 -266.268 421.237 -319.17Z" stroke="#FAFAFA" stroke-width="16" stroke-miterlimit="10"/>
</g>
</svg>
