<svg width="924" height="460" viewBox="0 0 924 460" fill="none" xmlns="http://www.w3.org/2000/svg">
<path d="M0 0L924 0.000161557L924 460L-8.04289e-05 460L0 0Z" fill="url(#paint0_linear_1034_913)"/>
<mask id="mask0_1034_913" style="mask-type:alpha" maskUnits="userSpaceOnUse" x="0" y="0" width="924" height="460">
<path d="M0 0L924 0.000161557L924 460L-8.04289e-05 460L0 0Z" fill="url(#paint1_linear_1034_913)"/>
</mask>
<g mask="url(#mask0_1034_913)">
<path d="M-525.405 1052.36C-573.685 1072.58 -592.022 1122.15 -560.467 1150.45C-495.545 1208.68 -228.273 1179.91 -215.697 1140.44C-203.309 1101.56 -424.663 1010.16 -525.405 1052.36Z" stroke="#EFF2FF" stroke-width="3" stroke-miterlimit="10"/>
<path d="M-405.776 922.851C-295.497 884.211 -110.326 1159.32 -186.76 1224.27C-233.754 1264.2 -347.516 1259.21 -440.288 1246.09C-527.381 1233.77 -651.825 1183.39 -682.527 1099.73C-698.784 1055.32 -689.025 992.042 -654.595 969.882C-627.948 952.736 -591.975 960.45 -584.04 957.598C-546.209 973.295 -540.657 979.396 -510.516 983.078C-471.119 987.893 -436.104 933.475 -405.776 922.851Z" stroke="#EFF2FF" stroke-width="3" stroke-miterlimit="10"/>
<path d="M-293.884 787.541C-165.805 807.995 -26.6234 1209.82 -165.56 1302.3C-254.043 1361.19 -408.301 1335.18 -515.822 1304.05C-614.59 1275.45 -779.051 1180.01 -812.324 1043.22C-831.666 963.746 -808.163 851.941 -740.822 819.601C-687.143 793.829 -617.979 815.989 -605.801 817.696C-533.82 856.429 -528 876.134 -474.403 889.4C-403.439 906.944 -347.411 778.95 -293.884 787.541Z" stroke="#EFF2FF" stroke-width="3" stroke-miterlimit="10"/>
<path d="M-190.102 653.131C-48.6885 690.836 48.9688 1260.9 -152.47 1381.21C-282.477 1458.85 -477.278 1412.28 -599.467 1362.9C-710.003 1318.24 -913.791 1177.7 -950.232 987.601C-972.215 872.956 -935.529 712.868 -835.172 670.207C-754.531 635.915 -651.544 671.107 -635.697 678.681C-524.903 731.662 -523.5 773.761 -446.366 796.611C-343.905 827.046 -264.164 633.426 -190.102 653.131Z" stroke="#EFF2FF" stroke-width="3" stroke-miterlimit="10"/>
<path d="M-92.5619 524.834C64.0453 579.229 118.063 1317.51 -145.621 1466.25C-317.328 1562.24 -552.59 1495.61 -689.34 1427.88C-811.774 1367.26 -1054.63 1181.64 -1094.43 938.092C-1118.89 788.383 -1069.18 579.954 -935.798 526.903C-828.148 484.126 -692.157 534.302 -671.856 545.744C-529.04 626.249 -525.347 677.676 -424.698 709.946C-290.717 753.272 -186.304 492.284 -92.5619 524.834Z" stroke="#EFF2FF" stroke-width="3" stroke-miterlimit="10"/>
<path d="M-1040.81 385.305C-906.195 334.054 -737.281 399.144 -712.399 414.525C-537.946 522.38 -531.494 582.911 -407.366 624.905C-241.841 680.902 -112.138 351.878 0.514149 398.162C173.553 469.259 183.265 1376.71 -143.237 1552.92C-356.281 1667.89 -632.459 1580.65 -783.69 1494.48C-917.999 1417.96 -1199.75 1187.26 -1242.99 890.218C-1269.87 705.458 -1207.24 448.665 -1040.81 385.305Z" stroke="#EFF2FF" stroke-width="3" stroke-miterlimit="10"/>
<path d="M415.827 291.803C362.802 291.359 299.213 199.388 346.768 184.03C374.232 175.147 446.949 189.196 475.513 214.196C515.74 249.376 452.314 292.119 415.827 291.803Z" stroke="#EFF2FF" stroke-width="3" stroke-miterlimit="10"/>
<path d="M271.725 196.91C276.914 184.568 301.212 179.086 323.382 164.055C368.354 133.55 374.805 119.057 406.746 100.661C419.204 93.4729 435.964 84.0291 452.326 88.3536C477.383 94.9806 483.636 123.662 515.436 174.177C556.668 239.816 572.282 256.786 560.502 291.569C557.755 299.657 554.202 325.85 534.346 341.827C506.846 363.917 474.613 346.853 434.316 361.474C385.919 379.006 361.926 410.212 340.924 396.421C326.128 386.708 325.579 360.107 314.5 313.788C306.062 278.502 300.756 255.349 290.494 236.461C278.188 213.974 265.951 210.631 271.725 196.91Z" stroke="#EFF2FF" stroke-width="3" stroke-miterlimit="10"/>
<path d="M190.675 222.635C191.575 200.755 225.935 190.166 254.253 158.551C312.326 93.695 285.422 47.3528 331.972 -0.0295139C351.723 -20.1442 382.717 -39.6277 413.782 -35.8526C457.865 -30.4879 472.673 15.0594 540.54 107.405C629.269 228.14 667.065 251.784 658.778 316.125C657.084 329.239 655.436 379.59 620.76 409.897C574.515 450.313 519.083 413.543 446.681 443.92C365.783 477.814 335.548 550.279 308.271 535.283C289.326 524.87 296.584 482.934 282.021 401.142C271.713 343.007 265.344 309.031 244.74 281.202C218.736 246.104 189.705 246.396 190.675 222.635Z" stroke="#EFF2FF" stroke-width="3" stroke-miterlimit="10"/>
<path d="M109.543 248.079C106.037 216.721 150.53 200.954 185.042 152.753C256.099 53.5239 194.836 -24.0363 257.116 -101.012C283.774 -133.948 329.494 -163.413 375.156 -160.339C438.441 -156.085 461.827 -94.0228 565.656 40.3518C702.161 215.926 760.947 246.84 757.09 340.401C756.331 358.646 756.681 433.027 707.21 477.721C642.206 536.429 563.459 479.883 459.093 526.108C345.611 576.366 309.241 690.053 275.605 673.901C252.523 662.727 267.307 605.503 249.531 488.24C237.26 407.255 229.862 362.619 198.961 325.686C159.131 278.093 113.295 281.857 109.543 248.079Z" stroke="#EFF2FF" stroke-width="3" stroke-miterlimit="10"/>
<path d="M28.2243 273.453C20.3589 232.651 74.856 211.648 115.644 146.898C199.534 13.2361 103.781 -95.2383 182.085 -202.053C215.557 -247.752 276.119 -287.21 336.355 -284.896C418.889 -281.717 450.479 -202.93 590.538 -26.7595C774.387 203.958 854.397 242.06 855.11 364.618C855.25 387.994 857.565 486.335 793.356 545.475C709.512 622.404 607.601 546.118 471.201 608.239C325.112 674.789 282.606 829.804 242.753 812.459C215.522 800.561 237.844 728.004 216.854 575.279C202.584 471.433 194.205 416.196 153.008 370.111C99.317 310.083 36.6858 317.329 28.2243 273.453Z" stroke="#EFF2FF" stroke-width="3" stroke-miterlimit="10"/>
<path d="M-53.2465 298.816C-40.0751 352.813 39.327 342.061 106.867 414.525C158.372 469.773 167.733 535.587 184.002 662.306C208.159 850.48 178.333 938.384 209.713 950.995C255.842 969.543 304.472 773.188 483.191 690.357C651.556 612.329 776.842 708.52 879.384 613.218C958.436 539.736 954.041 417.435 953.013 388.812C947.567 237.291 846.462 191.966 615.256 -93.8943C438.956 -311.86 399.196 -407.349 297.367 -409.465C222.569 -411.019 147.129 -361.545 106.867 -303.106C12.5869 -166.359 143.015 -26.9115 46.0938 141.03C-0.876611 222.413 -65.5063 248.582 -53.2465 298.816Z" stroke="#EFF2FF" stroke-width="3" stroke-miterlimit="10"/>
<path d="M620.573 1167.92C606.736 1160.91 577.681 1174.42 575.11 1195.47C572.2 1219.35 605.076 1239.1 619.521 1232.96C636.608 1225.69 638.934 1177.2 620.573 1167.92Z" stroke="#EFF2FF" stroke-width="3" stroke-miterlimit="10"/>
<path d="M659.561 1294.79C683.146 1272.74 693.454 1232.26 705.246 1162.88C716.934 1094.09 715.099 1044.84 704.826 1041.26C699.228 1039.33 683.368 1054.42 669.764 1065.48C644.298 1086.12 600.705 1083.83 589.532 1086.06C548.627 1094.24 536.613 1109.43 519.515 1138.54C511.603 1151.98 493.149 1181.78 485.026 1216.85C472.638 1269.94 417.112 1286.31 423.879 1307.59C429.571 1325.35 484.582 1329.67 520.251 1330.17C571.371 1330.9 623.098 1328.85 659.561 1294.79Z" stroke="#EFF2FF" stroke-width="3" stroke-miterlimit="10"/>
<path d="M700.443 1354.08C739.209 1314.67 754.46 1248.53 777.952 1124.84C801.817 1000.55 801.665 915.3 789.908 912.121C781.084 909.69 752.509 940.417 728.223 962.379C682.445 1003.95 600.495 997.115 583.607 999.78C506.589 1011.68 487.609 1040.18 457.76 1094.07C445.325 1116.51 411.21 1171.2 395.667 1235.8C371.743 1334.76 258.32 1360.68 267.705 1397.36C275.547 1427.92 380.73 1432.6 446.915 1430.09C540.365 1426.45 634.937 1420.7 700.443 1354.08Z" stroke="#EFF2FF" stroke-width="3" stroke-miterlimit="10"/>
<path d="M741.102 1412.99C795.085 1356.23 815.105 1264.38 850.424 1086.41C886.291 906.593 887.962 785.542 874.756 782.527C862.66 779.722 821.393 826.006 786.495 858.93C720.521 921.542 600.109 910.029 577.495 913.045C464.387 928.145 438.336 970.373 395.819 1049.15C378.849 1080.58 329.097 1160.18 306.108 1254.28C270.685 1399.12 99.3519 1434.55 111.331 1486.66C121.335 1530 276.715 1535.24 373.391 1529.51C509.148 1521.85 646.705 1512.24 741.102 1412.99Z" stroke="#EFF2FF" stroke-width="3" stroke-miterlimit="10"/>
<path d="M781.633 1471.86C850.868 1397.76 875.632 1280.18 922.778 1047.93C970.695 812.611 974.201 655.796 959.499 652.886C944.119 649.812 890.136 711.465 844.65 755.376C758.352 838.886 599.618 822.815 571.277 826.263C422.08 844.367 388.76 900.422 333.76 1004.17C312.186 1044.57 246.866 1149.1 216.457 1272.71C169.498 1463.41 -59.7447 1508.39 -45.1358 1575.91C-32.9929 1632.01 172.583 1637.61 299.762 1628.89C477.768 1616.88 658.393 1603.78 781.633 1471.86Z" stroke="#EFF2FF" stroke-width="3" stroke-miterlimit="10"/>
<path d="M565.001 739.446C379.726 760.484 339.44 830.611 271.655 959.176C245.593 1008.6 164.578 1138 126.735 1291.11C68.2994 1527.69 -218.888 1582.19 -201.673 1665.12C-187.368 1734.08 68.3928 1739.92 226.075 1728.23C446.4 1711.87 670.057 1695.3 822.117 1530.71C906.603 1439.25 936.102 1295.98 995.087 1009.43C1054.96 718.595 1060.3 526.05 1044.17 523.221C1025.47 519.949 958.856 596.855 902.758 651.787C796.125 756.183 599.081 735.577 565.001 739.446Z" stroke="#EFF2FF" stroke-width="3" stroke-miterlimit="10"/>
<path d="M-941.466 177.263C-920.429 257.908 -769.432 220.028 -589.684 401.668C-525.277 466.758 -482.093 534.839 -396.847 545.428C-388.246 546.492 -302.848 555.83 -242.577 501.015C-166.752 432.057 -213.033 336.392 -124.538 202.976C-91.9425 153.829 -86.5196 168.099 -62.5961 129.343C39.5024 -36.0981 -116.217 -204.052 -26.3661 -372.064C14.9945 -449.402 76.4804 -467.156 70.6369 -477.254C45.4161 -520.581 -998.312 -40.0486 -941.466 177.263Z" stroke="#EFF2FF" stroke-width="3" stroke-miterlimit="10"/>
<path d="M-373.473 435.177C-368.307 434.476 -311.999 438.684 -273.373 399.927C-224.533 350.99 -259.348 283.61 -203.391 192.644C-182.798 159.147 -179.935 168.228 -165.279 141.732C-102.753 28.664 -214.973 -85.0817 -160.02 -195.765C-134.589 -247.004 -94.4435 -258.751 -100.416 -263.753C-127.425 -286.568 -816.344 50.4734 -762.233 197.132C-741.944 252.135 -631.185 232.616 -504.45 351.084C-458.368 394.13 -427.164 442.459 -373.473 435.177Z" stroke="#EFF2FF" stroke-width="3" stroke-miterlimit="10"/>
<path d="M-350.099 324.915C-348.626 321.21 -321.092 321.291 -304.169 298.839C-282.197 269.713 -305.594 230.91 -282.244 182.323C-273.677 164.488 -273.326 168.298 -267.95 154.121C-244.868 93.1456 -313.822 33.9586 -293.662 -19.478C-284.23 -44.6302 -266.7 -48.9196 -271.375 -50.2637C-305.548 -45.4133 -633.675 141.323 -583.058 217.001C-563.295 246.571 -492.553 245.157 -419.275 300.499C-391.424 321.537 -373.193 336.941 -350.099 324.915Z" stroke="#EFF2FF" stroke-width="3" stroke-miterlimit="10"/>
<path d="M-326.725 214.664C-344.863 161.659 -416.271 143.637 -442.427 163.237C-480.994 192.176 -448.095 229.858 -403.859 236.87C-370.797 242.072 -305.968 275.323 -326.725 214.664Z" stroke="#EFF2FF" stroke-width="3" stroke-miterlimit="10"/>
</g>
<defs>
<linearGradient id="paint0_linear_1034_913" x1="184.12" y1="230" x2="804.978" y2="230" gradientUnits="userSpaceOnUse">
<stop stop-color="#F2F4FF"/>
<stop offset="1" stop-color="#F2F4FF" stop-opacity="0"/>
</linearGradient>
<linearGradient id="paint1_linear_1034_913" x1="184.12" y1="230" x2="804.978" y2="230" gradientUnits="userSpaceOnUse">
<stop stop-color="#F2F4FF"/>
<stop offset="1" stop-color="#F2F4FF" stop-opacity="0"/>
</linearGradient>
</defs>
</svg>
