<svg width="86" height="36" viewBox="0 0 86 36" fill="none" xmlns="http://www.w3.org/2000/svg">
<path fill-rule="evenodd" clip-rule="evenodd" d="M0.771973 0.5H15.6396V20.2343H0.771973V0.5ZM53.9725 24.2779C54.1664 24.4638 54.3019 24.6968 54.3637 24.9508C54.3642 24.953 54.3648 24.9552 54.3648 24.9575C54.3913 25.0593 54.404 25.1672 54.404 25.2779C54.404 25.6614 54.2471 26.0205 53.9616 26.2883L51.9546 28.1726L39.7309 16.3672C39.4615 16.1071 39.023 16.1055 38.7519 16.3639C38.4807 16.6224 38.479 17.0429 38.7484 17.303L50.9646 29.1018L47.891 31.9871L35.6678 20.1817C35.3984 19.9216 34.96 19.92 34.6889 20.1784C34.4177 20.4368 34.416 20.8574 34.6854 21.1175L46.9016 32.9157L44.8732 34.8199C44.2969 35.3611 43.3658 35.355 42.797 34.8066L41.9628 34.0003L41.9594 33.997L31.6048 23.9962C31.3354 23.7361 30.897 23.7345 30.6258 23.9929C30.3547 24.2513 30.353 24.6719 30.6224 24.932L40.4543 34.4275L39.9455 34.8454C38.9215 35.6854 37.4054 35.7208 36.3399 34.9295L17.0239 20.573V0.5H34.6698L38.5846 3.57849L34.5712 5.79756L26.868 10.0642C25.8601 10.622 25.244 11.6231 25.2204 12.742C25.1967 13.8449 25.7598 14.8532 26.7255 15.4392C29.5072 17.1287 33.0066 17.1979 35.8576 15.6191L41.619 12.4277L53.9725 24.2779ZM40.1592 4.24144L40.1436 4.24974L40.1234 4.26081L35.2631 6.94806L27.5605 11.2141C26.9761 11.5378 26.6185 12.1189 26.6046 12.7691C26.5913 13.4028 26.9133 13.9816 27.4659 14.3169C29.8121 15.7414 32.7618 15.7995 35.1656 14.4691L41.3868 11.0226C41.658 10.8721 42.0012 10.9158 42.2227 11.1283L54.9518 23.3388C55.156 23.5347 55.3273 23.7577 55.4594 24.0001L68.9765 20.3937V0.5H46.9359L40.1592 4.24144ZM70.3606 0.5H85.2282V20.2343H70.3606V0.5Z" fill="url(#paint0_linear_469_1234)"/>
<defs>
<linearGradient id="paint0_linear_469_1234" x1="75.3331" y1="0.5" x2="64.8686" y2="48.8428" gradientUnits="userSpaceOnUse">
<stop stop-color="#F26C6D"/>
<stop offset="1" stop-color="#F33742"/>
</linearGradient>
</defs>
</svg>
