<svg width="66" height="55" viewBox="0 0 66 55" fill="none" xmlns="http://www.w3.org/2000/svg">
<path d="M43.8001 11.6C43.8001 17.5647 38.9647 22.4 33.0001 22.4C27.0354 22.4 22.2001 17.5647 22.2001 11.6C22.2001 5.63537 27.0354 0.800049 33.0001 0.800049C38.9647 0.800049 43.8001 5.63537 43.8001 11.6Z" fill="url(#paint0_linear_467_1199)"/>
<path d="M61.8001 18.8C61.8001 22.7765 58.5765 26 54.6001 26C50.6236 26 47.4001 22.7765 47.4001 18.8C47.4001 14.8236 50.6236 11.6 54.6001 11.6C58.5765 11.6 61.8001 14.8236 61.8001 18.8Z" fill="url(#paint1_linear_467_1199)"/>
<path d="M47.4001 44C47.4001 36.0471 40.953 29.6 33.0001 29.6C25.0472 29.6 18.6001 36.0471 18.6001 44V54.8H47.4001V44Z" fill="url(#paint2_linear_467_1199)"/>
<path d="M18.6001 18.8C18.6001 22.7765 15.3765 26 11.4001 26C7.42364 26 4.20009 22.7765 4.20009 18.8C4.20009 14.8236 7.42364 11.6 11.4001 11.6C15.3765 11.6 18.6001 14.8236 18.6001 18.8Z" fill="url(#paint3_linear_467_1199)"/>
<path d="M54.6001 54.8V44C54.6001 40.2051 53.6214 36.6387 51.9027 33.5396C52.7649 33.3179 53.6687 33.2 54.6001 33.2C60.5647 33.2 65.4 38.0353 65.4 44V54.8H54.6001Z" fill="url(#paint4_linear_467_1199)"/>
<path d="M14.0974 33.5396C12.3787 36.6387 11.4001 40.2051 11.4001 44V54.8H0.600098V44C0.600098 38.0353 5.43542 33.2 11.4001 33.2C12.3314 33.2 13.2353 33.3179 14.0974 33.5396Z" fill="url(#paint5_linear_467_1199)"/>
<defs>
<linearGradient id="paint0_linear_467_1199" x1="57.8079" y1="0.800048" x2="29.2346" y2="66.4435" gradientUnits="userSpaceOnUse">
<stop stop-color="#F26C6D"/>
<stop offset="1" stop-color="#F33742"/>
</linearGradient>
<linearGradient id="paint1_linear_467_1199" x1="57.8079" y1="0.800048" x2="29.2346" y2="66.4435" gradientUnits="userSpaceOnUse">
<stop stop-color="#F26C6D"/>
<stop offset="1" stop-color="#F33742"/>
</linearGradient>
<linearGradient id="paint2_linear_467_1199" x1="57.8079" y1="0.800048" x2="29.2346" y2="66.4435" gradientUnits="userSpaceOnUse">
<stop stop-color="#F26C6D"/>
<stop offset="1" stop-color="#F33742"/>
</linearGradient>
<linearGradient id="paint3_linear_467_1199" x1="57.8079" y1="0.800048" x2="29.2346" y2="66.4435" gradientUnits="userSpaceOnUse">
<stop stop-color="#F26C6D"/>
<stop offset="1" stop-color="#F33742"/>
</linearGradient>
<linearGradient id="paint4_linear_467_1199" x1="57.8079" y1="0.800048" x2="29.2346" y2="66.4435" gradientUnits="userSpaceOnUse">
<stop stop-color="#F26C6D"/>
<stop offset="1" stop-color="#F33742"/>
</linearGradient>
<linearGradient id="paint5_linear_467_1199" x1="57.8079" y1="0.800048" x2="29.2346" y2="66.4435" gradientUnits="userSpaceOnUse">
<stop stop-color="#F26C6D"/>
<stop offset="1" stop-color="#F33742"/>
</linearGradient>
</defs>
</svg>
