<svg width="58" height="59" viewBox="0 0 58 59" fill="none" xmlns="http://www.w3.org/2000/svg">
<path fill-rule="evenodd" clip-rule="evenodd" d="M0.797937 10.996C11.6277 10.8491 21.495 6.71714 28.9999 0C36.5049 6.71714 46.3722 10.8491 57.2019 10.996C57.5952 13.3388 57.7999 15.7455 57.7999 18.2001C57.7999 37.0095 45.7787 53.0113 28.9999 58.9417C12.2212 53.0113 0.199951 37.0095 0.199951 18.2001C0.199951 15.7455 0.40466 13.3388 0.797937 10.996ZM40.507 22.507C40.8976 22.1165 40.8976 21.4834 40.507 21.0928C40.1165 20.7023 39.4833 20.7023 39.0928 21.0928L25.3999 34.7857L18.907 28.2928C18.5165 27.9023 17.8834 27.9023 17.4928 28.2928C17.1023 28.6833 17.1023 29.3165 17.4928 29.707L24.6928 36.907C25.0833 37.2976 25.7165 37.2976 26.107 36.907L40.507 22.507Z" fill="url(#paint0_linear_467_1201)"/>
<defs>
<linearGradient id="paint0_linear_467_1201" x1="51.0513" y1="-3.59903e-07" x2="15.62" y2="66.2882" gradientUnits="userSpaceOnUse">
<stop stop-color="#F26C6D"/>
<stop offset="1" stop-color="#F33742"/>
</linearGradient>
</defs>
</svg>
