<svg width="36" height="36" viewBox="0 0 36 36" fill="none" xmlns="http://www.w3.org/2000/svg">
<rect width="36" height="36" rx="18" fill="#353947"/>
<path fill-rule="evenodd" clip-rule="evenodd" d="M18.0053 10.621C20.4114 10.621 20.6963 10.6316 21.6426 10.6738C22.522 10.7124 22.9969 10.8601 23.3135 10.9832C23.7321 11.1449 24.0346 11.3419 24.3476 11.6548C24.6642 11.9713 24.8577 12.2702 25.0195 12.6886C25.1426 13.0051 25.2904 13.4833 25.3291 14.3588C25.3713 15.3082 25.3818 15.5931 25.3818 17.9947C25.3818 20.3999 25.3713 20.6847 25.3291 21.6306C25.2904 22.5096 25.1426 22.9843 25.0195 23.3008C24.8577 23.7193 24.6607 24.0217 24.3476 24.3346C24.0311 24.6511 23.7321 24.8445 23.3135 25.0062C22.9969 25.1293 22.5185 25.277 21.6426 25.3157C20.6928 25.3578 20.4078 25.3684 18.0053 25.3684C15.5992 25.3684 15.3142 25.3578 14.368 25.3157C13.4886 25.277 13.0137 25.1293 12.6971 25.0062C12.2785 24.8445 11.976 24.6476 11.6629 24.3346C11.3463 24.0181 11.1528 23.7193 10.991 23.3008C10.8679 22.9843 10.7201 22.5061 10.6815 21.6306C10.6392 20.6812 10.6287 20.3963 10.6287 17.9947C10.6287 15.5896 10.6392 15.3047 10.6815 14.3588C10.7201 13.4798 10.8679 13.0051 10.991 12.6886C11.1528 12.2702 11.3498 11.9678 11.6629 11.6548C11.9795 11.3383 12.2785 11.1449 12.6971 10.9832C13.0137 10.8601 13.4921 10.7124 14.368 10.6738C15.3142 10.6316 15.5992 10.621 18.0053 10.621ZM18.0053 9C15.5605 9 15.2544 9.01055 14.2941 9.05274C13.3373 9.09494 12.6795 9.24966 12.1096 9.47118C11.5151 9.70326 11.0121 10.0092 10.5126 10.512C10.0096 11.0113 9.70354 11.5142 9.47137 12.1049C9.24976 12.6781 9.09498 13.3321 9.05277 14.2885C9.01055 15.252 9 15.5579 9 18.0017C9 20.4456 9.01055 20.7515 9.05277 21.7114C9.09498 22.6679 9.24976 23.3254 9.47137 23.8951C9.70354 24.4893 10.0096 24.9922 10.5126 25.4915C11.0121 25.9908 11.5151 26.3002 12.1061 26.5288C12.6795 26.7503 13.3338 26.905 14.2906 26.9472C15.2509 26.9894 15.557 27 18.0017 27C20.4465 27 20.7526 26.9894 21.7129 26.9472C22.6697 26.905 23.3275 26.7503 23.8974 26.5288C24.4884 26.3002 24.9914 25.9908 25.4909 25.4915C25.9904 24.9922 26.3 24.4893 26.5286 23.8986C26.7502 23.3254 26.905 22.6714 26.9472 21.715C26.9894 20.755 27 20.4491 27 18.0053C27 15.5614 26.9894 15.2555 26.9472 14.2956C26.905 13.3391 26.7502 12.6816 26.5286 12.1119C26.307 11.5142 26.001 11.0113 25.4979 10.512C24.9984 10.0127 24.4954 9.70326 23.9044 9.4747C23.331 9.25317 22.6768 9.09846 21.7199 9.05626C20.7561 9.01055 20.4501 9 18.0053 9ZM18.0057 13.3785C15.4519 13.3785 13.38 15.4496 13.38 18.0025C13.38 20.5553 15.4519 22.6264 18.0057 22.6264C20.5596 22.6264 22.6315 20.5553 22.6315 18.0025C22.6315 15.4496 20.5596 13.3785 18.0057 13.3785ZM18.0057 21.0019C16.3489 21.0019 15.0051 19.6586 15.0051 18.0025C15.0051 16.3463 16.3489 15.003 18.0057 15.003C19.6625 15.003 21.0063 16.3463 21.0063 18.0025C21.0063 19.6586 19.6625 21.0019 18.0057 21.0019ZM22.8139 14.2747C23.4084 14.2747 23.8938 13.793 23.8938 13.1952C23.8938 12.601 23.4084 12.1157 22.8139 12.1157C22.2194 12.1157 21.734 12.5975 21.734 13.1952C21.734 13.7895 22.2159 14.2747 22.8139 14.2747Z" fill="white"/>
</svg>
