<svg width="12" height="14" viewBox="0 0 12 14" fill="none" xmlns="http://www.w3.org/2000/svg">
<path d="M9.77119 10.1046C9.24943 10.6263 8.25189 11.6239 7.41377 12.462C6.63273 13.243 5.36723 13.2431 4.58618 12.462C3.76379 11.6396 2.78304 10.6589 2.22872 10.1046C0.145927 8.02177 0.145927 4.64489 2.22872 2.5621C4.31152 0.479301 7.6884 0.479301 9.77119 2.5621C11.854 4.64489 11.854 8.02177 9.77119 10.1046Z" stroke="#5D5D5D" stroke-linecap="round" stroke-linejoin="round"/>
<path d="M7.99996 6.33333C7.99996 7.4379 7.10453 8.33333 5.99996 8.33333C4.89539 8.33333 3.99996 7.4379 3.99996 6.33333C3.99996 5.22876 4.89539 4.33333 5.99996 4.33333C7.10453 4.33333 7.99996 5.22876 7.99996 6.33333Z" stroke="#5D5D5D" stroke-linecap="round" stroke-linejoin="round"/>
</svg>
