<svg width="36" height="36" viewBox="0 0 36 36" fill="none" xmlns="http://www.w3.org/2000/svg">
<path d="M0 18C0 8.05888 8.05888 0 18 0C27.9411 0 36 8.05888 36 18C36 27.9411 27.9411 36 18 36C8.05888 36 0 27.9411 0 18Z" fill="#F3F3F3"/>
<path d="M18 27.0018C16.7369 25.9244 15.5662 24.7433 14.5 23.4708C12.9 21.5598 11 18.7138 11 16.0018C10.9986 13.1693 12.7042 10.6151 15.3211 9.53116C17.9379 8.44716 20.9501 9.047 22.952 11.0508C24.2685 12.3614 25.0059 14.1441 25 16.0018C25 18.7138 23.1 21.5598 21.5 23.4708C20.4338 24.7433 19.2631 25.9244 18 27.0018ZM18 13.0018C16.9282 13.0018 15.9378 13.5736 15.4019 14.5018C14.866 15.43 14.866 16.5736 15.4019 17.5018C15.9378 18.43 16.9282 19.0018 18 19.0018C19.6569 19.0018 21 17.6586 21 16.0018C21 14.3449 19.6569 13.0018 18 13.0018Z" fill="#5D5D5D"/>
</svg>
