<svg width="24" height="24" viewBox="0 0 24 24" fill="none" xmlns="http://www.w3.org/2000/svg">
<rect width="24" height="24" rx="12" fill="#353947"/>
<path d="M12 19.5C10.9476 18.6024 9.97222 17.6183 9.08391 16.5581C7.75085 14.9659 6.16785 12.5948 6.16785 10.3352C6.16667 7.97533 7.58776 5.84731 9.768 4.94417C11.9482 4.04103 14.4579 4.54079 16.1258 6.21024C17.2226 7.30219 17.837 8.78753 17.8321 10.3352C17.8321 12.5948 16.2491 14.9659 14.916 16.5581C14.0277 17.6183 13.0523 18.6024 12 19.5ZM12 7.83574C11.107 7.83574 10.2819 8.31214 9.83536 9.08548C9.38887 9.85882 9.38887 10.8116 9.83536 11.585C10.2819 12.3583 11.107 12.8347 12 12.8347C13.3804 12.8347 14.4995 11.7157 14.4995 10.3352C14.4995 8.9548 13.3804 7.83574 12 7.83574Z" fill="white"/>
</svg>
