<svg width="106" height="64" viewBox="0 0 106 64" fill="none" xmlns="http://www.w3.org/2000/svg">
<g clip-path="url(#clip0_124_4329)">
<path fill-rule="evenodd" clip-rule="evenodd" d="M6.97129 55.84C7.74392 55.4334 8.23158 54.6969 8.23158 53.7453C8.23158 52.2634 7.01242 51.2706 4.63871 51.2706H0V60.7925H4.90898C7.40314 60.7925 8.7075 59.8409 8.7075 58.194C8.7075 56.9978 8.02888 56.1818 6.97129 55.84ZM4.36844 52.9292C5.44072 52.9292 6.02239 53.2975 6.02239 54.0458C6.02239 54.7941 5.43778 55.1742 4.36844 55.1742H2.18275V52.9292H4.3655H4.36844ZM4.74741 59.1308H2.18275V56.7769H4.74741C5.88726 56.7769 6.49831 57.1569 6.49831 57.9612C6.49831 58.7655 5.88726 59.1308 4.74741 59.1308ZM12.2475 54.4377V53.4713H10.2263V60.7895H12.3415V57.3337C12.3415 55.9313 13.1141 55.295 14.2804 55.295C14.442 55.295 14.5801 55.3097 14.7563 55.3215V53.3623C13.6312 53.3623 12.7616 53.7306 12.2475 54.4377ZM18.9191 53.3623C17.7528 53.3623 16.5719 53.6746 15.7728 54.2462L16.5337 55.7281C17.0625 55.3068 17.8615 55.0475 18.6371 55.0475C19.777 55.0475 20.3175 55.5778 20.3175 56.4882H18.6371C16.4132 56.4882 15.5055 57.3867 15.5055 58.6771C15.5055 59.9675 16.5219 60.8956 18.2317 60.8956C19.304 60.8956 20.0619 60.542 20.4556 59.8762V60.7866H22.4356V56.6119C22.4356 54.3935 21.1459 53.3623 18.9221 53.3623H18.9191ZM18.7575 59.4696C18.0114 59.4696 17.5648 59.1161 17.5648 58.5858C17.5648 58.0967 17.8762 57.7285 18.8662 57.7285H20.3175V58.4768C20.0737 59.1426 19.4626 59.4696 18.7575 59.4696ZM25.4027 52.4638C26.0667 52.4638 26.5426 51.9747 26.5426 51.3089C26.5426 50.643 26.0667 50.1658 25.4027 50.1658C24.7388 50.1658 24.2629 50.6548 24.2629 51.3089C24.2629 51.9629 24.7388 52.4638 25.4027 52.4638ZM24.3452 60.7866H26.4603V53.4684H24.3452V60.7866ZM32.8617 53.3594C31.8717 53.3594 31.0168 53.6982 30.4469 54.3257V53.4684H28.4257V60.7866H30.5409V57.1687C30.5409 55.8223 31.2724 55.1978 32.2918 55.1978C33.2289 55.1978 33.7695 55.7428 33.7695 56.9242V60.7866H35.8846V56.5972C35.8846 54.367 34.5832 53.3594 32.8588 53.3594H32.8617Z" fill="#DB1B26"/>
<path fill-rule="evenodd" clip-rule="evenodd" d="M50.3413 60.7924H51.3989L47.0598 51.2705H46.0698L41.7307 60.7924H42.7736L43.9135 58.2499H49.2044L50.3442 60.7924H50.3413ZM44.2777 57.4338L46.5574 52.3193L48.8371 57.4338H44.2807H44.2777ZM55.6557 60.8602C56.8631 60.8602 57.8795 60.3711 58.4495 59.446L57.7297 58.957C57.242 59.6788 56.4812 60.0028 55.6557 60.0028C54.0957 60.0028 52.9559 58.901 52.9559 57.2158C52.9559 55.5306 54.0957 54.4288 55.6557 54.4288C56.4841 54.4288 57.242 54.7676 57.7297 55.4894L58.4495 55.0003C57.8795 54.0605 56.8631 53.5862 55.6557 53.5862C53.5258 53.5862 51.9805 55.0828 51.9805 57.2188C51.9805 59.3547 53.5258 60.8631 55.6557 60.8631V60.8602ZM62.8297 53.5832C61.7045 53.5832 60.6469 53.9368 59.9272 54.5496L60.3619 55.2714C60.9466 54.7558 61.8132 54.4288 62.7357 54.4288C64.0635 54.4288 64.7568 55.0946 64.7568 56.3202V56.7562H62.4918C60.4442 56.7562 59.7391 57.6813 59.7391 58.7831C59.7391 60.0205 60.7292 60.8631 62.342 60.8631C63.523 60.8631 64.3632 60.4153 64.798 59.6788V60.7954H65.7204V56.3614C65.7204 54.5113 64.6746 53.5862 62.8326 53.5862L62.8297 53.5832ZM62.4918 60.0971C61.352 60.0971 60.688 59.5815 60.688 58.7507C60.688 58.0172 61.1346 57.4721 62.5183 57.4721H64.7568V58.6417C64.3779 59.5816 63.5758 60.0971 62.4918 60.0971ZM73.9109 50.699V54.9974C73.3145 54.0723 72.3362 53.5832 71.1993 53.5832C69.1635 53.5832 67.6446 55.0533 67.6446 57.2158C67.6446 59.3783 69.1635 60.8602 71.1993 60.8602C72.3803 60.8602 73.3703 60.3446 73.952 59.3783V60.7924H74.8744V50.699H73.9109ZM71.2786 60.0028C69.7598 60.0028 68.62 58.8863 68.62 57.2158C68.62 55.5454 69.7598 54.4288 71.2786 54.4288C72.7975 54.4288 73.9226 55.5454 73.9226 57.2158C73.9226 58.8863 72.7828 60.0028 71.2786 60.0028ZM83.7847 57.2158C83.7847 55.0681 82.3334 53.5832 80.3269 53.5832C78.3204 53.5832 76.8427 55.0916 76.8427 57.2158C76.8427 59.34 78.3616 60.8602 80.5854 60.8602C81.7106 60.8602 82.7006 60.4536 83.3381 59.6906L82.7946 59.066C82.2511 59.6906 81.4785 60.0058 80.6119 60.0058C79.0519 60.0058 77.9121 59.0129 77.8034 57.5163H83.77C83.77 57.4073 83.7847 57.2983 83.7847 57.2158ZM80.3269 54.414C81.7253 54.414 82.7417 55.3922 82.8622 56.7945H77.8034C77.9268 55.3922 78.9432 54.414 80.3269 54.414ZM94.6485 53.5832C93.3588 53.5832 92.3423 54.1695 91.8282 55.0917C91.3934 54.0841 90.471 53.5832 89.2929 53.5832C88.1149 53.5832 87.1778 54.087 86.6754 54.9443V53.6392H85.7529V60.7924H86.7165V57.039C86.7165 55.4069 87.6537 54.4553 89.1049 54.4553C90.4063 54.4553 91.1672 55.2301 91.1672 56.7415V60.7954H92.1308V57.042C92.1308 55.4098 93.0533 54.4582 94.5192 54.4582C95.8089 54.4582 96.5668 55.2331 96.5668 56.7444V60.7983H97.5304V56.6502C97.5304 54.5967 96.3906 53.5891 94.6543 53.5891L94.6485 53.5832ZM105.051 53.6363L102.366 59.7171L99.6808 53.6363H98.6761L101.864 60.7777L101.552 61.47C101.144 62.3686 100.712 62.6661 100.074 62.6661C99.5604 62.6661 99.1256 62.4746 98.7731 62.1211L98.3265 62.8429C98.7613 63.2789 99.3988 63.497 100.063 63.497C101.079 63.497 101.84 63.0491 102.436 61.6468L106.003 53.6363H105.054H105.051Z" fill="#5E5E5E"/>
<path fill-rule="evenodd" clip-rule="evenodd" d="M29.4805 19.0488C37.574 20.4247 44.5541 24.0366 49.9977 28.3439C54.9596 21.2083 62.2805 14.9242 70.1213 10.2694C71.6901 9.33838 73.2765 8.47222 74.8717 7.67971C72.8916 8.04798 71.0761 8.5282 69.3164 9.17045C65.2035 3.89394 58.7963 0.5 51.6017 0.5C40.547 0.5 31.3577 8.50463 29.4805 19.0488ZM50.9437 38.5551C55.2769 31.1692 63.1148 19.7441 71.1554 11.928C72.6155 10.508 74.0844 9.20581 75.5385 8.0686C74.4134 9.95118 73.1443 11.6717 71.837 13.2273C73.2677 16.1911 74.0726 19.5202 74.0726 23.0349C74.0726 35.4794 64.0108 45.5699 51.6017 45.5699C39.1927 45.5699 29.1309 35.4794 29.1309 23.0349C29.1309 21.9154 29.2131 20.8165 29.3688 19.7412C38.0499 25.6894 46.3549 34.0299 50.9437 38.5522V38.5551Z" fill="#DB1B26"/>
</g>
<defs>
<clipPath id="clip0_124_4329">
<rect width="106" height="63" fill="white" transform="translate(0 0.5)"/>
</clipPath>
</defs>
</svg>
