<svg width="36" height="36" viewBox="0 0 36 36" fill="none" xmlns="http://www.w3.org/2000/svg">
<path d="M0 18C0 8.05888 8.05888 0 18 0C27.9411 0 36 8.05888 36 18C36 27.9411 27.9411 36 18 36C8.05888 36 0 27.9411 0 18Z" fill="#F3F3F3"/>
<path d="M10.003 13.884L18 17.882L25.997 13.884C25.9674 13.3744 25.7441 12.8955 25.3728 12.5452C25.0016 12.195 24.5104 11.9999 24 12H12C11.4896 11.9999 10.9984 12.195 10.6272 12.5452C10.2559 12.8955 10.0326 13.3744 10.003 13.884Z" fill="#5D5D5D"/>
<path d="M26 16.118L18 20.118L10 16.118V22C10 22.5304 10.2107 23.0391 10.5858 23.4142C10.9609 23.7893 11.4696 24 12 24H24C24.5304 24 25.0391 23.7893 25.4142 23.4142C25.7893 23.0391 26 22.5304 26 22V16.118Z" fill="#5D5D5D"/>
</svg>
