<svg width="24" height="24" viewBox="0 0 24 24" fill="none" xmlns="http://www.w3.org/2000/svg">
<rect width="24" height="24" rx="12" fill="#353947"/>
<path d="M5.33587 8.57L12 11.9017L18.6642 8.57C18.6395 8.14537 18.4534 7.74624 18.1441 7.45436C17.8347 7.16247 17.4254 6.99992 17 7H7.00004C6.57469 6.99992 6.16541 7.16247 5.85602 7.45436C5.54663 7.74624 5.36054 8.14537 5.33587 8.57Z" fill="white"/>
<path d="M18.6667 10.4317L12 13.765L5.33337 10.4317V15.3333C5.33337 15.7754 5.50897 16.1993 5.82153 16.5118C6.13409 16.8244 6.55801 17 7.00004 17H17C17.4421 17 17.866 16.8244 18.1785 16.5118C18.4911 16.1993 18.6667 15.7754 18.6667 15.3333V10.4317Z" fill="white"/>
</svg>
