<svg width="36" height="36" viewBox="0 0 36 36" fill="none" xmlns="http://www.w3.org/2000/svg">
<path d="M0 18C0 8.05888 8.05888 0 18 0C27.9411 0 36 8.05888 36 18C36 27.9411 27.9411 36 18 36C8.05888 36 0 27.9411 0 18Z" fill="#F3F3F3"/>
<path d="M24.9975 26C16.4659 26.0121 9.99088 19.4595 10 11.0025C10 10.4502 10.4477 10 11 10H13.6394C14.1349 10 14.5559 10.3641 14.6287 10.8543C14.8031 12.0292 15.1452 13.173 15.6445 14.2507L15.7472 14.4725C15.8901 14.7809 15.7933 15.1473 15.5167 15.3449C14.6993 15.9286 14.3869 17.1036 15.0237 18.0204C15.8228 19.1708 16.8301 20.1779 17.9803 20.9766C18.897 21.6132 20.0718 21.3009 20.6555 20.4836C20.8532 20.2069 21.2198 20.11 21.5284 20.2529L21.7492 20.3552C22.827 20.8545 23.9708 21.1966 25.1458 21.371C25.636 21.4437 26 21.8647 26 22.3603V25C26 25.5523 25.5512 26 24.9989 26L24.9975 26Z" fill="#5E5E5E"/>
</svg>
