<svg width="24" height="24" viewBox="0 0 24 24" fill="none" xmlns="http://www.w3.org/2000/svg">
<rect width="24" height="24" rx="12" fill="#353947"/>
<path d="M17.2481 18C10.8494 18.0091 5.99316 13.0946 6.00001 6.75188C6.00001 6.33767 6.33579 6 6.75001 6H8.72953C9.1012 6 9.41695 6.2731 9.47153 6.64075C9.60233 7.5219 9.85888 8.37973 10.2334 9.18803L10.3104 9.35438C10.4176 9.58568 10.345 9.86051 10.1375 10.0087C9.52447 10.4464 9.29019 11.3277 9.76777 12.0153C10.3671 12.8781 11.1225 13.6334 11.9852 14.2325C12.6728 14.7099 13.5539 14.4757 13.9916 13.8627C14.1399 13.6552 14.4149 13.5825 14.6463 13.6897L14.8119 13.7664C15.6202 14.1409 16.4781 14.3974 17.3594 14.5282C17.727 14.5828 18 14.8985 18 15.2702V17.25C18 17.6642 17.6634 18 17.2492 18L17.2481 18Z" fill="white"/>
</svg>
