<svg width="1440" height="340" viewBox="0 0 1440 340" fill="none" xmlns="http://www.w3.org/2000/svg">
<rect width="1440" height="340" fill="#F2F4FF"/>
<mask id="mask0_1211_913" style="mask-type:alpha" maskUnits="userSpaceOnUse" x="0" y="1" width="1440" height="339">
<rect y="1" width="1440" height="339" fill="#F2F4FF"/>
</mask>
<g mask="url(#mask0_1211_913)">
<path d="M247.77 374.403C205.617 392.038 189.607 435.267 217.158 459.944C273.841 510.727 507.196 485.641 518.175 451.219C528.992 417.306 335.728 337.596 247.77 374.403Z" stroke="#EFF1FF" stroke-width="16" stroke-miterlimit="10"/>
<path d="M352.218 261.453C448.502 227.755 610.175 467.681 543.44 524.324C502.41 559.154 403.084 554.802 322.085 543.355C246.045 532.611 137.393 488.679 110.587 415.716C96.3933 376.982 104.914 321.797 134.975 302.47C158.24 287.517 189.647 294.245 196.576 291.757C229.606 305.447 234.453 310.768 260.769 313.978C295.167 318.178 325.738 270.719 352.218 261.453Z" stroke="#EFF1FF" stroke-width="16" stroke-miterlimit="10"/>
<path d="M449.911 143.447C561.736 161.285 683.255 511.726 561.95 592.374C484.696 643.737 350.013 621.057 256.137 593.903C169.903 568.96 26.3122 485.723 -2.73856 366.432C-19.6262 297.119 0.89408 199.611 59.6895 171.407C106.556 148.931 166.944 168.257 177.576 169.745C240.423 203.525 245.504 220.711 292.3 232.28C354.258 247.58 403.176 135.955 449.911 143.447Z" stroke="#EFF1FF" stroke-width="16" stroke-miterlimit="10"/>
<path d="M540.522 26.2258C663.99 59.1089 749.255 556.27 573.379 661.198C459.87 728.911 289.79 688.292 183.107 645.225C86.5974 606.277 -91.3296 483.715 -123.146 317.923C-142.339 217.939 -110.309 78.323 -22.6873 41.1179C47.7202 11.2112 137.638 41.9028 151.474 48.508C248.208 94.7136 249.433 131.429 316.779 151.357C406.237 177.9 475.859 9.04012 540.522 26.2258Z" stroke="#EFF1FF" stroke-width="16" stroke-miterlimit="10"/>
<path d="M625.685 -85.6645C762.418 -38.2256 809.581 605.645 579.358 735.363C429.441 819.08 224.035 760.969 104.638 701.899C-2.25897 649.028 -214.298 487.15 -249.043 274.745C-270.399 144.181 -227.002 -37.5936 -110.544 -83.8603C-16.5547 -121.167 102.179 -77.4081 119.903 -67.429C244.596 2.78146 247.821 47.6313 335.697 75.7746C452.676 113.561 543.838 -114.052 625.685 -85.6645Z" stroke="#EFF1FF" stroke-width="16" stroke-miterlimit="10"/>
<path d="M-202.227 -207.35C-84.697 -252.047 62.7813 -195.282 84.5056 -181.867C236.821 -87.8051 242.453 -35.0147 350.83 1.60927C495.349 50.4447 608.593 -236.503 706.949 -196.138C858.029 -134.133 866.509 657.274 581.44 810.946C395.431 911.216 154.301 835.134 22.2612 759.98C-95.003 693.245 -341.001 492.053 -378.756 232.994C-402.225 71.8605 -347.542 -152.093 -202.227 -207.35Z" stroke="#EFF1FF" stroke-width="16" stroke-miterlimit="10"/>
<path d="M1069.56 -288.896C1023.26 -289.283 967.743 -369.493 1009.26 -382.887C1033.24 -390.633 1096.73 -378.381 1121.67 -356.578C1156.79 -325.897 1101.41 -288.62 1069.56 -288.896Z" stroke="#EFF1FF" stroke-width="16" stroke-miterlimit="10"/>
<path d="M943.743 -371.654C948.273 -382.418 969.488 -387.198 988.845 -400.307C1028.11 -426.911 1033.74 -439.55 1061.63 -455.594C1072.51 -461.863 1087.14 -470.099 1101.43 -466.328C1123.3 -460.548 1128.76 -435.534 1156.53 -391.479C1192.53 -334.235 1206.16 -319.434 1195.87 -289.099C1193.48 -282.046 1190.37 -259.203 1173.04 -245.269C1149.03 -226.004 1120.88 -240.886 1085.7 -228.134C1043.45 -212.844 1022.5 -185.629 1004.16 -197.657C991.243 -206.127 990.763 -229.327 981.09 -269.722C973.722 -300.495 969.09 -320.688 960.131 -337.16C949.386 -356.772 938.702 -359.687 943.743 -371.654Z" stroke="#EFF1FF" stroke-width="16" stroke-miterlimit="10"/>
<path d="M872.978 -349.219C873.764 -368.3 903.764 -377.535 928.488 -405.108C979.192 -461.67 955.702 -502.085 996.345 -543.408C1013.59 -560.951 1040.65 -577.943 1067.77 -574.65C1106.26 -569.972 1119.19 -530.249 1178.45 -449.713C1255.91 -344.418 1288.91 -323.797 1281.68 -267.684C1280.2 -256.247 1278.76 -212.335 1248.49 -185.904C1208.11 -150.656 1159.71 -182.724 1096.5 -156.232C1025.86 -126.672 999.467 -63.474 975.651 -76.5518C959.11 -85.6339 965.447 -122.207 952.733 -193.539C943.733 -244.239 938.172 -273.871 920.182 -298.141C897.478 -328.751 872.131 -328.496 872.978 -349.219Z" stroke="#EFF1FF" stroke-width="16" stroke-miterlimit="10"/>
<path d="M802.142 -327.028C799.081 -354.376 837.928 -368.127 868.06 -410.164C930.1 -496.703 876.611 -564.345 930.988 -631.477C954.263 -660.202 994.181 -685.899 1034.05 -683.218C1089.3 -679.508 1109.72 -625.382 1200.37 -508.191C1319.56 -355.07 1370.88 -328.109 1367.51 -246.513C1366.85 -230.601 1367.16 -165.732 1323.96 -126.753C1267.21 -75.553 1198.46 -124.867 1107.33 -84.5535C1008.25 -40.7229 976.498 58.4259 947.131 44.3389C926.978 34.5943 939.886 -15.3115 924.366 -117.579C913.651 -188.208 907.192 -227.135 880.213 -259.346C845.438 -300.852 805.418 -297.57 802.142 -327.028Z" stroke="#EFF1FF" stroke-width="16" stroke-miterlimit="10"/>
<path d="M731.143 -304.899C724.276 -340.483 771.857 -358.8 807.469 -415.27C880.713 -531.839 797.112 -626.442 865.478 -719.597C894.703 -759.452 947.58 -793.865 1000.17 -791.846C1072.23 -789.074 1099.81 -720.362 1222.1 -566.72C1382.62 -365.507 1452.47 -332.278 1453.1 -225.392C1453.22 -205.006 1455.24 -119.241 1399.18 -67.6634C1325.97 -0.572009 1237 -67.1027 1117.9 -12.9261C990.355 45.1137 953.243 180.305 918.447 165.179C894.672 154.802 914.162 91.5232 895.835 -41.6708C883.376 -132.237 876.06 -180.41 840.091 -220.601C793.214 -272.953 738.531 -266.634 731.143 -304.899Z" stroke="#EFF1FF" stroke-width="16" stroke-miterlimit="10"/>
<path d="M660.011 -282.78C671.511 -235.687 740.837 -245.065 799.805 -181.868C844.774 -133.685 852.948 -76.2869 867.152 34.2273C888.243 198.337 862.203 275 889.601 285.998C929.876 302.175 972.335 130.93 1128.37 58.6909C1275.37 -9.3586 1384.76 74.5311 1474.29 -8.58391C1543.31 -72.6683 1539.47 -179.329 1538.57 -204.293C1533.82 -336.437 1445.54 -375.966 1243.68 -625.27C1089.75 -815.362 1055.04 -898.64 966.131 -900.485C900.825 -901.841 834.958 -858.693 799.805 -807.727C717.49 -688.467 831.366 -566.853 746.745 -420.387C705.735 -349.412 649.307 -326.59 660.011 -282.78Z" stroke="#EFF1FF" stroke-width="16" stroke-miterlimit="10"/>
<path d="M1248.32 475.183C1236.24 469.067 1210.87 480.851 1208.63 499.208C1206.09 520.033 1234.79 537.259 1247.4 531.908C1262.32 525.568 1264.35 483.277 1248.32 475.183Z" stroke="#EFF1FF" stroke-width="16" stroke-miterlimit="10"/>
<path d="M1282.36 585.83C1302.95 566.595 1311.95 531.296 1322.25 470.79C1332.45 410.793 1330.85 367.839 1321.88 364.72C1316.99 363.038 1303.15 376.197 1291.27 385.84C1269.04 403.841 1230.98 401.843 1221.22 403.79C1185.51 410.926 1175.02 424.177 1160.09 449.558C1153.18 461.28 1137.07 487.272 1129.98 517.852C1119.16 564.159 1070.68 578.43 1076.59 596.991C1081.56 612.485 1129.59 616.246 1160.73 616.685C1205.36 617.317 1250.53 615.533 1282.36 585.83Z" stroke="#EFF1FF" stroke-width="16" stroke-miterlimit="10"/>
<path d="M1318.06 637.54C1351.9 603.168 1365.22 545.485 1385.73 437.611C1406.57 329.217 1406.43 254.868 1396.17 252.096C1388.46 249.976 1363.51 276.773 1342.31 295.926C1302.34 332.183 1230.79 326.22 1216.05 328.544C1148.8 338.921 1132.23 363.782 1106.17 410.773C1095.31 430.343 1065.53 478.047 1051.96 534.385C1031.07 620.69 932.039 643.289 940.233 675.285C947.08 701.93 1038.92 706.017 1096.7 703.826C1178.29 700.656 1260.86 695.641 1318.06 637.54Z" stroke="#EFF1FF" stroke-width="16" stroke-miterlimit="10"/>
<path d="M1353.56 688.913C1400.69 639.415 1418.17 559.307 1449 404.096C1480.32 247.274 1481.78 141.704 1470.25 139.074C1459.69 136.628 1423.66 176.993 1393.19 205.707C1335.59 260.311 1230.45 250.271 1210.71 252.901C1111.96 266.071 1089.21 302.898 1052.09 371.6C1037.27 399.01 993.834 468.435 973.763 550.5C942.835 676.814 793.244 707.72 803.703 753.161C812.438 790.957 948.1 795.534 1032.51 790.529C1151.04 783.852 1271.14 775.474 1353.56 688.913Z" stroke="#EFF1FF" stroke-width="16" stroke-miterlimit="10"/>
<path d="M1388.94 740.256C1449.39 675.632 1471.01 573.088 1512.18 370.54C1554.01 165.311 1557.07 28.5497 1544.24 26.0116C1530.81 23.3308 1483.68 77.0998 1443.96 115.395C1368.62 188.226 1230.03 174.21 1205.28 177.217C1075.02 193.006 1045.93 241.892 997.906 332.377C979.069 367.605 922.039 458.772 895.488 566.575C854.489 732.887 654.337 772.11 667.092 830.996C677.694 879.923 857.182 884.805 968.222 877.201C1123.64 866.733 1281.34 855.306 1388.94 740.256Z" stroke="#EFF1FF" stroke-width="16" stroke-miterlimit="10"/>
<path d="M1199.8 101.502C1038.04 119.85 1002.86 181.009 943.682 293.133C920.927 336.24 850.193 449.089 817.152 582.619C766.132 788.949 515.39 836.479 530.42 908.8C542.91 968.939 766.214 974.036 903.886 963.843C1096.25 949.573 1291.53 935.119 1424.29 791.579C1498.05 711.817 1523.81 586.87 1575.31 336.964C1627.58 83.3176 1632.25 -84.6044 1618.17 -87.0712C1601.84 -89.9253 1543.68 -22.8543 1494.7 25.0535C1401.6 116.099 1229.56 98.1282 1199.8 101.502Z" stroke="#EFF1FF" stroke-width="16" stroke-miterlimit="10"/>
<path d="M-115.493 -388.789C-97.1254 -318.456 34.7101 -351.492 191.648 -193.08C247.882 -136.314 285.586 -76.9392 360.013 -67.7042C367.524 -66.7766 442.084 -58.6324 494.706 -106.438C560.91 -166.578 520.502 -250.009 597.766 -366.364C626.225 -409.226 630.96 -396.78 651.848 -430.581C740.99 -574.865 605.032 -721.34 683.48 -867.867C719.592 -935.315 773.275 -950.798 768.173 -959.605C746.153 -997.391 -165.125 -578.31 -115.493 -388.789Z" stroke="#EFF1FF" stroke-width="16" stroke-miterlimit="10"/>
<path d="M380.421 -163.856C384.932 -164.468 434.094 -160.798 467.819 -194.599C510.461 -237.278 480.063 -296.041 528.92 -375.374C546.9 -404.588 549.4 -396.668 562.195 -419.776C616.787 -518.384 518.808 -617.584 566.787 -714.113C588.991 -758.8 624.042 -769.044 618.827 -773.407C595.246 -793.304 -6.24869 -499.364 40.9958 -371.46C58.7099 -323.491 155.413 -340.514 266.065 -237.196C306.3 -199.655 333.544 -157.506 380.421 -163.856Z" stroke="#EFF1FF" stroke-width="16" stroke-miterlimit="10"/>
<path d="M400.829 -260.018C402.115 -263.25 426.156 -263.178 440.931 -282.759C460.115 -308.161 439.686 -342.002 460.074 -384.375C467.553 -399.93 467.859 -396.607 472.553 -408.971C492.706 -462.149 432.503 -513.767 450.104 -560.37C458.339 -582.306 473.645 -586.046 469.563 -587.219C439.727 -582.989 153.24 -420.133 197.433 -354.132C214.688 -328.343 276.453 -329.577 340.432 -281.312C364.748 -262.964 380.666 -249.53 400.829 -260.018Z" stroke="#EFF1FF" stroke-width="16" stroke-miterlimit="10"/>
<path d="M421.237 -356.17C405.401 -402.396 343.054 -418.114 320.218 -401.02C286.545 -375.782 315.269 -342.919 353.891 -336.803C382.758 -332.268 439.36 -303.268 421.237 -356.17Z" stroke="#EFF1FF" stroke-width="16" stroke-miterlimit="10"/>
</g>
</svg>
