<svg width="513" height="192" viewBox="0 0 513 192" fill="none" xmlns="http://www.w3.org/2000/svg">
<mask id="mask0_407_1352" style="mask-type:alpha" maskUnits="userSpaceOnUse" x="0" y="0" width="513" height="192">
<path d="M0 0H513V192H0V0Z" fill="url(#paint0_linear_407_1352)"/>
</mask>
<g mask="url(#mask0_407_1352)">
<path d="M-291.966 508.872C-318.79 518.641 -328.979 542.59 -311.446 556.261C-275.375 584.393 -126.874 570.496 -119.887 551.427C-113.004 532.64 -235.991 488.481 -291.966 508.872Z" stroke="#EFF2FF" stroke-width="6" stroke-miterlimit="10"/>
<path d="M-225.498 446.299C-164.225 427.63 -61.3415 560.547 -103.809 591.926C-129.92 611.222 -193.128 608.811 -244.673 602.469C-293.063 596.517 -362.206 572.179 -379.265 531.759C-388.297 510.301 -382.875 479.728 -363.745 469.022C-348.94 460.738 -328.953 464.465 -324.544 463.087C-303.524 470.671 -300.44 473.619 -283.693 475.397C-261.803 477.724 -242.349 451.432 -225.498 446.299Z" stroke="#EFF2FF" stroke-width="6" stroke-miterlimit="10"/>
<path d="M-163.329 380.925C-92.1664 390.807 -14.8349 584.947 -92.03 629.625C-141.192 658.08 -226.901 645.515 -286.641 630.472C-341.518 616.654 -432.895 570.542 -451.382 504.456C-462.129 466.057 -449.07 412.039 -411.654 396.414C-381.83 383.963 -343.401 394.669 -336.635 395.494C-296.641 414.208 -293.407 423.728 -263.628 430.138C-224.199 438.613 -193.069 376.774 -163.329 380.925Z" stroke="#EFF2FF" stroke-width="6" stroke-miterlimit="10"/>
<path d="M-105.666 315.986C-27.0947 334.203 27.1652 609.624 -84.7572 667.753C-156.991 705.265 -265.225 682.762 -333.115 658.904C-394.531 637.327 -507.759 569.429 -528.005 477.583C-540.22 422.193 -519.837 344.847 -464.077 324.236C-419.271 307.668 -362.05 324.671 -353.245 328.33C-291.687 353.927 -290.907 374.267 -248.05 385.307C-191.121 400.011 -146.816 306.465 -105.666 315.986Z" stroke="#EFF2FF" stroke-width="6" stroke-miterlimit="10"/>
<path d="M-51.4714 254C35.5419 280.281 65.555 636.977 -80.952 708.839C-176.355 755.217 -307.07 723.024 -383.05 690.301C-451.077 661.01 -586.012 571.332 -608.123 453.663C-621.714 381.332 -594.097 280.631 -519.986 255C-460.174 234.332 -384.615 258.574 -373.336 264.102C-293.985 302.998 -291.933 327.844 -236.011 343.435C-161.569 364.368 -103.556 238.273 -51.4714 254Z" stroke="#EFF2FF" stroke-width="6" stroke-miterlimit="10"/>
<path d="M-578.33 186.588C-503.538 161.826 -409.687 193.273 -395.862 200.705C-298.933 252.814 -295.349 282.059 -226.381 302.349C-134.413 329.403 -62.3481 170.437 0.24302 192.799C96.3862 227.149 101.782 665.579 -79.6273 750.711C-197.998 806.259 -351.446 764.111 -435.473 722.477C-510.096 685.507 -666.642 574.048 -690.668 430.533C-705.604 341.267 -670.805 217.199 -578.33 186.588Z" stroke="#EFF2FF" stroke-width="6" stroke-miterlimit="10"/>
<path d="M230.997 141.412C201.536 141.198 166.205 96.7625 192.627 89.3425C207.887 85.0509 248.289 91.8384 264.159 103.917C286.51 120.914 251.27 141.565 230.997 141.412Z" stroke="#EFF2FF" stroke-width="6" stroke-miterlimit="10"/>
<path d="M150.932 95.5653C153.815 89.6022 167.315 86.9539 179.633 79.692C204.62 64.9536 208.205 57.9515 225.951 49.0633C232.874 45.5905 242.185 41.0278 251.276 43.1171C265.198 46.3189 268.672 60.1764 286.341 84.5822C309.251 116.295 317.926 124.494 311.38 141.299C309.854 145.207 307.88 157.862 296.848 165.581C281.569 176.254 263.659 168.009 241.27 175.073C214.38 183.544 201.049 198.621 189.38 191.958C181.159 187.265 180.854 174.413 174.698 152.034C170.01 134.986 167.062 123.8 161.36 114.674C154.523 103.81 147.724 102.195 150.932 95.5653Z" stroke="#EFF2FF" stroke-width="6" stroke-miterlimit="10"/>
<path d="M105.899 107.994C106.399 97.4232 125.49 92.3071 141.224 77.0323C173.49 45.6978 158.542 23.3079 184.406 0.415401C195.38 -9.30288 212.601 -18.7162 229.861 -16.8923C254.354 -14.3004 262.582 7.7055 300.29 52.3215C349.588 110.654 370.588 122.077 365.985 153.164C365.043 159.499 364.127 183.826 344.861 198.468C319.166 217.995 288.367 200.23 248.14 214.907C203.192 231.283 186.393 266.293 171.237 259.048C160.711 254.017 164.744 233.756 156.653 194.239C150.925 166.151 147.386 149.736 135.938 136.291C121.49 119.333 105.36 119.474 105.899 107.994Z" stroke="#EFF2FF" stroke-width="6" stroke-miterlimit="10"/>
<path d="M60.8212 120.287C58.8731 105.137 83.5939 97.5192 102.769 74.2314C142.25 26.2894 108.211 -11.1833 142.815 -48.3737C157.627 -64.2866 183.029 -78.5224 208.399 -77.0373C243.562 -74.9818 256.555 -44.9969 314.244 19.9253C390.088 104.753 422.751 119.689 420.608 164.892C420.186 173.707 420.381 209.644 392.894 231.237C356.777 259.602 313.023 232.282 255.036 254.615C191.984 278.897 171.776 333.824 153.088 326.02C140.263 320.622 148.477 292.975 138.601 236.32C131.782 197.192 127.672 175.627 110.503 157.783C88.3731 134.789 62.9056 136.607 60.8212 120.287Z" stroke="#EFF2FF" stroke-width="6" stroke-miterlimit="10"/>
<path d="M15.6392 132.547C11.269 112.834 41.5484 102.686 64.2108 71.4024C110.821 6.82461 57.6199 -45.5841 101.126 -97.191C119.724 -119.27 153.373 -138.334 186.841 -137.216C232.698 -135.68 250.25 -97.6145 328.069 -12.499C430.219 98.9704 474.673 117.379 475.069 176.592C475.147 187.886 476.433 235.399 440.758 263.972C394.173 301.14 337.549 264.283 261.763 294.296C180.594 326.449 156.977 401.344 134.835 392.964C119.705 387.216 132.107 352.16 120.445 278.372C112.516 228.199 107.86 201.512 84.9706 179.247C55.1394 150.244 20.3405 153.745 15.6392 132.547Z" stroke="#EFF2FF" stroke-width="6" stroke-miterlimit="10"/>
<path d="M-29.6272 144.801C-22.309 170.889 21.808 165.694 59.3341 200.705C87.9511 227.397 93.1524 259.195 102.191 320.419C115.614 411.333 99.0421 453.804 116.477 459.897C142.107 468.858 169.127 373.991 268.426 333.971C361.972 296.272 431.582 342.746 488.556 296.702C532.479 261.2 530.037 202.111 529.466 188.281C526.44 115.075 470.264 93.1767 341.803 -44.9348C243.848 -150.243 221.757 -196.378 165.179 -197.401C123.62 -198.152 81.7043 -174.248 59.3341 -146.014C6.95079 -79.9454 79.4186 -12.5724 25.5678 68.5676C-0.529722 107.887 -36.4389 120.53 -29.6272 144.801Z" stroke="#EFF2FF" stroke-width="6" stroke-miterlimit="10"/>
<path d="M344.757 564.703C337.069 561.314 320.926 567.842 319.497 578.012C317.88 589.549 336.147 599.092 344.173 596.127C353.666 592.615 354.958 569.186 344.757 564.703Z" stroke="#EFF2FF" stroke-width="6" stroke-miterlimit="10"/>
<path d="M366.42 626C379.524 615.344 385.251 595.789 391.803 562.269C398.296 529.031 397.277 505.235 391.569 503.507C388.459 502.576 379.647 509.866 372.089 515.208C357.939 525.18 333.718 524.073 327.51 525.152C304.783 529.105 298.108 536.446 288.608 550.506C284.211 557 273.958 571.4 269.445 588.34C262.562 613.994 231.711 621.9 235.471 632.183C238.633 640.766 269.199 642.85 289.017 643.093C317.42 643.443 346.16 642.455 366.42 626Z" stroke="#EFF2FF" stroke-width="6" stroke-miterlimit="10"/>
<path d="M389.134 654.646C410.673 635.605 419.147 603.649 432.199 543.888C445.459 483.839 445.374 442.651 438.842 441.115C433.939 439.94 418.063 454.786 404.569 465.396C379.134 485.482 333.601 482.179 324.218 483.467C281.426 489.215 270.88 502.988 254.296 529.02C247.387 539.862 228.432 566.289 219.796 597.5C206.504 645.312 143.484 657.831 148.698 675.557C153.055 690.318 211.497 692.582 248.27 691.368C300.192 689.612 352.738 686.833 389.134 654.646Z" stroke="#EFF2FF" stroke-width="6" stroke-miterlimit="10"/>
<path d="M411.725 683.106C441.719 655.685 452.842 611.306 472.465 525.321C492.394 438.444 493.323 379.959 485.985 378.502C479.264 377.147 456.336 399.509 436.946 415.416C400.29 445.666 333.387 440.104 320.822 441.561C257.978 448.857 243.504 469.259 219.88 507.319C210.452 522.504 182.809 560.964 170.036 606.427C150.354 676.404 55.1588 693.525 61.8147 718.699C67.3732 739.637 153.705 742.173 207.419 739.4C282.848 735.701 359.277 731.06 411.725 683.106Z" stroke="#EFF2FF" stroke-width="6" stroke-miterlimit="10"/>
<path d="M434.245 711.55C472.712 675.749 486.472 618.941 512.667 506.732C539.29 393.037 541.238 317.273 533.069 315.867C524.524 314.382 494.53 344.169 469.258 365.385C421.309 405.732 333.114 397.967 317.367 399.633C234.471 408.38 215.958 435.462 185.4 485.59C173.412 505.105 137.12 555.611 120.224 615.333C94.133 707.467 -33.2376 729.196 -25.1207 761.818C-18.3739 788.923 95.8472 791.628 166.51 787.416C265.413 781.616 365.77 775.286 434.245 711.55Z" stroke="#EFF2FF" stroke-width="6" stroke-miterlimit="10"/>
<path d="M313.88 357.688C210.939 367.852 188.555 401.734 150.893 463.849C136.412 487.73 91.3993 550.247 70.3732 624.221C37.9056 738.525 -121.66 764.856 -112.095 804.921C-104.147 838.238 37.9575 841.061 125.568 835.414C247.984 827.509 372.251 819.501 456.738 739.982C503.68 695.795 520.07 626.575 552.842 488.131C586.109 347.614 589.076 254.587 580.115 253.221C569.725 251.639 532.712 288.796 501.543 315.336C442.296 365.774 332.816 355.819 313.88 357.688Z" stroke="#EFF2FF" stroke-width="6" stroke-miterlimit="10"/>
<path d="M-523.135 86.073C-511.447 125.037 -427.551 106.735 -327.68 194.493C-291.894 225.941 -267.901 258.834 -220.537 263.95C-215.758 264.464 -168.309 268.975 -134.822 242.492C-92.6923 209.175 -118.407 162.955 -69.2377 98.4961C-51.1273 74.751 -48.1143 81.6458 -34.822 62.9207C21.9054 -17.0109 -64.6144 -98.1565 -14.6921 -179.33C8.28847 -216.696 42.451 -225.274 39.2042 -230.152C25.1912 -251.085 -554.72 -18.9194 -523.135 86.073Z" stroke="#EFF2FF" stroke-width="6" stroke-miterlimit="10"/>
<path d="M-207.55 210.683C-204.68 210.344 -173.394 212.377 -151.933 193.652C-124.796 170.008 -144.141 137.454 -113.05 93.5043C-101.608 77.3203 -100.017 81.708 -91.8742 68.9065C-57.1338 14.2785 -119.485 -40.6769 -88.9521 -94.1529C-74.8222 -118.909 -52.5169 -124.584 -55.8351 -127.001C-70.8417 -138.024 -453.616 24.8157 -423.551 95.6727C-412.278 122.247 -350.739 112.817 -280.323 170.053C-254.719 190.851 -237.381 214.201 -207.55 210.683Z" stroke="#EFF2FF" stroke-width="6" stroke-miterlimit="10"/>
<path d="M-194.563 157.41C-193.745 155.62 -178.446 155.66 -169.043 144.812C-156.835 130.74 -169.836 111.992 -156.861 88.5181C-152.102 79.901 -151.907 81.7418 -148.92 74.8922C-136.095 45.4324 -174.407 16.8366 -163.206 -8.98095C-157.965 -21.133 -148.225 -23.2055 -150.822 -23.8549C-169.81 -21.5114 -352.122 68.7089 -323.998 105.272C-313.018 119.559 -273.712 118.876 -232.998 145.614C-217.524 155.778 -207.394 163.221 -194.563 157.41Z" stroke="#EFF2FF" stroke-width="6" stroke-miterlimit="10"/>
<path d="M-181.576 104.143C-191.654 78.5344 -231.329 69.8269 -245.862 79.2967C-267.29 93.2784 -249.011 111.484 -224.433 114.872C-206.063 117.385 -170.043 133.45 -181.576 104.143Z" stroke="#EFF2FF" stroke-width="6" stroke-miterlimit="10"/>
</g>
<defs>
<linearGradient id="paint0_linear_407_1352" x1="102.222" y1="96" x2="446.92" y2="96" gradientUnits="userSpaceOnUse">
<stop stop-color="#F2F4FF"/>
<stop offset="1" stop-color="#F2F4FF" stop-opacity="0"/>
</linearGradient>
</defs>
</svg>
