<svg xmlns="http://www.w3.org/2000/svg" width="77" height="77" viewBox="0 0 77 77" fill="none">
<circle cx="38.5" cy="38.5" r="38.5" fill="url(#paint0_linear_1344_914)"/>
<path fill-rule="evenodd" clip-rule="evenodd" d="M11.4219 33.0472C21.1883 34.7567 29.6111 39.2446 36.18 44.5964C42.1674 35.7304 51.0015 27.9223 60.4631 22.1386C62.3561 20.9818 64.2704 19.9056 66.1953 18.9209C63.806 19.3785 61.6152 19.9752 59.4917 20.7732C54.5288 14.217 46.7972 10 38.1155 10C24.7758 10 13.6871 19.9459 11.4219 33.0472V33.0472ZM37.3215 57.2841C42.5503 48.1069 52.0083 33.9111 61.7109 24.1995C63.4728 22.4351 65.2452 20.8171 67 19.4041C65.6423 21.7432 64.1108 23.881 62.5333 25.8138C64.2597 29.4964 65.2311 33.6329 65.2311 38C65.2311 53.4624 53.0895 66 38.1155 66C23.1415 66 11 53.4624 11 38C11 36.609 11.0993 35.2436 11.2871 33.9074C21.7625 41.2982 31.7842 51.6614 37.3215 57.2804V57.2841Z" fill="#DB1B26"/>
<defs>
<linearGradient id="paint0_linear_1344_914" x1="82" y1="79.5" x2="20.5" y2="10.5" gradientUnits="userSpaceOnUse">
<stop stop-color="#FEE9EE"/>
<stop offset="1" stop-color="#FEE9EE" stop-opacity="0"/>
</linearGradient>
</defs>
</svg>