<svg width="645" height="916" viewBox="0 0 645 916" fill="none" xmlns="http://www.w3.org/2000/svg">
<path fill-rule="evenodd" clip-rule="evenodd" d="M-352.425 220.134C-286.204 154.21 -180.489 157.901 -88.7409 140.267C-24.2938 127.881 41.792 151.282 104.613 132.293C197.9 104.094 268.271 -23.1891 361.823 4.07349C447.611 29.0734 429.376 165.535 477.363 240.918C525.656 316.78 657.823 358.385 643.944 447.252C628.851 543.887 464.25 539.806 417.283 625.601C371.581 709.085 475.157 856.784 393.236 905.219C310.016 954.421 226.312 806.013 130.246 795.307C55.2997 786.955 -17.8543 886.615 -84.8174 851.942C-151.61 817.357 -109.417 697.75 -162.012 643.978C-237.32 566.985 -395.297 587.636 -439.435 489.387C-478.751 401.872 -420.427 287.831 -352.425 220.134Z" fill="#F2F4FF"/>
</svg>
