<svg width="1158" height="1450" viewBox="0 0 1158 1450" fill="none" xmlns="http://www.w3.org/2000/svg">
<path d="M1112.5 313L1116.47 312.555L1112.5 313ZM5.49992 685.5L1.52789 685.028L5.49992 685.5ZM1150 1058L1146.05 1057.37L1150 1058ZM9.84746 39.8087C10.4365 41.9379 12.6401 43.1864 14.7692 42.5973C16.8984 42.0082 18.1469 39.8047 17.5578 37.6755L9.84746 39.8087ZM31.7309 72.7549C30.6604 70.8225 28.2261 70.1237 26.2936 71.1942C24.3612 72.2647 23.6624 74.6991 24.7329 76.6315L31.7309 72.7549ZM78.9093 133.487C80.7692 134.679 83.2433 134.137 84.4354 132.277C85.6274 130.417 85.086 127.943 83.2261 126.751L78.9093 133.487ZM117.084 144.112C115.039 143.279 112.704 144.261 111.87 146.307C111.037 148.352 112.019 150.687 114.065 151.521L117.084 144.112ZM189.727 171.712C191.908 172.062 193.96 170.577 194.31 168.396C194.659 166.215 193.175 164.163 190.993 163.813L189.727 171.712ZM229.213 168.508C227.013 168.312 225.07 169.936 224.873 172.137C224.677 174.337 226.301 176.28 228.502 176.476L229.213 168.508ZM306.171 179.525C308.38 179.52 310.167 177.725 310.163 175.516C310.158 173.307 308.363 171.52 306.154 171.525L306.171 179.525ZM344.742 170.84C342.534 170.91 340.801 172.758 340.871 174.966C340.942 177.174 342.789 178.906 344.997 178.836L344.742 170.84ZM422.626 174.671C424.829 174.514 426.488 172.6 426.33 170.396C426.173 168.193 424.259 166.534 422.055 166.691L422.626 174.671ZM460.723 163.683C458.521 163.867 456.886 165.8 457.069 168.002C457.253 170.203 459.186 171.839 461.388 171.655L460.723 163.683ZM538.626 164.671C540.825 164.463 542.439 162.511 542.231 160.312C542.022 158.112 540.07 156.499 537.871 156.707L538.626 164.671ZM576.491 153.03C574.292 153.239 572.678 155.191 572.887 157.391C573.096 159.59 575.048 161.203 577.247 160.995L576.491 153.03ZM654.381 154C656.582 153.816 658.217 151.881 658.033 149.68C657.848 147.479 655.914 145.844 653.712 146.028L654.381 154ZM692.472 142.991C690.268 143.15 688.611 145.065 688.77 147.268C688.929 149.472 690.844 151.129 693.047 150.97L692.472 142.991ZM770.386 146.742C772.594 146.668 774.324 144.818 774.25 142.61C774.176 140.403 772.327 138.672 770.119 138.746L770.386 146.742ZM808.96 137.991C806.751 138.001 804.967 139.799 804.977 142.008C804.986 144.217 806.784 146 808.993 145.991L808.96 137.991ZM885.926 148.779C888.127 148.966 890.064 147.334 890.251 145.132C890.438 142.931 888.805 140.995 886.604 140.808L885.926 148.779ZM925.359 145.365C923.175 145.029 921.133 146.527 920.797 148.71C920.461 150.894 921.959 152.936 924.143 153.272L925.359 145.365ZM998.33 172.266C1000.39 173.07 1002.71 172.054 1003.51 169.996C1004.32 167.938 1003.3 165.619 1001.24 164.815L998.33 172.266ZM1036.69 182.197C1034.8 181.046 1032.34 181.642 1031.19 183.527C1030.04 185.413 1030.64 187.874 1032.52 189.025L1036.69 182.197ZM1085.62 241.565C1086.75 243.461 1089.21 244.079 1091.1 242.945C1093 241.811 1093.62 239.355 1092.48 237.459L1085.62 241.565ZM1108.55 273.769C1107.89 271.659 1105.65 270.479 1103.54 271.133C1101.43 271.787 1100.25 274.028 1100.9 276.138L1108.55 273.769ZM1110.33 353.096C1110.26 355.304 1112 357.146 1114.21 357.208C1116.42 357.271 1118.26 355.532 1118.32 353.324L1110.33 353.096ZM1113.47 393.712C1113.95 391.556 1112.6 389.417 1110.44 388.933C1108.28 388.449 1106.14 389.805 1105.66 391.96L1113.47 393.712ZM1070.27 460.602C1068.76 462.221 1068.86 464.752 1070.48 466.255C1072.1 467.758 1074.63 467.664 1076.13 466.045L1070.27 460.602ZM1044.77 492.291C1046.62 491.08 1047.13 488.601 1045.92 486.753C1044.71 484.906 1042.23 484.39 1040.38 485.601L1044.77 492.291ZM967.984 516.737C965.854 517.322 964.602 519.523 965.186 521.654C965.771 523.784 967.973 525.037 970.103 524.452L967.984 516.737ZM930.651 533.256C932.826 532.869 934.276 530.792 933.889 528.617C933.501 526.442 931.424 524.992 929.25 525.38L930.651 533.256ZM850.181 534.293C847.975 534.426 846.295 536.321 846.428 538.526C846.56 540.731 848.455 542.411 850.66 542.279L850.181 534.293ZM810.536 543.906C812.744 543.855 814.494 542.024 814.443 539.815C814.393 537.607 812.562 535.857 810.353 535.908L810.536 543.906ZM730.367 535.566C728.159 535.507 726.321 537.25 726.262 539.458C726.203 541.666 727.946 543.504 730.154 543.563L730.367 535.566ZM689.949 542.16C692.156 542.253 694.021 540.54 694.115 538.333C694.208 536.125 692.495 534.26 690.287 534.167L689.949 542.16ZM610.277 529.964C608.072 529.832 606.177 531.512 606.045 533.718C605.912 535.923 607.593 537.818 609.798 537.95L610.277 529.964ZM569.748 535.474C571.953 535.613 573.853 533.938 573.992 531.734C574.131 529.529 572.456 527.629 570.251 527.49L569.748 535.474ZM490.193 522.547C487.988 522.419 486.096 524.103 485.968 526.308C485.84 528.514 487.525 530.405 489.73 530.533L490.193 522.547ZM449.704 528.362C451.91 528.472 453.788 526.773 453.898 524.566C454.007 522.36 452.308 520.482 450.101 520.372L449.704 528.362ZM369.741 517.452C367.532 517.409 365.707 519.165 365.664 521.374C365.62 523.582 367.376 525.408 369.585 525.451L369.741 517.452ZM329.613 525.121C331.823 525.112 333.606 523.314 333.597 521.105C333.587 518.896 331.789 517.112 329.58 517.121L329.613 525.121ZM249.348 520.119C247.145 520.29 245.498 522.213 245.669 524.416C245.84 526.619 247.763 528.266 249.966 528.095L249.348 520.119ZM210.245 532.24C212.434 531.946 213.971 529.933 213.677 527.743C213.383 525.554 211.37 524.017 209.18 524.311L210.245 532.24ZM130.272 541.536C128.173 542.224 127.028 544.483 127.716 546.582C128.403 548.682 130.663 549.827 132.762 549.139L130.272 541.536ZM96.2079 564.069C98.1794 563.072 98.9696 560.666 97.9728 558.695C96.9761 556.723 94.5699 555.933 92.5984 556.93L96.2079 564.069ZM29.904 608.638C28.6141 610.431 29.0222 612.931 30.8156 614.221C32.609 615.511 35.1085 615.102 36.3985 613.309L29.904 608.638ZM18.3394 647.702C19.0923 645.625 18.019 643.331 15.9422 642.578C13.8653 641.825 11.5713 642.899 10.8184 644.976L18.3394 647.702ZM0.944187 727.904C1.17922 730.101 3.15045 731.691 5.34705 731.456C7.54365 731.221 9.13381 729.25 8.89878 727.053L0.944187 727.904ZM19.2619 766.094C18.3465 764.083 15.9745 763.196 13.964 764.111C11.9534 765.027 11.0657 767.399 11.9812 769.409L19.2619 766.094ZM70.4783 830.312C72.4002 831.401 74.8413 830.727 75.9307 828.805C77.02 826.883 76.3452 824.442 74.4233 823.352L70.4783 830.312ZM111.751 839.934C109.664 839.21 107.385 840.315 106.661 842.402C105.937 844.489 107.042 846.768 109.129 847.492L111.751 839.934ZM191.312 865.986C193.501 866.282 195.516 864.747 195.812 862.558C196.108 860.368 194.573 858.354 192.383 858.058L191.312 865.986ZM233.768 862.388C231.565 862.217 229.641 863.865 229.471 866.067C229.3 868.27 230.947 870.193 233.15 870.364L233.768 862.388ZM317.191 873.525C319.4 873.536 321.2 871.755 321.211 869.545C321.222 867.336 319.44 865.536 317.231 865.526L317.191 873.525ZM358.904 865.232C356.695 865.271 354.937 867.094 354.977 869.303C355.016 871.512 356.839 873.27 359.048 873.23L358.904 865.232ZM442.635 870.368C444.842 870.263 446.546 868.39 446.441 866.183C446.337 863.977 444.463 862.272 442.256 862.377L442.635 870.368ZM484.04 860.209C481.835 860.332 480.146 862.22 480.269 864.426C480.392 866.632 482.28 868.32 484.486 868.197L484.04 860.209ZM567.965 863.181C570.17 863.044 571.846 861.145 571.709 858.94C571.572 856.736 569.673 855.06 567.468 855.197L567.965 863.181ZM609.232 852.617C607.027 852.751 605.348 854.647 605.482 856.852C605.616 859.057 607.512 860.736 609.717 860.602L609.232 852.617ZM693.108 855.974C695.315 855.868 697.018 853.993 696.912 851.786C696.806 849.58 694.931 847.877 692.724 847.983L693.108 855.974ZM734.627 846.207C732.419 846.286 730.694 848.141 730.774 850.348C730.854 852.556 732.708 854.281 734.916 854.201L734.627 846.207ZM818.344 852.624C820.553 852.628 822.347 850.841 822.352 848.632C822.356 846.423 820.568 844.628 818.359 844.624L818.344 852.624ZM860.104 845.273C857.896 845.206 856.052 846.941 855.984 849.149C855.917 851.358 857.652 853.202 859.861 853.269L860.104 845.273ZM943.056 859.158C945.249 859.422 947.241 857.857 947.505 855.664C947.768 853.471 946.204 851.479 944.011 851.215L943.056 859.158ZM985.639 857.63C983.469 857.212 981.372 858.633 980.955 860.802C980.538 862.972 981.958 865.068 984.128 865.486L985.639 857.63ZM1062.76 889.598C1064.76 890.534 1067.14 889.67 1068.08 887.668C1069.01 885.667 1068.15 883.286 1066.15 882.351L1062.76 889.598ZM1102.67 904.263C1100.92 902.913 1098.41 903.236 1097.06 904.985C1095.71 906.733 1096.03 909.245 1097.78 910.595L1102.67 904.263ZM1143.15 975.949C1143.77 978.069 1146 979.284 1148.12 978.663C1150.24 978.042 1151.45 975.819 1150.83 973.699L1143.15 975.949ZM1157.1 1016.19C1157.05 1013.98 1155.22 1012.23 1153.01 1012.28C1150.8 1012.33 1149.05 1014.16 1149.1 1016.37L1157.1 1016.19ZM1135.89 1096.76C1135.12 1098.84 1136.18 1101.14 1138.25 1101.9C1140.32 1102.67 1142.62 1101.61 1143.39 1099.54L1135.89 1096.76ZM1124.21 1137.25C1125.44 1135.42 1124.95 1132.93 1123.12 1131.7C1121.28 1130.47 1118.8 1130.96 1117.57 1132.79L1124.21 1137.25ZM1058.57 1187.05C1056.67 1188.17 1056.03 1190.62 1057.14 1192.52C1058.26 1194.43 1060.71 1195.07 1062.62 1193.95L1058.57 1187.05ZM1024.71 1212.07C1026.77 1211.27 1027.79 1208.95 1026.99 1206.89C1026.2 1204.83 1023.88 1203.81 1021.82 1204.61L1024.71 1212.07ZM942.625 1225.41C940.446 1225.77 938.974 1227.83 939.338 1230.01C939.701 1232.19 941.762 1233.66 943.942 1233.3L942.625 1225.41ZM902.685 1238.76C904.883 1238.54 906.484 1236.58 906.261 1234.38C906.038 1232.18 904.076 1230.58 901.878 1230.8L902.685 1238.76ZM819.601 1235.29C817.392 1235.32 815.629 1237.14 815.664 1239.35C815.699 1241.56 817.517 1243.32 819.726 1243.29L819.601 1235.29ZM778.17 1243.33C780.379 1243.36 782.192 1241.59 782.22 1239.38C782.247 1237.17 780.479 1235.36 778.27 1235.33L778.17 1243.33ZM695.501 1232.61C693.294 1232.51 691.417 1234.21 691.308 1236.41C691.199 1238.62 692.9 1240.5 695.106 1240.6L695.501 1232.61ZM653.79 1238.33C655.996 1238.46 657.891 1236.78 658.023 1234.57C658.156 1232.37 656.476 1230.47 654.271 1230.34L653.79 1238.33ZM571.633 1224.89C569.429 1224.74 567.519 1226.4 567.366 1228.6C567.214 1230.81 568.877 1232.72 571.081 1232.87L571.633 1224.89ZM529.776 1230.03C531.98 1230.18 533.888 1228.51 534.037 1226.31C534.186 1224.11 532.52 1222.2 530.316 1222.05L529.776 1230.03ZM447.551 1216.96C445.345 1216.85 443.463 1218.54 443.347 1220.75C443.232 1222.95 444.927 1224.84 447.133 1224.95L447.551 1216.96ZM405.773 1223.07C407.981 1223.16 409.838 1221.44 409.921 1219.23C410.003 1217.02 408.281 1215.16 406.073 1215.08L405.773 1223.07ZM323.129 1213.77C320.92 1213.8 319.148 1215.61 319.172 1217.82C319.196 1220.03 321.006 1221.8 323.215 1221.77L323.129 1213.77ZM282.075 1222.94C284.282 1222.84 285.985 1220.96 285.879 1218.76C285.774 1216.55 283.899 1214.85 281.692 1214.95L282.075 1222.94ZM198.897 1223.31C196.718 1223.67 195.246 1225.73 195.609 1227.91C195.972 1230.09 198.033 1231.56 200.212 1231.2L198.897 1223.31ZM160.124 1239.71C162.26 1239.14 163.534 1236.95 162.97 1234.82C162.406 1232.68 160.217 1231.41 158.081 1231.97L160.124 1239.71ZM80.7748 1264.55C78.92 1265.75 78.3892 1268.23 79.5892 1270.08C80.7892 1271.94 83.2656 1272.47 85.1204 1271.27L80.7748 1264.55ZM54.0919 1296.92C55.6047 1295.31 55.5261 1292.78 53.9162 1291.27C52.3064 1289.76 49.7749 1289.84 48.2621 1291.45L54.0919 1296.92ZM8.93587 1365.67C8.41597 1367.81 9.73507 1369.97 11.8822 1370.49C14.0293 1371.01 16.1913 1369.7 16.7112 1367.55L8.93587 1365.67ZM11.0988 1407.64C11.2102 1405.43 9.51196 1403.55 7.30563 1403.44C5.0993 1403.33 3.22041 1405.03 3.109 1407.23L11.0988 1407.64ZM3.01487 0.844043C4.22003 14.8038 6.51746 27.7725 9.84746 39.8087L17.5578 37.6755C14.3697 26.1523 12.152 13.6706 10.9852 0.155957L3.01487 0.844043ZM24.7329 76.6315C37.8538 100.317 56.2616 118.971 78.9093 133.487L83.2261 126.751C61.5788 112.877 44.145 95.1648 31.7309 72.7549L24.7329 76.6315ZM114.065 151.521C136.742 160.765 162.176 167.296 189.727 171.712L190.993 163.813C163.879 159.467 139.062 153.071 117.084 144.112L114.065 151.521ZM228.502 176.476C253.167 178.679 279.176 179.582 306.171 179.525L306.154 171.525C279.342 171.582 253.583 170.684 229.213 168.508L228.502 176.476ZM344.997 178.836C370.27 178.027 396.234 176.557 422.626 174.671L422.055 166.691C395.738 168.572 369.882 170.036 344.742 170.84L344.997 178.836ZM461.388 171.655C486.928 169.525 512.753 167.126 538.626 164.671L537.871 156.707C512.004 159.161 486.216 161.557 460.723 163.683L461.388 171.655ZM577.247 160.995C603.094 158.541 628.877 156.139 654.381 154L653.712 146.028C628.163 148.171 602.344 150.576 576.491 153.03L577.247 160.995ZM693.047 150.97C719.353 149.073 745.217 147.582 770.386 146.742L770.119 138.746C744.82 139.591 718.85 141.088 692.472 142.991L693.047 150.97ZM808.993 145.991C835.766 145.88 861.521 146.704 885.926 148.779L886.604 140.808C861.91 138.708 835.912 137.88 808.96 137.991L808.993 145.991ZM924.143 153.272C951.264 157.443 976.168 163.607 998.33 172.266L1001.24 164.815C978.403 155.891 952.903 149.601 925.359 145.365L924.143 153.272ZM1032.52 189.025C1054.6 202.504 1072.56 219.739 1085.62 241.565L1092.48 237.459C1078.69 214.396 1059.74 196.271 1036.69 182.197L1032.52 189.025ZM1100.9 276.138C1104.45 287.578 1107.02 299.988 1108.52 313.445L1116.47 312.555C1114.92 298.639 1112.25 285.73 1108.55 273.769L1100.9 276.138ZM1108.52 313.445C1110.1 327.521 1110.68 340.721 1110.33 353.096L1118.32 353.324C1118.69 340.538 1118.09 326.963 1116.47 312.555L1108.52 313.445ZM1105.66 391.96C1099.44 419.685 1087.3 442.25 1070.27 460.602L1076.13 466.045C1094.16 446.623 1106.94 422.772 1113.47 393.712L1105.66 391.96ZM1040.38 485.601C1019.97 498.984 995.596 509.155 967.984 516.737L970.103 524.452C998.289 516.711 1023.48 506.246 1044.77 492.291L1040.38 485.601ZM929.25 525.38C904.603 529.766 878.105 532.616 850.181 534.293L850.66 542.279C878.814 540.588 905.629 537.709 930.651 533.256L929.25 525.38ZM810.353 535.908C784.529 536.496 757.767 536.296 730.367 535.566L730.154 543.563C757.65 544.296 784.549 544.498 810.536 543.906L810.353 535.908ZM690.287 534.167C663.959 533.054 637.206 531.58 610.277 529.964L609.798 537.95C636.75 539.567 663.555 541.044 689.949 542.16L690.287 534.167ZM570.251 527.49C543.529 525.806 516.754 524.088 490.193 522.547L489.73 530.533C516.265 532.073 543.013 533.79 569.748 535.474L570.251 527.49ZM450.101 520.372C422.872 519.017 395.991 517.965 369.741 517.452L369.585 525.451C395.731 525.962 422.527 527.01 449.704 528.362L450.101 520.372ZM329.58 517.121C301.818 517.238 274.953 518.135 249.348 520.119L249.966 528.095C275.333 526.13 301.997 525.237 329.613 525.121L329.58 517.121ZM209.18 524.311C180.707 528.133 154.199 533.701 130.272 541.536L132.762 549.139C156.11 541.493 182.119 536.015 210.245 532.24L209.18 524.311ZM92.5984 556.93C66.9161 569.914 45.5979 586.819 29.904 608.638L36.3985 613.309C51.2032 592.727 71.4374 576.592 96.2079 564.069L92.5984 556.93ZM10.8184 644.976C6.37446 657.234 3.2479 670.559 1.52789 685.028L9.47195 685.972C11.1255 672.063 14.1204 659.34 18.3394 647.702L10.8184 644.976ZM1.52789 685.028C-0.303967 700.437 -0.468126 714.705 0.944187 727.904L8.89878 727.053C7.55833 714.526 7.70153 700.865 9.47195 685.972L1.52789 685.028ZM11.9812 769.409C23.8245 795.419 43.9847 815.294 70.4783 830.312L74.4233 823.352C49.0829 808.988 30.2691 790.268 19.2619 766.094L11.9812 769.409ZM109.129 847.492C133.468 855.934 161.125 861.907 191.312 865.986L192.383 858.058C162.553 854.027 135.446 848.153 111.751 839.934L109.129 847.492ZM233.15 870.364C259.767 872.427 287.921 873.379 317.191 873.525L317.231 865.526C288.103 865.38 260.148 864.432 233.768 862.388L233.15 870.364ZM359.048 873.23C386.251 872.741 414.215 871.714 442.635 870.368L442.256 862.377C413.889 863.721 386.007 864.745 358.904 865.232L359.048 873.23ZM484.486 868.197C512.108 866.657 540.027 864.921 567.965 863.181L567.468 855.197C539.526 856.936 511.633 858.671 484.04 860.209L484.486 868.197ZM609.717 860.602C637.711 858.902 665.595 857.294 693.108 855.974L692.724 847.983C665.162 849.306 637.24 850.916 609.232 852.617L609.717 860.602ZM734.916 854.201C763.399 853.173 791.31 852.572 818.344 852.624L818.359 844.624C791.199 844.572 763.183 845.175 734.627 846.207L734.916 854.201ZM859.861 853.269C889.065 854.16 916.94 856.018 943.056 859.158L944.011 851.215C917.604 848.04 889.485 846.169 860.104 845.273L859.861 853.269ZM984.128 865.486C1013.68 871.171 1040.14 879.028 1062.76 889.598L1066.15 882.351C1042.77 871.424 1015.64 863.4 985.639 857.63L984.128 865.486ZM1097.78 910.595C1119.67 927.497 1135.23 948.907 1143.15 975.949L1150.83 973.699C1142.39 944.898 1125.78 922.106 1102.67 904.263L1097.78 910.595ZM1149.1 1016.37C1149.38 1029.04 1148.4 1042.68 1146.05 1057.37L1153.95 1058.63C1156.36 1043.53 1157.39 1029.4 1157.1 1016.19L1149.1 1016.37ZM1146.05 1057.37C1143.78 1071.58 1140.36 1084.68 1135.89 1096.76L1143.39 1099.54C1148.06 1086.94 1151.6 1073.32 1153.95 1058.63L1146.05 1057.37ZM1117.57 1132.79C1102.57 1155.14 1082.64 1172.95 1058.57 1187.05L1062.62 1193.95C1087.57 1179.33 1108.46 1160.73 1124.21 1137.25L1117.57 1132.79ZM1021.82 1204.61C997.968 1213.85 971.386 1220.61 942.625 1225.41L943.942 1233.3C973.1 1228.44 1000.23 1221.55 1024.71 1212.07L1021.82 1204.61ZM901.878 1230.8C875.696 1233.46 848.15 1234.84 819.601 1235.29L819.726 1243.29C848.447 1242.84 876.227 1241.44 902.685 1238.76L901.878 1230.8ZM778.27 1235.33C751.27 1234.99 723.587 1234 695.501 1232.61L695.106 1240.6C723.26 1241.99 751.046 1242.99 778.17 1243.33L778.27 1235.33ZM654.271 1230.34C626.877 1228.69 599.25 1226.8 571.633 1224.89L571.081 1232.87C598.696 1234.78 626.356 1236.68 653.79 1238.33L654.271 1230.34ZM530.316 1222.05C502.494 1220.17 474.814 1218.39 447.551 1216.96L447.133 1224.95C474.336 1226.38 501.969 1228.15 529.776 1230.03L530.316 1222.05ZM406.073 1215.08C377.713 1214.02 349.957 1213.48 323.129 1213.77L323.215 1221.77C349.883 1221.48 377.504 1222.01 405.773 1223.07L406.073 1215.08ZM281.692 1214.95C252.573 1216.35 224.817 1218.99 198.897 1223.31L200.212 1231.2C225.752 1226.95 253.185 1224.33 282.075 1222.94L281.692 1214.95ZM158.081 1231.97C128.964 1239.66 102.886 1250.25 80.7748 1264.55L85.1204 1271.27C106.346 1257.54 131.592 1247.24 160.124 1239.71L158.081 1231.97ZM48.2621 1291.45C29.6222 1311.28 16.1813 1335.74 8.93587 1365.67L16.7112 1367.55C23.6434 1338.92 36.4377 1315.71 54.0919 1296.92L48.2621 1291.45ZM3.109 1407.23C2.44292 1420.43 2.72895 1434.45 4.01474 1449.34L11.9851 1448.66C10.7274 1434.08 10.4529 1420.43 11.0988 1407.64L3.109 1407.23Z" fill="#F2F4FF"/>
</svg>
