<svg width="497" height="702" viewBox="0 0 497 702" fill="none" xmlns="http://www.w3.org/2000/svg">
<path fill-rule="evenodd" clip-rule="evenodd" d="M383.977 -28.9495C445.824 -14.6778 460.822 69.2249 510.137 109.135C549.262 140.799 611.802 138.192 641.071 179.116C670.742 220.6 660.591 276.666 666.198 327.335C672.49 384.2 686.897 439.566 676.109 495.754C662.45 566.9 660.593 661.1 595.843 693.768C529.907 727.035 457.608 649.118 383.977 643.145C318.505 637.834 246.516 696.143 191.094 660.935C135.098 625.363 155.552 535.538 123.361 477.584C91.9525 421.039 20.0336 390.412 5.79102 327.335C-9.08659 261.446 4.91318 186.256 45.3552 132.114C85.0321 78.9972 159.057 70.4424 218.969 41.9456C273.964 15.7874 324.625 -42.6453 383.977 -28.9495Z" fill="#FEE9EE"/>
</svg>
