<svg width="24" height="24" viewBox="0 0 24 24" fill="none" xmlns="http://www.w3.org/2000/svg">
<rect width="24" height="24" rx="12" fill="#353947"/>
<path d="M9.83333 9.63204C10.0941 9.46618 10.4418 9.61977 10.4929 9.9267L10.6138 10.6518C10.6418 10.82 10.5686 10.989 10.4267 11.0836L9.9925 11.3731C9.88892 11.0223 9.83333 10.651 9.83333 10.2667V9.63204Z" fill="white"/>
<path d="M13.7333 14.1667C13.349 14.1667 12.9777 14.1111 12.6269 14.0075L12.9164 13.5733C13.011 13.4314 13.18 13.3582 13.3482 13.3862L14.0733 13.5071C14.3802 13.5582 14.5338 13.9059 14.368 14.1667H13.7333Z" fill="white"/>
<path fill-rule="evenodd" clip-rule="evenodd" d="M5.50001 12C5.50001 8.41015 8.41016 5.5 12 5.5C15.5899 5.5 18.5 8.41015 18.5 12C18.5 15.5898 15.5899 18.5 12 18.5C10.6342 18.5 9.36582 18.0783 8.31932 17.3581L6.12714 18.4542C5.96031 18.5377 5.75882 18.505 5.62693 18.3731C5.49504 18.2412 5.46235 18.0397 5.54576 17.8729L6.64185 15.6807C5.92171 14.6342 5.50001 13.3658 5.50001 12ZM9.16529 9.03567L9.34437 8.91628C10.1293 8.393 11.1927 8.85371 11.3478 9.78422L11.4686 10.5093C11.5527 11.0139 11.3331 11.521 10.9074 11.8047L10.337 12.185C10.6861 12.8017 11.1983 13.3139 11.815 13.663L12.1953 13.0925C12.479 12.6669 12.9861 12.4472 13.4907 12.5313L14.2158 12.6522C15.1463 12.8073 15.607 13.8707 15.0837 14.6556L14.9641 14.835C14.8869 14.9544 14.7527 15.0333 14.6 15.0333H13.7333C11.1008 15.0333 8.96666 12.8992 8.96666 10.2667V9.4C8.96666 9.24717 9.04578 9.11281 9.16529 9.03567Z" fill="white"/>
</svg>
