<svg width="36" height="36" viewBox="0 0 36 36" fill="none" xmlns="http://www.w3.org/2000/svg">
<path d="M0 18C0 8.05888 8.05888 0 18 0C27.9411 0 36 8.05888 36 18C36 27.9411 27.9411 36 18 36C8.05888 36 0 27.9411 0 18Z" fill="#F3F3F3"/>
<path d="M15.5 15.2677C15.8009 15.0764 16.202 15.2536 16.2611 15.6077L16.4005 16.4444C16.4329 16.6385 16.3484 16.8335 16.1847 16.9426L15.6837 17.2766C15.5641 16.8719 15.5 16.4435 15.5 16V15.2677Z" fill="#5E5E5E"/>
<path d="M20 20.5C19.5566 20.5 19.1281 20.4359 18.7234 20.3163L19.0574 19.8153C19.1665 19.6516 19.3615 19.5671 19.5556 19.5995L20.3923 19.7389C20.7464 19.798 20.9236 20.1991 20.7323 20.5H20Z" fill="#5E5E5E"/>
<path fill-rule="evenodd" clip-rule="evenodd" d="M10.5 18C10.5 13.8579 13.8579 10.5 18 10.5C22.1421 10.5 25.5 13.8579 25.5 18C25.5 22.1421 22.1421 25.5 18 25.5C16.4241 25.5 14.9606 25.0134 13.7531 24.1825L11.2236 25.4472C11.0311 25.5435 10.7986 25.5057 10.6465 25.3536C10.4943 25.2014 10.4566 24.9689 10.5528 24.7764L11.8175 22.2469C10.9866 21.0394 10.5 19.5759 10.5 18ZM14.7292 14.5796L14.9358 14.4419C15.8415 13.8381 17.0685 14.3697 17.2475 15.4433L17.3869 16.28C17.4839 16.8622 17.2305 17.4473 16.7394 17.7747L16.0811 18.2135C16.4839 18.9251 17.0749 19.5161 17.7865 19.9189L18.2253 19.2606C18.5527 18.7695 19.1378 18.5161 19.72 18.6131L20.5567 18.7525C21.6303 18.9315 22.1619 20.1585 21.5581 21.0642L21.4201 21.2712C21.3311 21.4089 21.1762 21.5 21 21.5H20C16.9624 21.5 14.5 19.0376 14.5 16V15C14.5 14.8237 14.5913 14.6686 14.7292 14.5796Z" fill="#5E5E5E"/>
</svg>
