<svg width="24" height="24" viewBox="0 0 24 24" fill="none" xmlns="http://www.w3.org/2000/svg">
<path d="M0 12C0 5.37258 5.37258 0 12 0C18.6274 0 24 5.37258 24 12C24 18.6274 18.6274 24 12 24C5.37258 24 0 18.6274 0 12Z" fill="#08090D"/>
<path d="M4.72119 18.9814L5.75013 15.245C5.11399 14.1483 4.78029 12.9063 4.78376 11.6366C4.78376 7.65807 8.03742 4.42334 12.0315 4.42334C13.9712 4.42334 15.7927 5.17407 17.1588 6.53716C18.5284 7.90025 19.2827 9.71308 19.2792 11.6401C19.2792 15.6186 16.0256 18.8534 12.028 18.8534H12.0245C10.8114 18.8534 9.61905 18.5489 8.55884 17.9746L4.72119 18.9814ZM8.74307 16.6704L8.96207 16.8018C9.88672 17.3484 10.9469 17.6356 12.028 17.639H12.0315C15.3512 17.639 18.0556 14.9509 18.0556 11.6435C18.0556 10.0417 17.4299 8.53681 16.2932 7.40206C15.1565 6.26731 13.6409 5.64458 12.0315 5.64458C8.71179 5.64112 6.00736 8.32924 6.00736 11.6366C6.00736 12.7679 6.32369 13.8715 6.92853 14.8264L7.07105 15.0547L6.46273 17.2654L8.74307 16.6704Z" fill="white"/>
<path d="M4.9751 18.7287L5.96927 15.1203C5.354 14.0652 5.03072 12.8647 5.03072 11.64C5.03419 7.79981 8.17313 4.67578 12.0316 4.67578C13.9053 4.67578 15.6607 5.4023 16.9816 6.71695C18.3026 8.0316 19.0291 9.78216 19.0291 11.6434C19.0291 15.4836 15.8867 18.6076 12.0316 18.6076H12.0282C10.8567 18.6076 9.70611 18.3136 8.68412 17.76L4.9751 18.7287Z" fill="#08090D"/>
<path d="M4.72119 18.9814L5.75013 15.245C5.11399 14.1483 4.78029 12.9063 4.78376 11.6366C4.78376 7.65807 8.03742 4.42334 12.0315 4.42334C13.9712 4.42334 15.7927 5.17407 17.1588 6.53716C18.5284 7.90025 19.2827 9.71308 19.2792 11.6401C19.2792 15.6186 16.0256 18.8534 12.028 18.8534H12.0245C10.8114 18.8534 9.61905 18.5489 8.55884 17.9746L4.72119 18.9814ZM8.74307 16.6704L8.96207 16.8018C9.88672 17.3484 10.9469 17.6356 12.028 17.639H12.0315C15.3512 17.639 18.0556 14.9509 18.0556 11.6435C18.0556 10.0417 17.4299 8.53681 16.2932 7.40206C15.1565 6.26731 13.6409 5.64458 12.0315 5.64458C8.71179 5.64112 6.00736 8.32924 6.00736 11.6366C6.00736 12.7679 6.32369 13.8715 6.92853 14.8264L7.07105 15.0547L6.46273 17.2654L8.74307 16.6704Z" fill="url(#paint0_linear_363_2232)"/>
<path fill-rule="evenodd" clip-rule="evenodd" d="M10.2203 8.61976C10.0847 8.31877 9.94216 8.31185 9.81355 8.30839C9.70926 8.30493 9.5876 8.30493 9.46593 8.30493C9.34427 8.30493 9.14961 8.34991 8.98275 8.52981C8.8159 8.70971 8.3501 9.14562 8.3501 10.0347C8.3501 10.9204 9.00013 11.7784 9.09051 11.8995C9.18089 12.0206 10.3454 13.8991 12.1843 14.6222C13.7138 15.2241 14.0266 15.1031 14.3568 15.0719C14.6871 15.0408 15.4275 14.636 15.5804 14.2139C15.7299 13.7919 15.7299 13.4321 15.6847 13.356C15.6395 13.2799 15.5179 13.2349 15.3371 13.1449C15.1564 13.055 14.2665 12.6191 14.0996 12.5568C13.9328 12.498 13.8111 12.4668 13.6929 12.6467C13.5712 12.8266 13.2236 13.2314 13.1193 13.3525C13.0151 13.4736 12.9073 13.4874 12.7265 13.3975C12.5458 13.3075 11.9618 13.1172 11.27 12.5014C10.7312 12.024 10.3663 11.4324 10.262 11.2525C10.1577 11.0726 10.2515 10.9757 10.3419 10.8858C10.4219 10.8062 10.5227 10.6748 10.6131 10.571C10.7034 10.4672 10.7347 10.3911 10.7938 10.27C10.8529 10.1489 10.8251 10.0451 10.7799 9.95517C10.7347 9.86867 10.3802 8.9761 10.2203 8.61976Z" fill="white"/>
<defs>
<linearGradient id="paint0_linear_363_2232" x1="12.0016" y1="18.98" x2="12.0016" y2="4.42334" gradientUnits="userSpaceOnUse">
<stop stop-color="#F9F9F9"/>
<stop offset="1" stop-color="white"/>
</linearGradient>
</defs>
</svg>
